<svg width="82" height="15" viewBox="0 0 82 15" fill="none" xmlns="http://www.w3.org/2000/svg">
<path d="M0 0.0110554C2.31253 0.0110554 4.61686 -0.0228004 6.92939 0.0279809C8.70889 0.0702987 10.103 1.31444 10.3982 3.01561C10.7426 4.9453 9.76675 6.58723 8.27427 7.0358C8.24147 7.04426 8.20866 7.08658 8.15126 7.12044C9.57814 7.54361 10.4228 8.51692 10.6688 9.97265C11.0624 12.3763 9.77495 14.3568 7.34762 14.6361C6.80638 14.6953 6.26515 14.6953 5.71572 14.7038L0 14.7207V0.0110554ZM3.07517 11.9108C3.11618 11.9277 3.15718 11.9531 3.19818 11.9531C4.15764 11.9531 5.10889 11.987 6.06834 11.9447C7.0524 11.8939 7.64283 11.2676 7.66743 10.345C7.69203 9.41406 7.1508 8.7539 6.18315 8.62695C5.56811 8.55078 4.94488 8.58463 4.32984 8.57616C3.91982 8.5677 3.5098 8.57616 3.07517 8.57616V11.9108ZM3.05057 5.83398H5.63372C5.79773 5.83398 5.96174 5.83398 6.11755 5.80012C6.71618 5.67317 7.16721 5.36002 7.32301 4.71679C7.56903 3.6927 6.93759 2.80403 5.91253 2.75324C5.43691 2.72785 4.95308 2.74478 4.47745 2.74478H3.06697C3.05877 2.84634 3.05057 2.91405 3.05057 2.98176V5.83398ZM55.0497 14.9831C54.6889 14.9154 54.3199 14.8561 53.9673 14.7715C51.1791 14.0775 49.7522 11.5977 49.9982 8.86393C50.2032 6.57031 51.3267 4.89452 53.4588 4.11588C56.4438 3.03254 59.8962 4.49674 60.4046 8.58463C60.4702 9.1263 60.4702 9.67643 60.503 10.2689H52.811C52.9914 11.276 53.4834 11.987 54.3363 12.3594C55.7304 12.9687 57.0424 12.6641 58.2725 11.8431C58.3463 11.7923 58.4119 11.7415 58.4857 11.6823C58.4939 11.6738 58.5021 11.6823 58.5595 11.6823C58.9367 12.2578 59.3222 12.8503 59.765 13.5104C59.3714 13.7643 59.0023 14.0436 58.6005 14.2552C57.8625 14.6361 57.0752 14.8392 56.2552 14.9069C56.165 14.9154 56.0748 14.9492 55.9764 14.9746C55.6565 14.9831 55.3531 14.9831 55.0497 14.9831ZM57.8379 8.33919C57.8953 7.01887 56.6734 6.01171 55.1317 6.07096C53.8442 6.12174 52.7044 7.24739 52.8438 8.33919H57.8379ZM66.0957 14.9831C65.6529 14.89 65.2019 14.8223 64.7673 14.7038C62.6843 14.1113 61.2493 12.2917 61.0606 10.0742C60.8802 7.98372 61.4707 6.20637 63.0944 4.88606C65.5627 2.8802 70.4092 3.33723 71.3768 8.07682C71.4424 8.41536 71.4834 8.76236 71.508 9.10937C71.5326 9.48176 71.5162 9.8457 71.5162 10.2689H63.8652C63.9308 10.8613 64.1522 11.3353 64.5212 11.7331C65.3659 12.6387 66.4238 12.8079 67.5636 12.5964C68.2935 12.4609 68.9659 12.1816 69.5645 11.6484C69.9664 12.2663 70.3682 12.8587 70.7946 13.5104C70.4748 13.7305 70.1878 13.9674 69.868 14.1452C69.0807 14.5937 68.2197 14.8307 67.3176 14.9154C67.211 14.9238 67.1126 14.9661 67.006 14.9831H66.0957ZM63.8898 8.33919H68.8921C68.9577 7.06119 67.7686 6.0371 66.2679 6.07096C64.9395 6.09635 63.7914 7.17968 63.8898 8.33919ZM15.4907 14.9831C15.1627 14.9154 14.8346 14.8561 14.5066 14.7715C12.4975 14.2806 11.3084 12.7233 11.3084 10.5905V4.09048H14.0228V4.47981C14.0228 6.41796 14.031 8.34765 14.0228 10.2858C14.0228 11.166 14.277 11.9023 15.0807 12.2917C15.9581 12.7064 16.8438 12.6895 17.6556 12.097C18.246 11.6654 18.41 10.9967 18.4182 10.2858V4.09895H21.108V10.5482C21.108 12.9857 19.6319 14.6699 17.2702 14.9238C17.1554 14.9323 17.0406 14.9746 16.9258 15C16.4583 14.9831 15.9745 14.9831 15.4907 14.9831ZM41.1499 14.6784V0.0110554H51.0315V1.43293C51.0315 1.74608 51.0151 2.0677 51.0397 2.37238C51.0643 2.68554 50.9413 2.74478 50.6707 2.74478C48.719 2.73632 46.7672 2.73632 44.8155 2.73632H44.2005V5.82551H44.5695C46.0456 5.82551 47.5135 5.83398 48.9814 5.81705C49.2766 5.81705 49.3504 5.91015 49.3422 6.19791C49.3258 6.96809 49.334 7.74674 49.334 8.55077H44.1759V14.6615C43.1508 14.6784 42.1668 14.6784 41.1499 14.6784ZM72.1969 14.6784V4.44595C72.1969 4.01431 72.1969 4.01431 72.6315 4.01431C74.124 4.03124 75.6247 3.96353 77.1008 4.08202C79.2165 4.25129 80.873 5.23307 81.652 7.38281C82.4475 9.57487 81.8406 12.0716 80.2251 13.4342C79.2739 14.2383 78.1504 14.6361 76.9449 14.6784C75.4115 14.7376 73.8698 14.6953 72.3363 14.6953C72.3117 14.7122 72.2789 14.6953 72.1969 14.6784ZM74.7882 12.4271H76.2807C78.0356 12.4271 79.1427 11.403 79.3313 9.60872C79.4707 8.3138 78.7983 7.02734 77.7158 6.57031C76.7645 6.17252 75.7723 6.38411 74.78 6.32486C74.7882 8.37304 74.7882 10.3704 74.7882 12.4271ZM26.5941 6.48567H21.9936V4.08202H30.3171C30.3171 4.53905 30.2925 4.99608 30.3253 5.44465C30.3499 5.85937 30.2269 6.18944 29.9727 6.51106C28.5868 8.2884 27.2255 10.0827 25.8561 11.8769C25.7823 11.97 25.7085 12.0716 25.6018 12.2324H30.3745V14.6868H21.969C21.969 14.0182 21.9608 13.3496 21.9772 12.681C21.9772 12.571 22.092 12.444 22.1741 12.3424C23.5763 10.4974 24.9868 8.65234 26.3973 6.80728C26.4383 6.71418 26.4957 6.62955 26.5941 6.48567ZM31.1126 6.48567V4.33593C31.1126 4.25976 31.1208 4.18359 31.129 4.08202H39.4278C39.4278 4.72525 39.436 5.36002 39.4196 6.00325C39.4196 6.09635 39.3294 6.19791 39.2638 6.29101L34.975 11.9023C34.9012 11.9954 34.8438 12.0885 34.729 12.2493H35.1472C36.5003 12.2493 37.8451 12.2578 39.1982 12.2409C39.4442 12.2409 39.5426 12.3001 39.5344 12.5794C39.518 13.2734 39.5262 13.9674 39.5262 14.6868H31.1208C31.1208 13.9928 31.1126 13.3073 31.129 12.6302C31.129 12.5456 31.2192 12.4525 31.2766 12.3763L35.3932 6.96809C35.4998 6.83267 35.5982 6.68879 35.754 6.48567H31.1126Z" fill="#797979" fill-opacity="0.7"/>
</svg>
