<svg width="45" height="46" viewBox="0 0 45 46" fill="none" xmlns="http://www.w3.org/2000/svg">
<path d="M44.5716 17.4961C45.1571 19.8922 44.2715 22.323 42.3537 23.7611L42.2536 23.8361V23.9611V35.2304C42.2536 36.9774 41.2934 38.492 39.8776 39.3171L39.7535 39.3894V39.5331V41.4775C39.7535 43.4063 38.1833 44.9758 36.2531 44.9758C34.3229 44.9758 32.7528 43.4063 32.7528 41.4775V40.228V39.978H32.5028H12.5011H12.2511V40.228V41.4775C12.2511 43.4063 10.6809 44.9758 8.75074 44.9758C6.82056 44.9758 5.25039 43.4063 5.25039 41.4775V39.5331V39.3894L5.12627 39.3171C3.71048 38.492 2.75019 36.9774 2.75019 35.2304V23.9598V23.8351L2.65064 23.7601C1.15403 22.6324 0.25 20.8607 0.25 18.9876C0.25 17.226 1.02099 15.5606 2.36428 14.4183L44.5716 17.4961ZM44.5716 17.4961C44.044 15.3413 42.2205 13.5817 40.04 13.1254M44.5716 17.4961L40.04 13.1254M40.04 13.1254L40.0399 13.1254C39.9642 13.1095 39.8852 13.1023 39.7939 13.0964C39.7756 13.0952 39.7565 13.0941 39.7367 13.0929C39.6629 13.0886 39.5799 13.0837 39.4986 13.074L39.3242 13.0532L39.2847 12.882C37.6184 5.66078 31.2684 0.496094 23.7519 0.496094H21.2517C13.7366 0.496094 7.38556 5.66182 5.71847 12.8823L5.67925 13.0521L5.50631 13.074C4.35233 13.2202 3.25637 13.6604 2.36437 14.4182L40.04 13.1254ZM37.072 13.2593L37.3051 13.1914L37.244 12.9564C35.654 6.84004 30.1959 2.49493 23.7499 2.49493H21.2499C14.8069 2.49493 9.3486 6.83761 7.75716 12.9494L7.69635 13.1829L7.92762 13.2519C10.423 13.9964 12.25 16.4405 12.25 19.2548V25.2348V25.4848H12.5H32.4999H32.7499V25.2348V18.9876C32.7499 17.173 33.5581 15.4762 34.9695 14.3304C35.5912 13.8263 36.3101 13.4813 37.072 13.2593ZM7.5 39.978H7.25V40.228V41.4775C7.25 42.305 7.92227 42.977 8.74992 42.977C9.57766 42.977 10.25 42.305 10.25 41.4775V40.228V39.978H9.99995H7.5ZM34.9999 39.978H34.7499V40.228V41.4775C34.7499 42.3052 35.4223 42.977 36.2499 42.977C37.0777 42.977 37.75 42.305 37.75 41.4775V40.228V39.978H37.5H34.9999ZM40.7468 22.4287L40.747 22.4286C42.3248 21.5107 43.0618 19.7569 42.6245 17.9705C42.2756 16.5427 41.0726 15.384 39.6265 15.0813L39.6264 15.0813C38.3943 14.8236 37.1854 15.1074 36.2305 15.8823C35.2895 16.6458 34.75 17.7774 34.75 18.9876V25.465V25.6413L34.9161 25.7005C36.2735 26.1843 37.25 27.4674 37.25 28.9831C37.25 30.9119 35.6799 32.4814 33.75 32.4814H11.25C9.32007 32.4814 7.75 30.9119 7.75 28.9831C7.75 27.4674 8.72647 26.1843 10.0839 25.7005L10.25 25.6413V25.465V19.2548C10.25 17.1794 8.8398 15.3554 6.92864 15.0451C5.73611 14.8506 4.56923 15.1674 3.65996 15.9409C2.76444 16.702 2.24996 17.8136 2.24996 18.9876C2.24996 20.4136 3.00108 21.7005 4.25302 22.4286L4.37871 22.2125L4.25263 22.4284C4.56076 22.6083 4.75004 22.9375 4.75004 23.2924V35.2304C4.75004 36.7461 5.98391 37.9792 7.5 37.9792H37.5C39.0161 37.9792 40.2499 36.7461 40.2499 35.2304V23.2924C40.2499 22.936 40.4394 22.6072 40.7468 22.4287ZM33.75 30.4826C34.5777 30.4826 35.25 29.8106 35.25 28.9831C35.25 28.1556 34.5776 27.4838 33.75 27.4836H11.25C10.4222 27.4836 9.74995 28.1556 9.74995 28.9831C9.74995 29.8108 10.4224 30.4826 11.25 30.4826H33.75Z" fill="#E25447" stroke="white" stroke-width="0.5"/>
</svg>
