<svg width="45" height="46" viewBox="0 0 45 46" fill="none" xmlns="http://www.w3.org/2000/svg">
<path d="M13.9983 43.5686C16.0327 45.6017 19.3306 45.6017 21.365 43.5686L44.7658 20.1783C44.9166 20.0276 45.0009 19.8225 45 19.6093L44.9063 1.0027C44.9041 0.564337 44.5489 0.209811 44.1108 0.207581L25.4954 0.113487C25.2817 0.110365 25.076 0.195095 24.9261 0.347608L1.52582 23.7379C-0.508606 25.7709 -0.508606 29.0678 1.52582 31.1013L13.9983 43.5686ZM2.65679 24.8679L25.8215 1.71354L43.3118 1.80183L43.3997 19.2838L20.2354 42.4381C18.8251 43.8473 16.5395 43.8473 15.1297 42.4381L2.65769 29.9717C1.24831 28.5625 1.24831 26.278 2.65769 24.8688L2.65679 24.8679Z" fill="#E25447"/>
<path d="M31.8298 18.4829C34.3135 18.4811 36.4505 16.7259 36.9337 14.2906C37.4168 11.8553 36.1114 9.41784 33.816 8.46888C31.5206 7.51992 28.8745 8.32395 27.4955 10.3891C26.1164 12.4542 26.389 15.2052 28.146 16.96C29.1226 17.9371 30.4481 18.4851 31.8298 18.4829ZM29.2769 10.7267C30.6867 9.3175 32.9724 9.3175 34.3826 10.7267C35.7924 12.1358 35.7924 14.4204 34.3826 15.8296C32.9724 17.2392 30.6867 17.2387 29.2769 15.8296C28.597 15.1544 28.2151 14.2362 28.2151 13.2783C28.2151 12.3205 28.597 11.4023 29.2769 10.7271V10.7267Z" fill="#E25447"/>
</svg>
