<svg width="45" height="32" viewBox="0 0 45 32" fill="none" xmlns="http://www.w3.org/2000/svg">
<path d="M0.760865 1.63619H5.40206C6.92931 1.63024 8.23152 2.74174 8.4642 4.2509L12.1382 27.448C12.4851 29.6973 14.4263 31.3546 16.7034 31.3457H39.413C39.8329 31.3457 40.1738 31.0049 40.1738 30.5851C40.1738 30.165 39.8329 29.8246 39.413 29.8246H16.7034C15.1761 29.8306 13.8739 28.7187 13.6412 27.2099L13.0167 23.266H36.2753C38.2445 23.2652 39.9972 22.0183 40.6426 20.159L44.9577 7.71058C45.0388 7.47801 45.0019 7.22083 44.8592 7.02009C44.7161 6.81977 44.4851 6.70051 44.2389 6.70051H10.3927L9.96725 4.01281C9.62036 1.76351 7.67913 0.106236 5.40206 0.115148H0.760865C0.340521 0.115148 0 0.455939 0 0.875667C0 1.29582 0.340521 1.63619 0.760865 1.63619ZM43.1698 8.22198L39.2049 19.6607C38.7719 20.9081 37.5962 21.7445 36.2753 21.745H12.7755L10.6334 8.22155L43.1698 8.22198Z" fill="#E25447"/>
</svg>
