<svg width="88" height="36" viewBox="0 0 88 36" fill="none" xmlns="http://www.w3.org/2000/svg">
<path d="M29.4713 7.67726C23.8567 3.12915 15.3117 -0.175407 6.48503 0.00721353C4.88338 0.102872 1.35449 0.294187 0.087254 2.52041C-0.0447496 2.93783 -0.0887508 3.67701 0.412863 3.81615C0.914477 3.95529 2.61292 4.32922 2.81533 3.72049C3.01773 3.12045 1.34569 3.20741 1.35449 2.88565C1.36329 2.5639 2.83293 2.23344 3.75695 2.18996C9.57391 1.91168 14.9949 2.98131 19.8966 5.12058C24.9303 7.3555 31.0641 10.834 32.5249 16.6517C32.8153 18.7388 32.2697 20.6259 30.5713 21.9738C26.9368 24.6001 22.0351 25.0175 17.3885 24.287C17.2213 24.2522 17.0453 24.0609 17.0013 23.9044C16.5789 21.5651 16.7725 18.8693 16.8341 16.4343C16.8341 16.0952 17.1333 16.0082 17.4589 16.0517C20.0902 16.3648 24.3319 16.8865 25.1855 17.7475C25.7752 18.3475 23.8567 19.0693 23.7863 19.5128C23.7247 19.9563 24.8247 19.8954 25.4055 19.8954C26.2856 19.8258 27.236 19.2606 27.5176 18.4605C27.7992 17.6518 27.588 16.243 26.6728 15.4951C23.9799 13.5907 20.5654 13.4515 17.1597 13.3124C16.3765 11.4514 17.2213 8.9382 15.4437 7.59899C15.2149 7.41637 14.8717 7.50333 14.7309 7.73813C14.1148 9.45998 14.0532 11.4514 13.886 13.3646C13.754 13.4081 13.8156 13.6428 13.6572 13.5994C10.8323 14.1124 8.00747 14.8603 5.77221 16.6082C5.429 17.0605 5.19139 17.6344 5.385 18.2083C6.84584 21.1042 9.92592 23.4435 12.7948 24.6261C14.2468 25.2001 13.4372 27.0002 14.4492 27.9307C14.8013 28.2177 15.3909 28.3133 15.8397 28.1481C16.5525 27.8959 16.7901 27.1567 17.0101 26.548C20.3894 27.322 24.5431 27.4089 27.852 26.4523C31.2577 25.5566 35.2882 22.7304 35.869 18.9736C36.353 14.2342 32.4633 10.0948 29.4713 7.67726ZM13.4284 22.8086C12.0644 22.6173 10.5683 21.7912 9.43311 21.139C8.29788 20.4954 7.09224 19.565 6.24742 18.4431C5.92181 17.8953 6.44983 17.4431 6.86344 17.2866C8.9403 16.5213 11.3164 16.2691 13.5516 16.2691C13.7188 16.3213 13.5868 16.4517 13.7188 16.5126C13.754 18.6779 13.754 20.7302 13.4284 22.8086ZM87.3504 15.4951C87.0776 14.9821 86.2944 14.2864 85.5112 14.3385C82.4575 15.3038 80.3454 18.5475 78.2334 20.8259C78.119 20.8868 78.0398 20.765 77.9166 20.6694C77.9166 17.8692 80.5742 16.1474 80.6535 13.3559C80.5742 13.2167 80.4158 13.1733 80.3014 13.1733C79.0078 14.2429 77.9166 15.5908 77.1686 16.9213C76.1477 18.9388 75.4085 21.5738 76.6229 23.7478C76.1125 25.1131 75.4085 26.748 75.2149 27.4437C75.0565 28.1394 72.9092 33.5484 75.5317 35.6355C75.9189 35.7486 76.5085 36.3747 76.7461 35.6703C77.2918 32.3049 78.119 29.0525 79.4038 25.9914C82.4575 26.3132 85.1152 24.4174 86.6816 22.5217C88.1689 20.5998 88.4065 17.617 87.3504 15.4951ZM83.9799 21.8173C83.1615 22.1651 82.2991 22.8086 81.2783 22.6869C82.0263 20.6955 83.5135 19.0258 85.036 17.3561C85.3528 17.2605 85.5024 16.7474 85.8984 16.817C86.0128 17.0691 86.2856 17.2952 86.3648 17.5822C86.4528 19.3476 85.5112 20.8868 83.9799 21.8173ZM38.8171 13.495C38.5443 13.3124 38.1483 13.5907 38.0339 13.9124C37.4003 16.0082 37.4267 18.4866 37.3299 20.765C37.4003 22.2086 37.1363 23.8087 37.8843 25.0001C38.0691 25.2871 38.7731 25.3827 39.2835 25.2871C39.6003 25.1218 40.1019 25.0262 40.1459 24.6174C40.2251 21.3738 40.0667 18.5214 39.7587 15.4517C39.7147 14.6516 39.6003 13.9124 38.8171 13.495ZM53.2143 15.356C53.5663 15.3125 53.9183 14.7038 53.9183 14.2429C53.8391 13.9124 53.5663 13.8255 53.2935 13.7298C49.4566 13.0341 44.8805 12.7993 41.862 15.4517C41.2724 16.1039 41.2724 17.1474 41.5452 17.9127C41.6596 18.2779 42.2492 18.5823 42.7156 18.6866C45.0653 18.9127 47.5293 18.9127 49.6854 19.4606C50.4686 19.7476 51.6391 19.9737 51.7183 20.9998C51.7183 21.2868 51.3311 21.5738 51.0494 21.6694C48.5062 22.3738 45.6461 23.1739 43.1028 22.0521C42.7508 21.8781 42.9444 21.3477 43.2612 21.1477C45.3381 20.1476 47.0189 22.8782 49.2542 21.5999C49.6062 21.3738 50.3102 21.4085 50.1518 20.765C48.1542 19.5737 45.2589 19.0606 42.9092 19.9911C42.3636 20.2954 41.9676 20.939 41.9676 21.7477C42.0468 22.7738 42.9444 23.6087 43.886 24.1218C46.3149 25.5045 49.9934 25.5653 52.3783 24.0522C53.3551 23.3826 53.7511 22.1825 53.6719 21.1998C53.5927 19.9476 53.1263 18.4431 51.7975 18.1214C49.4126 17.504 46.7901 17.417 44.2469 17.0257C44.0532 16.93 43.622 16.8604 43.7012 16.5126C46.6405 15.5821 50.1254 15.8604 53.2143 15.356ZM61.0465 11.5905C60.5009 11.9123 60.7737 12.7471 60.8089 13.3037C61.3545 15.2603 61.9441 17.1909 62.2169 19.2867C62.2169 19.8171 62.5338 20.6955 61.9001 20.9911C61.0817 20.0954 60.5273 18.9649 59.8673 17.9736C58.9257 16.6604 58.1072 14.8429 56.5408 14.2429C55.4848 15.0777 55.2912 16.4343 54.8951 17.5909C54.6575 19.8693 53.8743 22.2434 54.6575 24.5218C54.8159 25.0957 55.4056 25.3827 55.9512 25.2958C57.4736 23.5652 56.576 20.6781 57.0512 18.4692C57.1656 18.3649 57.1656 18.1127 57.368 18.2083C58.6969 20.3911 59.6033 22.8347 61.7505 24.5305C62.2962 24.9653 63.2378 24.4348 63.7834 23.8609C65.6578 21.452 64.8042 17.5127 63.7834 14.9995C63.1234 13.7211 62.4986 12.2341 61.0465 11.5905ZM46.3677 6.8946C46.6845 6.14673 46.5261 5.17275 45.9013 4.57272C45.4349 4.19878 44.8805 3.96398 44.2557 3.96398C41.7916 1.45078 37.2771 3.36394 35.7018 5.12927C34.7602 6.24239 33.9242 7.64247 34.6018 9.12952C34.725 9.36432 34.989 9.36432 35.0946 9.54694C35.5874 10.2861 34.8482 11.3123 35.7018 11.9645C36.3002 12.3819 36.7051 11.4514 37.1979 11.1209C38.1923 11.5384 39.6003 11.5384 40.6916 11.2601C42.5308 10.747 45.2325 9.21648 46.3677 6.8946ZM36.0978 8.10337C35.7722 7.50333 36.1154 6.8946 36.6522 6.24238C37.1803 5.64235 38.1923 5.26841 39.0547 5.12927C39.2483 5.22493 39.0547 5.31189 39.0547 5.40755C37.7787 6.14673 37.2331 7.25984 36.0978 8.10337ZM44.3349 7.49464C42.7684 8.92951 40.7356 9.53824 38.5795 9.35562C38.1483 9.03386 38.7379 8.74689 38.8171 8.51209C40.4188 6.8859 42.1084 5.21623 44.3349 5.39885C44.5725 5.53799 44.8013 5.72061 44.8805 5.95541C45.1181 6.56414 44.8013 7.07722 44.3349 7.49464ZM73.8861 22.139C72.6716 21.8868 71.3428 22.2347 70.1636 22.426C69.4947 22.5304 68.9139 22.8782 68.3595 22.5304C68.6763 21.7303 68.5531 20.7389 69.3803 20.2172C69.97 19.9041 72.038 20.2172 73.3316 20.0606C73.7981 20.0346 73.9565 18.9649 73.8421 18.6779C73.138 17.7214 71.5716 18.2605 70.5508 18.191C70.3572 18.2084 70.1988 18.0692 70.0844 17.9736C69.8908 17.3996 70.278 16.7561 70.674 16.3648C72.3988 16.1908 74.3525 16.4604 75.8045 15.8169C76.1565 15.6343 75.9981 15.2603 75.8045 14.9821C75.5317 14.5212 74.9861 13.7211 74.5901 13.6776C72.6716 13.4428 70.5156 13.6776 68.5619 14.0516C67.7787 14.1907 66.8371 14.0516 66.0979 14.4255C65.9394 15.7734 67.5059 15.7734 68.0955 16.4343C67.5499 17.0431 67.7787 18.3562 66.6875 18.3562C66.3355 18.4605 66.0979 18.8345 66.1771 19.2867C66.8019 20.3128 65.7458 21.2433 65.5522 22.2086C65.2002 23.5565 65.6666 25.1392 66.6875 25.6088C69.5035 26.7741 72.17 25.1218 74.2029 23.5217C74.4317 23.0086 74.1237 22.5564 73.8861 22.139Z" fill="#797979" fill-opacity="0.7"/>
</svg>
