<svg width="32" height="32" viewBox="0 0 32 32" fill="none" xmlns="http://www.w3.org/2000/svg">
<path d="M16 0C7.164 0 0 7.164 0 16C0 24.836 7.164 32 16 32C24.836 32 32 24.836 32 16C32 7.162 24.836 0 16 0ZM26 25.278C26 25.676 25.676 26 25.278 26H6.722C6.324 26 6 25.676 6 25.278V6.722C6 6.324 6.324 6 6.722 6H25.278C25.676 6 26 6.324 26 6.722V25.278ZM12 16C12 17.0609 12.4214 18.0783 13.1716 18.8284C13.9217 19.5786 14.9391 20 16 20C17.0609 20 18.0783 19.5786 18.8284 18.8284C19.5786 18.0783 20 17.0609 20 16C20 14.9391 19.5786 13.9217 18.8284 13.1716C18.0783 12.4214 17.0609 12 16 12C14.9391 12 13.9217 12.4214 13.1716 13.1716C12.4214 13.9217 12 14.9391 12 16ZM20 8H24V12H20V8ZM21.95 16C21.95 19.282 19.28 21.95 16 21.95C12.72 21.95 10.05 19.282 10.05 16C10.05 15.574 10.1 15.402 10.184 15H8V24H24V15H21.816C21.902 15.402 21.95 15.574 21.95 16Z" fill="#E25447" fill-opacity="0.5"/>
</svg>
