<svg width="108" height="29" viewBox="0 0 108 29" fill="none" xmlns="http://www.w3.org/2000/svg">
<path d="M80.9892 15.9516L80.9244 15.8355L85.5486 8.1711L85.6999 7.91773L85.7539 7.83327H82.8584L82.6855 8.10776L79.8872 12.6473L78.569 14.7692C78.5042 14.8853 78.4394 14.9909 78.3854 15.0859L78.3637 15.1176C78.3421 15.1493 78.3205 15.1809 78.3097 15.2126C78.2989 15.2337 78.2989 15.2443 78.2881 15.2548L78.2557 15.3182C78.2449 15.3287 78.2449 15.3287 78.2449 15.3393C78.2341 15.3604 78.2341 15.371 78.2233 15.3815L78.1909 15.4448L78.1693 15.4871C78.1585 15.5082 78.1477 15.5293 78.1477 15.5504C78.1369 15.561 78.1369 15.5821 78.1369 15.5926C78.1261 15.6138 78.1261 15.6349 78.1261 15.6454C78.1261 15.656 78.1152 15.6665 78.1152 15.6877C78.1044 15.7088 78.1044 15.7299 78.1044 15.7404V15.8566C78.1152 15.8777 78.1152 15.8988 78.1152 15.9199C78.1152 15.9305 78.1152 15.941 78.1261 15.941C78.1369 15.9727 78.1369 15.9938 78.1477 16.0149C78.1477 16.0255 78.1477 16.0255 78.1585 16.0255C78.2017 16.1522 78.2665 16.2894 78.3637 16.4478L78.3854 16.4794C78.4178 16.5217 78.4394 16.5744 78.4718 16.6272L83.3229 24.9039H86.1321L81.0864 16.1416L80.9892 15.9516ZM75.2629 0.686203V24.925H77.8235V0.538406H75.2629V0.686203ZM107.546 7.98107C107.363 7.90717 107.19 7.84383 106.995 7.78049C106.941 7.75937 106.887 7.74882 106.833 7.73826H106.822L106.682 7.70659C106.671 7.70659 106.671 7.70659 106.66 7.69603L106.531 7.66436H106.52C106.228 7.61158 105.904 7.56935 105.526 7.55879H105.396C105.299 7.55879 105.212 7.56935 105.126 7.56935L105.05 7.57991C104.986 7.59046 104.921 7.59046 104.867 7.60102L104.77 7.61158L104.607 7.63269L104.51 7.6538L104.348 7.68548C104.327 7.69603 104.305 7.69603 104.283 7.69603L104.251 7.70659L104.067 7.74882L104.002 7.76993C103.927 7.79104 103.851 7.81216 103.765 7.83327C103.754 7.83327 103.754 7.83327 103.754 7.84383C103.743 7.84383 103.732 7.85439 103.732 7.85439C103.624 7.88606 103.516 7.92828 103.408 7.97051C103.397 7.98107 103.387 7.98107 103.376 7.98107L103.062 8.11831L103.03 8.13943L102.998 8.16054C102.933 8.20277 102.857 8.23444 102.782 8.27667H102.771L102.738 8.29778C102.673 8.34001 102.609 8.37168 102.533 8.42446C102.511 8.43502 102.501 8.44558 102.49 8.45613C102.479 8.46669 102.468 8.46669 102.468 8.47725C102.414 8.50892 102.371 8.54059 102.328 8.58282C102.317 8.59338 102.306 8.60393 102.295 8.60393C102.285 8.61449 102.274 8.62505 102.263 8.62505L102.079 8.76229C102.068 8.77284 102.058 8.7834 102.047 8.7834L101.874 8.9312L101.809 8.99454C101.766 9.03677 101.733 9.06844 101.679 9.11067L101.647 9.14234L101.615 9.17401C101.593 9.19512 101.582 9.21624 101.561 9.2268C101.528 9.26902 101.496 9.30069 101.453 9.34292L101.42 9.37459C101.377 9.42738 101.323 9.49072 101.28 9.55406L101.226 9.6174C101.193 9.64907 101.172 9.68074 101.15 9.72297C101.139 9.73353 101.128 9.74409 101.128 9.75464C101.118 9.7652 101.107 9.77576 101.107 9.78631C101.107 9.79687 101.085 9.80743 101.085 9.81798L100.956 10.008L100.934 10.0397L100.869 10.1664L100.826 10.2403C100.815 10.2508 100.815 10.2508 100.815 10.2614C100.804 10.2825 100.794 10.3036 100.783 10.3142C100.75 10.3669 100.729 10.4197 100.707 10.462C100.696 10.4831 100.685 10.4936 100.685 10.5042C100.675 10.5147 100.675 10.5253 100.675 10.5359L100.621 10.652C100.599 10.6837 100.588 10.7153 100.577 10.747C100.577 10.7576 100.577 10.7576 100.567 10.7576C100.567 10.7681 100.556 10.7681 100.556 10.7681C100.545 10.7892 100.534 10.8103 100.534 10.8315C100.513 10.8842 100.491 10.937 100.469 10.9792C100.459 11.0109 100.448 11.032 100.437 11.0531C100.415 11.1059 100.394 11.1693 100.383 11.2221C100.372 11.2326 100.372 11.2537 100.372 11.2643C100.372 11.2748 100.361 11.2854 100.361 11.296L100.297 11.5282V11.5388C100.264 11.6655 100.243 11.7921 100.221 11.9083C100.221 11.9188 100.221 11.9188 100.21 11.9188C100.199 11.9716 100.188 12.0138 100.188 12.0666C100.178 12.0983 100.178 12.1194 100.178 12.1405C100.178 12.1511 100.178 12.1616 100.167 12.1827C100.156 12.2672 100.145 12.3517 100.145 12.4361V12.4678C100.134 12.5417 100.134 12.6156 100.134 12.7V24.9672H102.695V12.7423C102.695 12.0455 103.019 11.3065 103.538 10.7892C103.581 10.747 103.624 10.6942 103.667 10.6625C103.711 10.6203 103.743 10.5886 103.797 10.557C104.1 10.3247 104.435 10.1558 104.813 10.0925L104.953 10.0714C105.007 10.0608 105.072 10.0608 105.126 10.0608L107.903 10.1241C107.924 9.72297 107.946 9.27958 107.968 8.79396C107.968 8.76229 107.978 8.73062 107.978 8.68839V8.65672C107.989 8.58282 107.989 8.50892 107.989 8.43502V8.39279C108 8.31889 108 8.245 108 8.1711C107.86 8.11831 107.708 8.04441 107.546 7.98107ZM97.1201 12.2461L97.0984 12.0349V12.0244L97.0876 11.9927L97.066 11.8766C97.0552 11.8555 97.0552 11.8238 97.0552 11.8027C97.0444 11.7816 97.0444 11.7605 97.0444 11.7394C97.0336 11.6866 97.0228 11.6338 97.012 11.5704L96.9904 11.4965L96.958 11.3699L96.9472 11.3487L96.9256 11.2748C96.9148 11.2432 96.904 11.2115 96.904 11.1798L96.8824 11.1165C96.8716 11.0954 96.8716 11.0743 96.8607 11.0637C96.8499 11.0532 96.8499 11.0426 96.8499 11.032L96.7851 10.842C96.7743 10.8209 96.7743 10.8103 96.7635 10.7998C96.7419 10.747 96.7203 10.6942 96.6987 10.6309L96.6663 10.557L96.6231 10.4725C96.6123 10.462 96.6123 10.4514 96.6123 10.4408C96.569 10.3458 96.5258 10.2614 96.4718 10.1664C96.461 10.1558 96.4502 10.1347 96.4502 10.1241C96.407 10.0502 96.353 9.97634 96.3097 9.89188C96.2881 9.87077 96.2773 9.8391 96.2665 9.81798C96.2233 9.75464 96.1693 9.6913 96.1261 9.6174C96.1152 9.59629 96.1044 9.58573 96.0936 9.57517L96.0828 9.56462L95.8884 9.33236L95.8343 9.26902C95.7803 9.20568 95.7155 9.13178 95.6507 9.06844L95.6399 9.05788L95.6183 9.03677C95.5534 8.97343 95.4886 8.91008 95.413 8.84674L95.3914 8.82563C95.3698 8.80451 95.359 8.79396 95.3373 8.7834C95.3265 8.7834 95.3265 8.77284 95.3265 8.77284C95.2617 8.72006 95.1969 8.65672 95.1213 8.60393C95.0996 8.59337 95.0888 8.58282 95.078 8.57226C95.0024 8.50892 94.9052 8.45613 94.8187 8.39279L94.7647 8.36112L94.7539 8.35056C94.6783 8.30834 94.6026 8.25555 94.527 8.22388C94.5162 8.21333 94.5054 8.20277 94.4838 8.20277C94.473 8.19221 94.473 8.19221 94.4622 8.19221C94.365 8.13943 94.2785 8.0972 94.1813 8.05497C94.1705 8.04441 94.1597 8.04441 94.1597 8.04441L94.1273 8.0233C94.0732 7.99163 94.0084 7.97051 93.9436 7.9494C93.922 7.93884 93.9112 7.92829 93.8896 7.92829L93.8247 7.89662C93.7275 7.85439 93.6303 7.82272 93.5222 7.79105L93.4682 7.76993C93.3818 7.74882 93.2953 7.71715 93.2089 7.70659L93.1333 7.68548C93.0252 7.66436 92.928 7.64325 92.8199 7.63269L92.7875 7.62213L92.4958 7.59046L92.4094 7.57991H92.3878C92.2905 7.56935 92.1933 7.56935 92.096 7.56935H92.0744C92.0096 7.56935 91.9448 7.56935 91.8691 7.57991L91.7287 7.59046C91.6747 7.60102 91.6207 7.60102 91.5666 7.60102C91.5342 7.61158 91.5126 7.61158 91.4694 7.61158L91.3614 7.63269C91.3397 7.63269 91.3289 7.64325 91.3181 7.64325L91.2209 7.66436C91.1885 7.67492 91.1561 7.67492 91.1128 7.68548L91.0696 7.69603C91.0372 7.70659 91.0048 7.71715 90.9616 7.71715C90.9184 7.7277 90.8643 7.73826 90.8319 7.74882C90.7995 7.75938 90.7671 7.76993 90.7239 7.78049L90.5942 7.81216C90.5618 7.82272 90.5294 7.83327 90.4862 7.84383H90.4754C90.4646 7.85439 90.4538 7.85439 90.443 7.85439L90.3565 7.88606C90.3241 7.89662 90.2917 7.91773 90.2485 7.92829C90.2053 7.9494 90.1729 7.95996 90.1297 7.97051C90.0972 7.99163 90.0648 8.00219 90.0216 8.01274C89.9892 8.0233 89.9676 8.03386 89.9352 8.05497L89.9028 8.07608C89.8704 8.0972 89.8379 8.10776 89.8055 8.11831C89.7623 8.13943 89.7299 8.16054 89.6867 8.1711L89.5894 8.22388C89.5462 8.245 89.5138 8.26611 89.4814 8.28722C89.449 8.30834 89.4166 8.32945 89.3842 8.34001C89.3517 8.36112 89.3193 8.38224 89.2761 8.40335C89.2437 8.42446 89.2221 8.44558 89.1789 8.46669L89.1681 8.47725L89.0708 8.54059L88.9844 8.60393C88.952 8.6356 88.9196 8.65672 88.8764 8.67783C88.8439 8.69895 88.8223 8.72006 88.8007 8.74117L88.7035 8.82563C88.6711 8.84674 88.6495 8.86786 88.6279 8.88897C88.5954 8.92064 88.563 8.94175 88.5306 8.98398C88.509 9.0051 88.4766 9.02621 88.455 9.05788C88.4442 9.06844 88.4442 9.07899 88.4334 9.07899C88.4118 9.10011 88.3794 9.13178 88.3686 9.15289L88.3037 9.2268L88.2173 9.32181L88.1525 9.3957L88.12 9.43793C88.0984 9.45905 88.0876 9.48016 88.0768 9.50127L88.066 9.51183C88.0444 9.5435 88.0228 9.56462 88.012 9.58573C88.0012 9.59629 87.9904 9.60684 87.9904 9.6174L87.9364 9.6913C87.9364 9.6913 87.9364 9.70186 87.9256 9.70186C87.904 9.72297 87.8824 9.75464 87.8716 9.77575C87.8607 9.79687 87.8499 9.80743 87.8391 9.81798L87.7959 9.88132C87.7959 9.89188 87.7851 9.89188 87.7851 9.89188C87.7635 9.92355 87.7527 9.94467 87.7419 9.96578C87.7203 9.9869 87.7095 10.0186 87.6987 10.0397C87.6879 10.0608 87.6771 10.0714 87.6771 10.0819C87.6771 10.0925 87.6663 10.0925 87.6663 10.0925C87.6447 10.1136 87.6339 10.1453 87.6231 10.1664C87.6123 10.1875 87.6014 10.2086 87.5906 10.2191L87.5582 10.2825C87.5474 10.293 87.5474 10.293 87.5474 10.3036C87.5366 10.3247 87.5258 10.3564 87.5042 10.3775L87.4502 10.4936C87.4502 10.5042 87.4394 10.5042 87.4394 10.5042V10.5147C87.4286 10.5253 87.4286 10.5253 87.4286 10.5359L87.3962 10.5992V10.6098L87.3421 10.747L87.3097 10.8315L87.2557 10.9792C87.2449 11.0109 87.2341 11.032 87.2233 11.0531C87.1909 11.1376 87.1693 11.2221 87.1477 11.3171V11.3276C87.1261 11.391 87.1152 11.4543 87.1044 11.5177L87.0828 11.6127V11.6232C87.072 11.6655 87.0612 11.7182 87.0612 11.7605L87.0396 11.866V11.8766L87.018 12.0033C87.018 12.0033 87.0072 12.0772 87.0072 12.1194C86.9964 12.1511 86.9964 12.1933 86.9964 12.225V12.2461C86.9856 12.3411 86.9856 12.4256 86.9856 12.5206V20.2694C86.9856 20.375 86.9964 20.47 86.9964 20.565C86.9964 20.5966 87.0072 20.6178 87.0072 20.6389C87.018 20.7233 87.0288 20.8078 87.0288 20.8922C87.0288 20.9134 87.0396 20.9239 87.0396 20.9345L87.0828 21.2195C87.0936 21.2512 87.0936 21.2723 87.1044 21.2934L87.1585 21.5257L87.1801 21.589C87.2017 21.684 87.2341 21.779 87.2665 21.874C87.2773 21.8952 87.2881 21.9163 87.2881 21.9374L87.3637 22.1591L87.3962 22.233C87.4286 22.328 87.4718 22.4125 87.515 22.4969C87.5258 22.518 87.5258 22.5286 87.5366 22.5391C87.569 22.613 87.6123 22.6869 87.6555 22.7608L87.6771 22.7925C87.6879 22.8136 87.6987 22.8242 87.6987 22.8347C87.7311 22.8875 87.7635 22.9509 87.8067 23.0142C87.8175 23.0353 87.8283 23.0564 87.8391 23.067C87.8824 23.1409 87.9364 23.2148 87.9904 23.2887L88.0228 23.3415L88.1417 23.5104L88.1957 23.5737C88.2389 23.6265 88.2713 23.6687 88.3145 23.711L88.3686 23.7743C88.4226 23.8271 88.4766 23.8904 88.5414 23.9538C88.5522 23.9643 88.5522 23.9643 88.5522 23.9749L88.7467 24.1543C88.7683 24.1755 88.7791 24.186 88.8007 24.1966C88.8548 24.2388 88.9088 24.281 88.952 24.3233C88.9736 24.3444 88.9952 24.3549 89.0168 24.3655L89.1897 24.4816L89.2437 24.5133C89.3193 24.5661 89.395 24.6083 89.4706 24.6505C89.4814 24.6505 89.4814 24.6611 89.4814 24.6611L89.7083 24.7772C89.7299 24.7878 89.7515 24.7983 89.7623 24.8089L89.9568 24.8933C89.9784 24.9039 90 24.9144 90.0216 24.9144L90.2593 24.9989L90.2809 25.0095C90.3782 25.0411 90.4646 25.0623 90.5618 25.0834C90.5726 25.0939 90.5834 25.0939 90.605 25.0939C90.6807 25.115 90.7671 25.1256 90.8427 25.1362C90.8643 25.1467 90.886 25.1467 90.9076 25.1467C90.9832 25.1573 91.0588 25.1678 91.1453 25.1678C91.1669 25.1678 91.1885 25.1784 91.1993 25.1784C91.2965 25.1889 91.3938 25.1889 91.5018 25.1889C91.7611 25.1889 92.0204 25.1678 92.3013 25.1256L95.3698 24.6611L95.3481 24.4711C95.3373 24.4288 95.3373 24.3972 95.3373 24.3549C95.3373 24.3233 95.3265 24.3021 95.3265 24.281C95.3157 24.2388 95.3157 24.1966 95.3157 24.1543L95.3049 24.091C95.2941 24.0488 95.2941 23.996 95.2941 23.9538C95.2941 23.9327 95.2941 23.9115 95.2833 23.8904C95.2725 23.8376 95.2725 23.7849 95.2725 23.7426C95.2725 23.7215 95.2725 23.711 95.2617 23.7004C95.2509 23.5209 95.2401 23.3309 95.2293 23.1198V23.067C95.2185 22.9931 95.2185 22.9086 95.2185 22.8242C95.2185 22.8031 95.2185 22.7819 95.2077 22.7608V22.7397H92.1609L91.934 22.7292C91.9232 22.7292 91.9016 22.7292 91.8908 22.7186L91.6639 22.6869C91.599 22.6658 91.5234 22.6553 91.4478 22.6341H91.437C91.4262 22.6236 91.4154 22.6236 91.4046 22.6236C91.3397 22.6025 91.2641 22.5814 91.1993 22.5497C91.1885 22.5497 91.1885 22.5391 91.1885 22.5391C91.1237 22.5075 91.0588 22.4863 91.0048 22.4547L90.9724 22.4336C90.9076 22.4019 90.8427 22.3597 90.7887 22.3174C90.7779 22.3069 90.7779 22.3069 90.7671 22.3069C90.7131 22.2647 90.6591 22.233 90.6159 22.1908C90.605 22.1802 90.5942 22.1696 90.5834 22.1696C90.5294 22.1274 90.4754 22.0746 90.4322 22.0324C90.4214 22.0218 90.4214 22.0113 90.4106 22.0113L90.2809 21.874L90.2593 21.8529C90.2161 21.8001 90.1729 21.7474 90.1297 21.684C90.1189 21.6735 90.108 21.6629 90.108 21.6524C90.0864 21.6312 90.0756 21.6101 90.0648 21.589C90.0432 21.5573 90.0324 21.5362 90.0216 21.5046C90.0108 21.494 90 21.4729 90 21.4623L89.9028 21.2723L89.8812 21.2301C89.8596 21.1773 89.8379 21.1245 89.8163 21.0612L89.7947 21.0084C89.7731 20.945 89.7515 20.8711 89.7407 20.7972L89.7299 20.7656L89.6975 20.5755C89.6867 20.5544 89.6867 20.5333 89.6867 20.5228C89.6759 20.4489 89.6759 20.375 89.6759 20.3011V17.6513H95.8451C96.2017 17.6513 96.515 17.5246 96.7527 17.2923C96.9796 17.0706 97.1309 16.7645 97.1309 16.395V12.5628C97.1201 12.4572 97.1092 12.3728 97.1092 12.2883C97.1201 12.2672 97.1201 12.2566 97.1201 12.2461ZM94.6026 12.5311V15.1598H89.6759V12.5311C89.6759 11.4438 90.389 10.5147 91.4046 10.2086C91.6315 10.1347 91.88 10.103 92.1501 10.103L92.377 10.1136L92.4418 10.1241C92.4958 10.1347 92.5498 10.1452 92.6038 10.1452C92.6255 10.1558 92.6471 10.1558 92.6687 10.1558L92.8632 10.2086L92.8848 10.2191C92.9496 10.2403 93.0252 10.2614 93.09 10.293C93.1116 10.3036 93.1333 10.3142 93.1441 10.3142L93.2845 10.3775C93.3061 10.3881 93.3277 10.3986 93.3385 10.4092C93.3926 10.4408 93.4466 10.4725 93.4898 10.5042L93.5222 10.5253L93.6951 10.652C93.7167 10.6625 93.7275 10.6731 93.7383 10.6942C93.7815 10.7259 93.8139 10.7576 93.8571 10.7998C93.8788 10.8209 93.8896 10.8315 93.9004 10.8526C93.9436 10.8948 93.976 10.9265 94.0192 10.9792L94.0516 11.0109C94.0948 11.0637 94.1381 11.1165 94.1813 11.1798L94.2137 11.2326C94.2461 11.2748 94.2677 11.3276 94.2893 11.3699L94.3217 11.4332L94.3866 11.5704C94.3974 11.5916 94.4082 11.6021 94.4082 11.6232C94.4082 11.6338 94.419 11.6338 94.419 11.6338C94.419 11.6443 94.419 11.6443 94.4298 11.6443C94.4406 11.676 94.4514 11.6971 94.4622 11.7394C94.473 11.771 94.4946 11.8027 94.5054 11.8449L94.5378 11.9716C94.5486 12.0033 94.5594 12.0349 94.5702 12.0772C94.581 12.13 94.5918 12.1827 94.5918 12.2355C94.6026 12.2672 94.6026 12.2883 94.6026 12.3094V12.5311ZM72.389 12.2778C72.3782 12.2355 72.3782 12.1933 72.3782 12.1511C72.3674 12.1088 72.3673 12.0772 72.3673 12.0244C72.3565 11.9822 72.3565 11.9505 72.3565 11.9083V11.8871L72.3349 11.7816L72.3133 11.6655C72.3025 11.6232 72.2917 11.581 72.2917 11.5388C72.2809 11.4965 72.2701 11.4649 72.2701 11.4226C72.2701 11.3804 72.2485 11.3487 72.2377 11.3065L72.2053 11.1904V11.1798L72.1729 11.0637C72.1621 11.0215 72.1513 10.9898 72.1405 10.9581C72.1297 10.9265 72.1189 10.8948 72.108 10.8526L72.0972 10.842L72.054 10.7364C72.0432 10.7048 72.0216 10.6731 72.0108 10.6309C72.0108 10.6203 72 10.6203 72 10.6203C71.9784 10.5781 71.9676 10.5464 71.9568 10.5147L71.9244 10.4514C71.9136 10.4408 71.9136 10.4303 71.9136 10.4197C71.8703 10.3247 71.8271 10.2403 71.7839 10.1558C71.7731 10.1453 71.7731 10.1452 71.7731 10.1347C71.7191 10.0397 71.6651 9.95522 71.611 9.87077C71.6002 9.84965 71.5894 9.8391 71.5786 9.82854C71.5678 9.81798 71.5678 9.81799 71.5678 9.80743L71.4058 9.58573L71.3842 9.55406C71.3193 9.4696 71.2545 9.38515 71.1897 9.31125C71.1681 9.29014 71.1573 9.27958 71.1465 9.25846L70.9628 9.05788L70.9412 9.03677L70.9196 9.01566C70.8439 8.94176 70.7683 8.86786 70.6927 8.80452C70.6711 8.7834 70.6603 8.77284 70.6387 8.76229L70.4334 8.59338C70.4226 8.58282 70.4118 8.57226 70.3902 8.5617L70.3794 8.55115C70.2929 8.4878 70.2065 8.42446 70.12 8.37168C70.0984 8.36112 70.0876 8.35056 70.0768 8.34001C70.0012 8.28722 69.9256 8.245 69.8391 8.20277C69.8175 8.19221 69.7959 8.18165 69.7851 8.1711C69.6879 8.11831 69.5906 8.07608 69.5042 8.03386L69.4718 8.01274C69.461 8.01274 69.461 8.00219 69.461 8.00219C69.3962 7.97051 69.3313 7.9494 69.2665 7.92829L69.2017 7.89662L69.1369 7.86494C69.0396 7.82272 68.9316 7.79104 68.8343 7.75937H68.8235C68.8127 7.74882 68.8019 7.74882 68.7911 7.74882C68.6939 7.71715 68.6074 7.69603 68.5102 7.67492C68.4778 7.66436 68.4562 7.66436 68.4346 7.6538C68.3373 7.63269 68.2293 7.61158 68.1321 7.60102C68.1212 7.60102 68.1213 7.60102 68.1105 7.59046C68.0996 7.59046 68.0888 7.59046 68.078 7.57991C68.0564 7.56935 68.0348 7.56935 68.0132 7.56935L67.7863 7.53768L67.6999 7.52712C67.5918 7.51656 67.4838 7.51656 67.365 7.51656C67.3217 7.51656 67.2677 7.51656 67.2353 7.52712H67.1056L66.976 7.53768H66.9868L66.868 7.54823L66.7491 7.56935H66.7383L66.6194 7.59046C66.5978 7.60102 66.5654 7.60102 66.5438 7.60102C66.5222 7.61158 66.5114 7.61158 66.4898 7.61158C66.479 7.61158 66.479 7.61158 66.4682 7.62213L66.3709 7.64325L66.2413 7.67492H66.2305C66.1981 7.68548 66.1657 7.69603 66.1333 7.69603C66.1008 7.70659 66.0684 7.71715 66.0252 7.7277L65.9928 7.73826L65.8956 7.76993L65.874 7.78049L65.7875 7.81216C65.7659 7.82272 65.7551 7.82272 65.7443 7.83327C65.7119 7.84383 65.6903 7.85439 65.6687 7.86494C65.6579 7.8755 65.6471 7.8755 65.6363 7.8755C65.6038 7.88606 65.5822 7.89662 65.539 7.90717C65.5174 7.91773 65.5066 7.91773 65.4958 7.92829C65.4742 7.93884 65.4526 7.9494 65.431 7.9494H65.4202C65.377 7.97051 65.3337 7.99163 65.2905 8.00219C65.2689 8.01274 65.2581 8.01274 65.2473 8.0233L65.2041 8.04441C65.1501 8.06553 65.096 8.0972 65.0528 8.11831L65.0204 8.13943L64.988 8.16054L64.8692 8.22388C64.8584 8.22388 64.8583 8.22388 64.8583 8.23444C64.8259 8.25555 64.8043 8.26611 64.7827 8.27667H64.7611L64.5882 8.38224L64.491 8.44558L64.3722 8.53003L64.3073 8.58282L64.1885 8.67783L64.1129 8.74117C64.0804 8.77284 64.048 8.80451 64.0048 8.83619C63.9832 8.8573 63.9616 8.86786 63.9508 8.88897L63.8319 8.99454L63.7887 9.03677L63.6699 9.16345L63.497 9.36403C63.4754 9.38515 63.4538 9.41682 63.443 9.43793C63.3998 9.48016 63.3674 9.53295 63.3349 9.57517C63.3241 9.58573 63.3241 9.59629 63.3133 9.59629C63.2917 9.6174 63.2809 9.63851 63.2701 9.65963L63.1729 9.80743C63.1621 9.82854 63.1513 9.8391 63.1405 9.84966L63.108 9.89188L63.0216 10.0397C63.0108 10.0608 63 10.0714 63 10.0819C62.9892 10.103 62.9784 10.1136 62.9784 10.1241C62.9352 10.198 62.892 10.293 62.8595 10.3669L62.8487 10.3775L62.8163 10.4408C62.7839 10.5042 62.7623 10.5675 62.7407 10.6309C62.7299 10.6625 62.7191 10.6837 62.7083 10.7048V10.7153L62.6435 10.9054C62.6327 10.9265 62.6218 10.9581 62.6218 10.9792C62.5894 11.0637 62.5678 11.1482 62.5462 11.2326L62.5354 11.2537C62.4382 11.6338 62.3842 12.0244 62.3842 12.4361V20.2905L62.395 20.5439C62.395 20.5755 62.4058 20.6072 62.4058 20.6494L62.4274 20.8395C62.4382 20.8711 62.4382 20.9134 62.4382 20.945L62.4706 21.1351C62.4814 21.1667 62.4814 21.1878 62.4922 21.2301L62.557 21.5046C62.5678 21.5257 62.5678 21.5362 62.5678 21.5573L62.6327 21.779L62.6651 21.8635L62.7299 22.0535L62.7623 22.138C62.7947 22.2013 62.8163 22.2752 62.8595 22.3386C62.8703 22.3597 62.8812 22.3702 62.8812 22.3913C62.9244 22.4758 62.9568 22.5602 63.0108 22.6447L63.0216 22.6658C63.0324 22.6764 63.0324 22.6869 63.0324 22.6869L63.1621 22.8981L63.2053 22.9614C63.2485 23.0248 63.3025 23.0881 63.3457 23.162C63.3565 23.1831 63.3673 23.1937 63.3782 23.2042C63.4322 23.2781 63.497 23.352 63.5618 23.4259C63.5834 23.447 63.5942 23.4681 63.6158 23.4787C63.6591 23.5315 63.7131 23.5843 63.7671 23.6476L63.8319 23.711C63.886 23.7743 63.9508 23.8271 64.0156 23.8904L64.0372 23.9115C64.102 23.9749 64.1777 24.0382 64.2533 24.091L64.3181 24.1438L64.491 24.2705C64.5126 24.2916 64.545 24.3021 64.5558 24.3233C64.6315 24.376 64.7179 24.4288 64.7935 24.4711C64.8043 24.4816 64.8259 24.4922 64.8367 24.4922C64.9016 24.5344 64.9772 24.5661 65.0528 24.6083C65.0852 24.6294 65.1068 24.64 65.1285 24.6505C65.1933 24.6822 65.2581 24.7139 65.3337 24.7455L65.3986 24.7772C65.485 24.8194 65.5822 24.8511 65.6687 24.8828C65.6903 24.8933 65.7119 24.9039 65.7335 24.9039L65.9604 24.9778C65.9928 24.9884 66.0144 24.9989 66.0468 24.9989C66.1225 25.02 66.2089 25.0411 66.2845 25.0517C66.3061 25.0622 66.3169 25.0623 66.3385 25.0623C66.4358 25.0834 66.533 25.1045 66.6411 25.115C66.6735 25.1256 66.6951 25.1256 66.7167 25.1256C66.7923 25.1361 66.868 25.1467 66.9544 25.1467C66.9868 25.1467 67.0084 25.1573 67.0516 25.1573C67.1597 25.1678 67.2569 25.1678 67.365 25.1678C67.4406 25.1678 67.527 25.1678 67.6026 25.1573C67.6351 25.1573 67.6567 25.1467 67.6783 25.1467C67.7323 25.1361 67.7863 25.1362 67.8403 25.1362C67.8728 25.1256 67.9052 25.1256 67.9376 25.1256L68.078 25.1045L68.1753 25.0834C68.2185 25.0728 68.2725 25.0623 68.3049 25.0623C68.3373 25.0517 68.3698 25.0411 68.4022 25.0411L68.5318 25.0095L68.6291 24.9778L68.7587 24.9461L68.8559 24.9144C68.8992 24.9039 68.9316 24.8828 68.9856 24.8722L69.0828 24.8405C69.1261 24.8194 69.1585 24.8089 69.2017 24.7983L69.2989 24.7561L69.4178 24.7033L69.515 24.6611C69.5582 24.64 69.5906 24.6189 69.6339 24.6083C69.6663 24.5872 69.6879 24.5766 69.7203 24.5661L69.8391 24.5027L69.9256 24.4499C69.9688 24.4288 70.0012 24.4077 70.0336 24.3866C70.066 24.3655 70.0876 24.3444 70.12 24.3338C70.1525 24.3127 70.1849 24.2916 70.2281 24.2599C70.2605 24.2388 70.2821 24.2177 70.3037 24.2071C70.3361 24.186 70.3686 24.1544 70.4118 24.1332C70.4442 24.1121 70.4658 24.091 70.4874 24.0805C70.5198 24.0488 70.5522 24.0277 70.5954 23.996L70.6603 23.9327C70.6927 23.901 70.7251 23.8799 70.7575 23.8376L70.8223 23.7743L70.9196 23.6793L70.9844 23.6159C71.0168 23.5843 71.0492 23.5526 71.0816 23.5104C71.1032 23.4893 71.1249 23.4681 71.1357 23.447C71.1681 23.4048 71.2005 23.3731 71.2329 23.3415L71.2869 23.2781C71.3193 23.2359 71.3517 23.2042 71.3842 23.1514C71.395 23.1303 71.4166 23.1092 71.4274 23.0986L71.5246 22.9614C71.5354 22.9403 71.5462 22.9297 71.557 22.9192L71.6759 22.7292C71.7515 22.6025 71.8271 22.4652 71.892 22.3174L71.9136 22.2858C71.946 22.233 71.9676 22.1696 71.9892 22.1063C72 22.0852 72.0108 22.0641 72.0108 22.0535C72.0324 22.0007 72.054 21.9479 72.0648 21.9057C72.0756 21.8846 72.0864 21.8529 72.0864 21.8318L72.1405 21.684C72.1513 21.6523 72.1621 21.6312 72.1621 21.6101C72.1729 21.5679 72.1945 21.5151 72.2053 21.4623L72.2269 21.3779L72.2593 21.2406L72.2809 21.1562C72.2917 21.1139 72.3025 21.0612 72.3025 21.0189C72.3133 20.9873 72.3133 20.9661 72.3133 20.9239C72.3241 20.8922 72.3241 20.8606 72.3241 20.8289L72.3349 20.7867C72.3457 20.7233 72.3457 20.6494 72.3565 20.5755L72.3673 20.5228L72.3782 20.4911C72.3241 20.4911 71.8596 20.47 71.2221 20.4277C71.006 20.4172 70.7791 20.3961 70.5414 20.3855C70.3145 20.3644 70.0876 20.3538 69.8499 20.3327L69.8391 20.4911C69.8283 20.5228 69.8283 20.5439 69.8283 20.5755C69.8067 20.7444 69.7743 20.9028 69.7095 21.0506C69.3746 21.9902 68.4346 22.6447 67.3433 22.6447C67.2677 22.6447 67.1921 22.6341 67.1273 22.6341L67.0732 22.6236C67.0084 22.613 66.9328 22.6025 66.8571 22.5919C66.8463 22.5919 66.8463 22.5919 66.8355 22.5814C66.7707 22.5708 66.7059 22.5497 66.6411 22.5286C66.6195 22.518 66.6087 22.518 66.5978 22.518H66.587L66.3926 22.4547C66.3818 22.4441 66.3709 22.4441 66.3709 22.4441L66.1981 22.3702L66.1549 22.3491C66.1008 22.3174 66.036 22.2858 65.982 22.2435C65.9712 22.233 65.9604 22.233 65.9604 22.2224C65.9064 22.1908 65.8523 22.1485 65.8091 22.1169C65.7983 22.1063 65.7875 22.0957 65.7767 22.0957C65.7227 22.0535 65.6687 22.0113 65.6255 21.9585L65.6038 21.9374L65.4742 21.8001C65.4634 21.7896 65.4526 21.779 65.4526 21.7685C65.4094 21.7157 65.3661 21.6629 65.3229 21.5996L65.3013 21.5679C65.2797 21.5468 65.2689 21.5257 65.2581 21.5046V21.494C65.2365 21.4623 65.2257 21.4412 65.2149 21.4095L65.1933 21.3779L65.096 21.1878C65.0852 21.1773 65.0852 21.1667 65.0852 21.1562L65.0204 20.9873C65.0096 20.9661 65.0096 20.9556 64.9988 20.945C64.9772 20.8817 64.9556 20.8078 64.9448 20.7339C64.9448 20.7233 64.9448 20.7233 64.934 20.7128L64.9016 20.5122L64.8908 20.4594C64.88 20.3855 64.88 20.3116 64.88 20.2272V12.4256C64.88 11.6866 65.2257 11.0215 65.7659 10.5781C66.1873 10.2297 66.7167 10.0291 67.3109 10.0291L67.5378 10.0397L67.6026 10.0502C67.6567 10.0608 67.7107 10.0714 67.7647 10.0714C67.7863 10.0819 67.8079 10.0819 67.8295 10.0819L68.0132 10.1241C68.024 10.1347 68.0348 10.1347 68.0456 10.1347C68.1104 10.1558 68.1861 10.1769 68.2509 10.2086C68.2725 10.2191 68.2941 10.2297 68.3049 10.2297L68.4454 10.293L68.5102 10.3247L68.6615 10.4092C68.6723 10.4197 68.6939 10.4303 68.7047 10.4303C68.7587 10.4725 68.8235 10.5042 68.8776 10.557L68.9208 10.5886C68.964 10.6203 68.9964 10.652 69.0396 10.6942C69.0612 10.7153 69.072 10.7259 69.0936 10.7364C69.1369 10.7787 69.1693 10.8103 69.2017 10.8526C69.2125 10.8631 69.2233 10.8842 69.2449 10.8948L69.3745 11.0637L69.3962 11.0954L69.4934 11.2432C69.5042 11.2643 69.515 11.2854 69.5258 11.296C69.5582 11.3382 69.5798 11.391 69.5906 11.4332C69.6014 11.4543 69.6123 11.4649 69.6123 11.486C69.6231 11.4965 69.6231 11.5071 69.6231 11.5177L69.6339 11.5282C69.6447 11.5599 69.6555 11.581 69.6663 11.6232L69.6987 11.7182L69.7311 11.8449C69.7419 11.8766 69.7527 11.9083 69.7527 11.9399C69.7635 11.9927 69.7743 12.0455 69.7743 12.0877C69.7851 12.1194 69.7851 12.1405 69.7851 12.1616C69.7959 12.2355 69.7959 12.32 69.7959 12.3939V12.7634C69.8499 12.8162 69.904 12.8056 69.9688 12.8056H70.0228C70.066 12.8056 70.0984 12.8056 70.1417 12.795C70.1957 12.795 70.2497 12.7845 70.3145 12.7845C70.3469 12.7845 70.3794 12.7845 70.4118 12.7739L70.6495 12.7634H70.6603C70.9736 12.7528 71.2977 12.7528 71.6543 12.7423C71.7299 12.7423 71.8271 12.7317 71.9136 12.7317H71.9676C72.0864 12.7212 72.2053 12.7211 72.3349 12.7211V12.415C72.3349 12.3622 72.3241 12.2989 72.3241 12.2355C72.389 12.2989 72.389 12.2883 72.389 12.2778ZM58.9592 12.5417C58.9592 12.51 58.9484 12.4783 58.9484 12.4361C58.9484 12.3939 58.9376 12.3728 58.9376 12.3411C58.9376 12.32 58.9376 12.3094 58.9268 12.2989C58.916 12.2566 58.916 12.225 58.916 12.1933L58.8944 12.0666L58.8728 11.9716V11.961C58.8619 11.9294 58.8619 11.9083 58.8619 11.8871C58.8511 11.866 58.8511 11.8449 58.8511 11.8344C58.8403 11.8027 58.8403 11.7816 58.8295 11.7394C58.8295 11.7288 58.8295 11.7288 58.8187 11.7182C58.8079 11.6971 58.8079 11.676 58.8079 11.6655C58.7971 11.6338 58.7971 11.6127 58.7863 11.5916C58.7755 11.5599 58.7647 11.5282 58.7647 11.486L58.7431 11.4226L58.7215 11.3593C58.7107 11.3276 58.6999 11.3065 58.6999 11.2748C58.6999 11.2643 58.6999 11.2643 58.6891 11.2643L58.6567 11.1798L58.6351 11.127L58.6026 11.032C58.581 10.9898 58.5702 10.9476 58.5594 10.9054L58.527 10.8103V10.7998C58.5162 10.7681 58.4946 10.7364 58.4838 10.6942L58.473 10.6731C58.4514 10.6414 58.4406 10.6098 58.4298 10.5675L58.4082 10.5253L58.3866 10.4936C58.3541 10.4197 58.3109 10.3458 58.2677 10.2719C58.2569 10.2508 58.2461 10.2403 58.2461 10.2297C58.2353 10.2191 58.2353 10.2086 58.2353 10.2086C58.1813 10.1136 58.1273 10.0291 58.084 9.94467C58.0732 9.93411 58.0624 9.92355 58.0624 9.90244C58.0192 9.82854 57.9652 9.75464 57.9112 9.68074C57.9004 9.67019 57.8896 9.65963 57.8896 9.64907C57.8788 9.63852 57.868 9.62796 57.8571 9.60684C57.8031 9.53294 57.7491 9.45905 57.6843 9.38515L57.6627 9.35348L57.4574 9.13178L57.4466 9.12123C57.425 9.10011 57.4142 9.079 57.3926 9.06844C57.3493 9.01566 57.2953 8.97343 57.2521 8.9312L57.2305 8.91009C57.2089 8.88897 57.1873 8.87842 57.1765 8.8573C57.1008 8.79396 57.0252 8.72006 56.9388 8.65672L56.8956 8.62505L56.8848 8.61449C56.8199 8.5617 56.7551 8.51948 56.6795 8.46669C56.6471 8.44558 56.6255 8.43502 56.6038 8.41391C56.5282 8.36112 56.4418 8.30834 56.3661 8.26611C56.3553 8.26611 56.3553 8.25555 56.3553 8.25555C56.3445 8.245 56.3445 8.24499 56.3337 8.24499C56.2365 8.19221 56.1501 8.13943 56.0528 8.0972C56.0204 8.07608 55.9988 8.06553 55.9664 8.05497C55.8908 8.0233 55.8151 7.99163 55.7395 7.9494C55.7287 7.93884 55.7287 7.93884 55.7179 7.93884C55.6963 7.92829 55.6855 7.91773 55.6639 7.91773C55.5666 7.8755 55.4586 7.84383 55.3614 7.81216C55.3397 7.8016 55.3181 7.79105 55.2857 7.79105L55.2101 7.76993C55.1561 7.74882 55.0912 7.73826 55.0264 7.71715C55.0156 7.71715 55.0156 7.71715 55.0156 7.70659C54.9832 7.69603 54.9616 7.69603 54.94 7.68548L54.8535 7.66436C54.7779 7.64325 54.6807 7.63269 54.5942 7.62213V7.61158H54.5726C54.4646 7.59046 54.3565 7.57991 54.2377 7.56935C54.2161 7.56935 54.1945 7.55879 54.1837 7.55879H54.1513C54.1189 7.55879 54.0756 7.54823 54.0324 7.54823C53.9676 7.53768 53.9028 7.53768 53.8271 7.53768H53.6218C53.4814 7.54824 53.3409 7.54824 53.2005 7.56935H53.1789C53.0384 7.57991 52.898 7.60102 52.7575 7.62213C52.7467 7.62213 52.7467 7.62213 52.7359 7.63269L52.3145 7.69603H52.3037C52.3037 7.69603 52.2929 7.69603 52.2821 7.70659L51.9256 7.78049C51.904 7.79105 51.8824 7.79105 51.8716 7.79105L51.8499 7.8016C51.6555 7.84383 51.4718 7.89662 51.2881 7.93884H51.2773C51.2665 7.93884 51.2665 7.93884 51.2665 7.9494C51.1801 7.97051 51.0936 7.99163 51.018 8.0233H51.0072L50.9856 8.03386C50.8992 8.05497 50.8127 8.08664 50.7371 8.10776C50.7263 8.11831 50.7155 8.11831 50.7047 8.11831C50.6723 8.12887 50.6507 8.13943 50.6291 8.14998C50.6183 8.16054 50.5966 8.16054 50.5858 8.16054C50.5642 8.1711 50.5534 8.17109 50.5426 8.18165C50.5102 8.19221 50.467 8.20277 50.4346 8.22388L50.4454 8.35056V8.37168C50.4454 8.39279 50.4454 8.41391 50.4562 8.42446C50.467 8.46669 50.467 8.50892 50.467 8.55115C50.4778 8.64616 50.4778 8.74117 50.4886 8.82563L50.5102 9.10011V9.11067L50.521 9.19512V9.23735C50.521 9.25846 50.521 9.27958 50.5318 9.30069V9.34292L50.5426 9.41682V9.44849C50.5426 9.48016 50.5534 9.51183 50.5534 9.55406C50.5534 9.57517 50.5534 9.59629 50.5642 9.6174V9.68074C50.5642 9.70186 50.5642 9.72297 50.575 9.73353C50.575 9.75464 50.575 9.77576 50.5858 9.79687C50.5858 9.81798 50.5858 9.8391 50.5966 9.86021C50.5966 9.88133 50.5966 9.913 50.6074 9.93411V9.99745C50.6074 10.0397 50.6183 10.0925 50.6183 10.1452C50.6723 10.1347 50.7263 10.1347 50.7695 10.1347L50.8992 10.1241L51.1044 10.103L51.3637 10.0819C51.407 10.0714 51.461 10.0714 51.5042 10.0714L52.3902 10.008L52.509 9.99745C52.6062 9.9869 52.7035 9.97634 52.8007 9.97634C52.8656 9.96578 52.9304 9.96578 52.9952 9.96578C53.0708 9.95523 53.1357 9.95522 53.2113 9.95522C53.2977 9.94467 53.3842 9.94467 53.4598 9.94467C53.5138 9.94467 53.5678 9.93411 53.611 9.93411L54 9.913H53.9676C54.0972 9.90244 54.2269 9.89188 54.3457 9.89188C54.4322 9.89188 54.5186 9.90244 54.5834 9.90244C54.605 9.90244 54.6267 9.913 54.6375 9.913C54.7131 9.92355 54.7887 9.93411 54.8535 9.94467H54.8643C54.9292 9.95522 55.0048 9.97634 55.0696 9.99745L55.1237 10.0186C55.1885 10.0397 55.2533 10.0608 55.3073 10.0819C55.3181 10.0819 55.3181 10.0819 55.3181 10.0925L55.491 10.1769C55.5126 10.1875 55.5234 10.198 55.5342 10.2086C55.5882 10.2403 55.6315 10.2719 55.6747 10.3142L55.6855 10.3247C55.7287 10.3669 55.7827 10.3986 55.8151 10.4408L55.8475 10.4725L55.9664 10.5992C55.9664 10.6098 55.9772 10.6098 55.9772 10.6098L56.0744 10.747C56.0852 10.7681 56.096 10.7787 56.1068 10.7892C56.1393 10.8315 56.1609 10.8842 56.1825 10.937C56.1933 10.9476 56.1933 10.9476 56.1933 10.9581C56.2149 11.0004 56.2365 11.032 56.2473 11.0848V11.0954C56.2473 11.0954 56.2581 11.1059 56.2581 11.1165C56.3229 11.2748 56.3661 11.4438 56.3986 11.6232C56.4094 11.6549 56.4094 11.676 56.4094 11.6971C56.4202 11.7605 56.431 11.8344 56.431 11.8977L56.4418 11.9822C56.4526 12.0772 56.4526 12.1722 56.4526 12.2672V14.2308L56.377 14.2097C56.3661 14.2097 56.3661 14.2097 56.3661 14.1991C56.3553 14.1991 56.3553 14.1991 56.3553 14.1886L56.2905 14.1675L56.2581 14.1569C56.2473 14.1463 56.2365 14.1463 56.2149 14.1463L56.1933 14.1358C56.1825 14.1252 56.1717 14.1252 56.1609 14.1252C56.1393 14.1147 56.1285 14.1147 56.1068 14.1147L56.0852 14.1041C56.0636 14.0936 56.0528 14.0936 56.0312 14.0936C56.0204 14.0936 56.0204 14.0936 56.0096 14.083C55.988 14.0724 55.9772 14.0724 55.9556 14.0724C55.934 14.0619 55.9124 14.0619 55.9016 14.0619L55.8367 14.0408C55.8151 14.0302 55.7935 14.0302 55.7827 14.0302C55.7611 14.0197 55.7395 14.0197 55.7179 14.0197C55.6963 14.0091 55.6747 14.0091 55.6531 14.0091C55.6315 13.9985 55.6098 13.9985 55.5882 13.9985C55.5666 13.988 55.5342 13.988 55.5126 13.988C55.491 13.9774 55.4694 13.9774 55.4586 13.9774C55.4478 13.9774 55.437 13.9774 55.4262 13.9669C55.4046 13.9563 55.3938 13.9563 55.3722 13.9563C55.3505 13.9563 55.3397 13.9458 55.3181 13.9458H55.3073C55.2749 13.9352 55.2533 13.9352 55.2317 13.9352L55.1885 13.9246L55.1453 13.9141C55.1237 13.9035 55.102 13.9035 55.0804 13.9035C55.0696 13.9035 55.0588 13.9035 55.048 13.893C55.0048 13.8824 54.9616 13.8824 54.9184 13.8824H54.9076C54.8427 13.8719 54.7779 13.8719 54.7131 13.8719C54.6915 13.8719 54.6591 13.8719 54.6375 13.8613H54.6267L54.4862 13.8507H54.3782C54.3349 13.8507 54.3025 13.8507 54.2485 13.8402H53.8812C53.8271 13.8402 53.7623 13.8402 53.7083 13.8507H53.6759L53.5786 13.8613L53.4382 13.8719C53.4166 13.8719 53.4058 13.8824 53.395 13.8824L53.3193 13.893C53.3193 13.893 53.2653 13.9035 53.2437 13.9035C53.2221 13.9035 53.2005 13.9141 53.1897 13.9141C53.1573 13.9246 53.1357 13.9246 53.1032 13.9246C53.0924 13.9246 53.0816 13.9246 53.0708 13.9352C53.0384 13.9458 53.0168 13.9458 52.9844 13.9458C52.9628 13.9458 52.952 13.9563 52.9412 13.9563L52.8223 13.9774C52.8007 13.988 52.7791 13.988 52.7575 13.988C52.7359 13.9985 52.7143 13.9985 52.6927 13.9985H52.6819C52.6495 14.0091 52.6171 14.0091 52.5738 14.0197C52.5414 14.0302 52.509 14.0408 52.4766 14.0408C52.455 14.0513 52.4334 14.0513 52.4226 14.0619H52.4118L52.3037 14.0936C52.2929 14.0936 52.2929 14.0936 52.2929 14.1041L52.12 14.1569C52.0876 14.1675 52.066 14.178 52.0228 14.1886H52.012C51.9688 14.1991 51.9364 14.2202 51.8824 14.2308L51.7851 14.2625C51.7419 14.2836 51.7095 14.2941 51.6663 14.3047C51.6339 14.3153 51.6122 14.3364 51.569 14.3469C51.5474 14.3575 51.5366 14.368 51.5258 14.368L51.461 14.3997H51.4502C51.4178 14.4208 51.3962 14.4314 51.3637 14.4419C51.3421 14.4525 51.3205 14.463 51.3097 14.4736C51.2881 14.4842 51.2665 14.4947 51.2557 14.5053C51.2557 14.5053 51.2449 14.5053 51.2449 14.5158L51.1693 14.5581C51.1369 14.5792 51.1044 14.6003 51.0612 14.6214L51.0288 14.6425L51.018 14.6531L50.9748 14.6847C50.9208 14.727 50.8559 14.7586 50.7911 14.8009L50.7371 14.8431L50.7263 14.8537C50.6831 14.8853 50.6507 14.9064 50.6183 14.9381L50.5534 14.9909L50.5426 15.0015C50.5102 15.0331 50.4778 15.0542 50.4454 15.0754L50.4346 15.0859C50.413 15.107 50.3914 15.1176 50.3806 15.1387C50.3806 15.1387 50.3698 15.1387 50.3698 15.1493L50.2833 15.2337C50.2833 15.2337 50.2725 15.2337 50.2725 15.2443L50.2617 15.2548C50.2401 15.2759 50.2185 15.2865 50.2077 15.3076H50.1969C50.1645 15.3393 50.1429 15.3604 50.1213 15.3921L50.1104 15.4026L50.0996 15.4132C50.078 15.4343 50.0672 15.4448 50.0564 15.466C50.024 15.5082 49.9916 15.5399 49.9484 15.5821C49.9376 15.5926 49.9376 15.5926 49.9376 15.6032L49.916 15.6243L49.7863 15.7932C49.7755 15.8038 49.7647 15.8143 49.7647 15.8249L49.7539 15.8355C49.7431 15.846 49.7431 15.8566 49.7323 15.8566C49.7107 15.8882 49.6783 15.9199 49.6567 15.9621C49.6459 15.9833 49.6351 16.0044 49.6243 16.0149C49.6243 16.0255 49.6134 16.0255 49.6134 16.0255L49.5486 16.1416V16.1522L49.5162 16.2155V16.2261C49.4946 16.2577 49.473 16.3 49.4514 16.3422C49.4514 16.3422 49.4514 16.3528 49.4406 16.3528V16.3633L49.4082 16.4266V16.4372C49.4082 16.4478 49.3974 16.4478 49.3974 16.4478C49.3758 16.49 49.3541 16.5217 49.3433 16.5639C49.3433 16.5639 49.3433 16.5744 49.3325 16.5744C49.3217 16.5956 49.3109 16.6167 49.3001 16.6272C49.2785 16.68 49.2569 16.7328 49.2353 16.7961C49.2353 16.8067 49.2245 16.8067 49.2245 16.8067C49.2137 16.8173 49.2137 16.8278 49.2137 16.8278V16.8384C49.1813 16.9017 49.1597 16.9756 49.1381 17.039C49.1273 17.0495 49.1273 17.0601 49.1273 17.0706C49.1273 17.0812 49.1273 17.0812 49.1165 17.0812L49.0948 17.1445C49.084 17.1762 49.0732 17.2079 49.0624 17.2501C49.0516 17.2712 49.0516 17.2923 49.0408 17.3029V17.324C49.03 17.3557 49.0192 17.3873 49.0192 17.419C49.0084 17.4401 49.0084 17.4612 48.9976 17.4718L48.976 17.5457V17.5562L48.9544 17.6301C48.9436 17.6513 48.9436 17.6724 48.9436 17.6829C48.9328 17.7252 48.922 17.7779 48.922 17.8202L48.9004 17.9257C48.8896 17.9785 48.8896 18.0313 48.8788 18.0735C48.868 18.1052 48.868 18.1369 48.868 18.1791C48.8571 18.2319 48.8571 18.2952 48.8571 18.3586L48.8463 18.443C48.8355 18.538 48.8355 18.6225 48.8355 18.707V20.2377L48.8463 20.5228C48.8463 20.5544 48.8571 20.5755 48.8571 20.6178C48.868 20.6811 48.868 20.7444 48.8788 20.8183C48.8896 20.85 48.8896 20.8817 48.8896 20.9134L48.922 21.1034L48.9436 21.1878L49.0084 21.4623L49.0192 21.4834C49.0408 21.5679 49.0624 21.6523 49.0948 21.7368L49.1273 21.8213L49.1921 22.0007C49.2029 22.0324 49.2137 22.0641 49.2353 22.0957L49.3109 22.2647C49.3217 22.2963 49.3325 22.3174 49.3541 22.3386C49.3974 22.4125 49.4298 22.4969 49.4838 22.5708L49.4946 22.5919C49.4946 22.6025 49.5054 22.6025 49.5054 22.6025L49.6351 22.8242C49.6567 22.8558 49.6675 22.877 49.6891 22.8981C49.7323 22.9509 49.7647 23.0142 49.8079 23.0775L49.8619 23.1409C49.916 23.2148 49.9808 23.2887 50.0456 23.3626C50.0672 23.3837 50.078 23.4048 50.0996 23.4154C50.1429 23.4681 50.1969 23.5209 50.2509 23.5843C50.2725 23.6054 50.2941 23.6371 50.3157 23.6476C50.3698 23.7004 50.4238 23.7532 50.4886 23.806C50.5102 23.8165 50.521 23.8376 50.5318 23.8482C50.5966 23.9115 50.6723 23.9749 50.7479 24.0382L50.8127 24.091L50.9856 24.2177L51.0612 24.2705L51.2989 24.4288C51.3097 24.4394 51.3097 24.4394 51.3205 24.4394C51.3962 24.4922 51.4826 24.5344 51.569 24.5766C51.5906 24.5977 51.6231 24.6083 51.6447 24.6189L51.8499 24.7139L51.9148 24.7455L52.1957 24.8617C52.2173 24.8722 52.2281 24.8722 52.2389 24.8828C52.3145 24.9145 52.401 24.9356 52.4766 24.9567C52.509 24.9672 52.5306 24.9778 52.5522 24.9778L52.8115 25.0411C52.8223 25.0517 52.8331 25.0517 52.8547 25.0517C52.9628 25.0728 53.06 25.0939 53.1573 25.1045L53.2221 25.115L53.4814 25.1467L53.557 25.1573C53.6651 25.1678 53.7731 25.1678 53.8704 25.1678C54.9292 25.1678 55.9124 24.8406 56.7119 24.281C57.3385 23.8482 57.868 23.2676 58.2245 22.5919C58.6026 21.8952 58.8187 21.1034 58.8187 20.2588V12.8478C58.8079 12.8162 58.8079 12.7845 58.8079 12.7528C58.9592 12.6473 58.9592 12.5945 58.9592 12.5417ZM56.4742 16.3211V20.1955C56.4742 20.47 56.4202 20.7444 56.3337 20.9978C56.0312 21.874 55.2317 22.5286 54.2593 22.6236C54.1837 22.6341 54.0864 22.6341 54 22.6341L53.7731 22.6236L53.7191 22.613L53.503 22.5814L53.4814 22.5708C53.4166 22.5602 53.3517 22.5391 53.2869 22.518H53.2761C53.2653 22.5075 53.2545 22.5075 53.2437 22.5075C53.1789 22.4863 53.114 22.4652 53.0492 22.4336C53.0384 22.423 53.0276 22.423 53.0276 22.423C52.9736 22.4019 52.9088 22.3702 52.8547 22.3386L52.8115 22.3174C52.7467 22.2858 52.6927 22.2541 52.6279 22.2119L52.5954 22.1908C52.5414 22.1591 52.4982 22.1274 52.4442 22.0852L52.4118 22.0535C52.3577 22.0113 52.3037 21.9585 52.2605 21.9163L52.2281 21.8846L52.1092 21.7579C52.0984 21.7474 52.0876 21.7368 52.0876 21.7262C52.0444 21.6735 52.0012 21.6207 51.9688 21.5573C51.958 21.5468 51.9472 21.5362 51.9472 21.5151L51.8932 21.4729C51.8716 21.4412 51.8607 21.4201 51.8499 21.399C51.8391 21.3884 51.8283 21.3673 51.8283 21.3568L51.7311 21.1667C51.7203 21.1456 51.7203 21.1351 51.7095 21.1245C51.6879 21.0717 51.6663 21.0189 51.6555 20.9661L51.6339 20.9134L51.5798 20.7128C51.569 20.7022 51.569 20.6811 51.569 20.6705C51.5582 20.6178 51.5474 20.5544 51.5366 20.4911L51.5258 20.4277C51.515 20.3644 51.515 20.2905 51.515 20.2272V18.3902C51.515 17.7146 51.7851 17.1128 52.2281 16.68C52.6711 16.2472 53.2869 15.9833 53.9784 15.9833H56.4418V16.3211H56.4742ZM40.1813 7.66436H40.1489H40.1813ZM40.1705 7.66436L40.0516 7.67492C40.0732 7.67492 40.0948 7.67492 40.1164 7.66436H40.1705ZM45.8643 12.6789L45.8535 12.4467L45.8427 12.3517V12.3411C45.8319 12.2883 45.8319 12.225 45.8319 12.1722V12.1616C45.8211 12.13 45.8211 12.0983 45.8211 12.0561V12.0455L45.7995 11.8871V11.866L45.7779 11.771V11.7605C45.7671 11.7077 45.7563 11.6549 45.7455 11.6127V11.6021L45.7239 11.5388C45.7239 11.5282 45.7131 11.5177 45.7131 11.4965C45.7023 11.4438 45.6915 11.391 45.6699 11.3276V11.3171C45.6591 11.2854 45.6483 11.2643 45.6483 11.2221L45.5834 10.9898V10.9792C45.5726 10.9687 45.5726 10.9476 45.5726 10.937L45.5078 10.747L45.4862 10.7048C45.4754 10.6837 45.4754 10.6731 45.4646 10.6625L45.443 10.6309L45.3782 10.462C45.3673 10.4408 45.3565 10.4303 45.3565 10.4197C45.3457 10.4092 45.3457 10.3986 45.3457 10.3986C45.3133 10.3247 45.2701 10.2508 45.2269 10.1769C45.2161 10.1664 45.2161 10.1558 45.2053 10.1347C45.1945 10.1241 45.1945 10.1136 45.1945 10.1136L45.0756 9.90244L45.0432 9.84966C45.0324 9.8391 45.0324 9.8391 45.0324 9.82854C45.0216 9.81798 45.0108 9.80743 45.0108 9.79687C44.9892 9.7652 44.9676 9.73353 44.9568 9.70186C44.946 9.6913 44.9352 9.68074 44.9352 9.67019C44.9244 9.65963 44.9244 9.64907 44.9136 9.64907C44.9028 9.62796 44.892 9.60685 44.8703 9.59629C44.8487 9.57518 44.8379 9.55406 44.8271 9.53295C44.7731 9.45905 44.7083 9.36403 44.6435 9.30069L44.449 9.07899L44.4166 9.04733C44.4058 9.03677 44.395 9.02621 44.395 9.01566C44.3409 8.95231 44.2761 8.89953 44.2113 8.83619C44.1897 8.82563 44.1789 8.80451 44.1681 8.79396L43.9412 8.60393C43.9304 8.59337 43.9196 8.58282 43.898 8.57226C43.8872 8.5617 43.8872 8.5617 43.8764 8.5617C43.8115 8.50892 43.7467 8.45613 43.6819 8.41391C43.6603 8.39279 43.6387 8.38224 43.6279 8.37168L43.3685 8.20277C43.3577 8.19221 43.3469 8.19221 43.3469 8.18165C43.2713 8.13942 43.1849 8.08664 43.1092 8.05497L43.0444 8.0233L42.7851 7.90717H42.7743L42.7527 7.89662C42.6555 7.85439 42.5582 7.82272 42.461 7.79105C42.4502 7.78049 42.4394 7.78049 42.4286 7.78049C42.4178 7.76993 42.407 7.76993 42.3962 7.76993C42.3205 7.73826 42.2233 7.71715 42.1477 7.70659L42.1152 7.69603L42.0828 7.68548L41.7695 7.62213C41.7479 7.62213 41.7371 7.61158 41.7263 7.61158C41.6291 7.60102 41.5426 7.59046 41.4562 7.57991L41.3806 7.56935H41.3589C41.2833 7.55879 41.2077 7.55879 41.1321 7.55879H41.0132C40.9376 7.55879 40.8619 7.55879 40.7755 7.56935H40.6999C40.6459 7.56935 40.581 7.57991 40.5162 7.57991C40.4946 7.57991 40.473 7.57991 40.4622 7.59046H40.419C40.3649 7.59046 40.3109 7.60102 40.2677 7.60102C40.2245 7.61158 40.1813 7.61158 40.1381 7.61158H40.1921C40.1381 7.62213 40.0948 7.62213 40.0408 7.62213L39.9112 7.63269H39.8896C39.8788 7.63269 39.868 7.63269 39.8571 7.64325C39.7923 7.65381 39.7275 7.66436 39.6627 7.66436C39.6303 7.67492 39.5978 7.67492 39.5546 7.67492H39.533C39.4898 7.68548 39.4574 7.68548 39.425 7.69603L39.2305 7.7277C39.1981 7.73826 39.1765 7.73826 39.1549 7.73826C39.1333 7.74882 39.1116 7.74882 39.1008 7.74882C39.0468 7.75938 38.9928 7.76993 38.9496 7.78049C38.9388 7.78049 38.9388 7.78049 38.928 7.79105L38.6903 7.84383L38.6687 7.85439C38.6687 7.85439 38.6579 7.85439 38.6579 7.86494C38.6038 7.8755 38.5498 7.89662 38.5066 7.90717H38.4958V0.475064H35.9352V24.925H38.4958V10.3458H40.97L41.1753 10.3564C41.2077 10.3564 41.2293 10.3669 41.2509 10.3669L41.4022 10.3881C41.4346 10.3986 41.4562 10.3986 41.4778 10.4092L41.6507 10.4514C41.6723 10.462 41.6831 10.462 41.6939 10.462C41.7587 10.4831 41.8235 10.5042 41.8992 10.5253L41.964 10.557L42.1044 10.6203L42.1693 10.652C42.2125 10.6837 42.2665 10.7048 42.3097 10.7259C42.3313 10.7364 42.3421 10.747 42.3529 10.7576C42.407 10.7998 42.4718 10.8315 42.5258 10.8842C42.5474 10.8948 42.5582 10.9054 42.569 10.9265C42.6122 10.9581 42.6447 10.9898 42.6879 11.032L42.7419 11.0848C42.7851 11.1165 42.8175 11.1587 42.8499 11.2009C42.8607 11.2221 42.8824 11.2326 42.8932 11.2432C42.9364 11.296 42.9796 11.3487 43.0228 11.4121L43.0552 11.4543L43.1417 11.5916L43.1741 11.6549L43.2389 11.7921L43.2713 11.8555C43.2821 11.866 43.2821 11.8766 43.2821 11.8766C43.2821 11.8871 43.2929 11.8871 43.2929 11.8871L43.3253 11.9716L43.3577 12.0666L43.401 12.2039C43.4118 12.2355 43.4226 12.2566 43.4226 12.2883C43.4334 12.3411 43.4442 12.4044 43.455 12.4678C43.4658 12.4889 43.4658 12.51 43.4658 12.5311C43.4766 12.605 43.4766 12.6895 43.4766 12.7739V24.9883H45.9724V12.7317C45.8643 12.7 45.8643 12.6895 45.8643 12.6789ZM32.8776 12.1827V12.1616L32.8667 12.0666C32.8559 12.0138 32.8559 11.9505 32.8559 11.8977L32.8343 11.7816L32.8127 11.6232C32.8019 11.581 32.8019 11.5493 32.7911 11.5177V11.4965C32.7911 11.486 32.7803 11.4754 32.7803 11.4754C32.7695 11.4332 32.7587 11.391 32.7587 11.3487C32.7479 11.3171 32.7371 11.2854 32.7371 11.2432C32.7371 11.2326 32.7263 11.2221 32.7263 11.2221L32.7047 11.1482L32.6831 11.0743L32.6615 11.0109L32.6399 10.9476C32.6291 10.8948 32.6074 10.8526 32.5966 10.8103L32.5534 10.6942L32.4994 10.557C32.4778 10.5147 32.467 10.4831 32.4562 10.4408C32.4346 10.3986 32.413 10.3458 32.4022 10.3036C32.3914 10.2719 32.3806 10.2508 32.3698 10.2297C32.3589 10.2086 32.3481 10.198 32.3481 10.1875L32.3157 10.1241C32.2833 10.0714 32.2617 10.008 32.2185 9.94467L32.1969 9.913L32.078 9.71241C32.0672 9.70186 32.0672 9.70186 32.0672 9.6913L32.0456 9.65963C32.0132 9.60684 31.9808 9.55406 31.9484 9.51183L31.916 9.45905C31.8944 9.42738 31.8728 9.40626 31.8619 9.38515C31.7971 9.27958 31.7215 9.18456 31.6351 9.08955C31.6243 9.06844 31.6026 9.05788 31.5918 9.04733L31.473 8.91009L31.4406 8.87841C31.4298 8.86786 31.4298 8.86786 31.4298 8.8573C31.4082 8.83619 31.3974 8.81507 31.3758 8.80452C31.3433 8.76229 31.3109 8.73062 31.2677 8.68839L31.2569 8.67783L31.2353 8.65672L31.0948 8.51948C31.0732 8.49836 31.0624 8.48781 31.0408 8.47725C31.0084 8.44558 30.976 8.41391 30.9328 8.38224L30.8896 8.35056L30.8571 8.31889L30.7275 8.22388C30.7059 8.20277 30.6843 8.19221 30.6735 8.18165L30.6303 8.14998L30.479 8.04441L30.425 8.01274L30.2413 7.89662C30.2305 7.89662 30.2305 7.88606 30.2305 7.88606L30.09 7.8016C30.0684 7.79105 30.0468 7.78049 30.036 7.76993C30.0252 7.75937 30.0036 7.74882 29.9928 7.74882C29.982 7.74882 29.982 7.73826 29.982 7.73826C29.9496 7.71715 29.928 7.70659 29.8956 7.69603L29.8199 7.6538C29.8091 7.64325 29.7983 7.64325 29.7875 7.64325C29.7767 7.63269 29.7659 7.63269 29.7659 7.63269C29.7119 7.60102 29.6471 7.57991 29.5822 7.55879C29.5714 7.54823 29.5606 7.54824 29.539 7.53768C29.5282 7.53768 29.5282 7.52712 29.5282 7.52712C29.5282 7.52712 29.5174 7.52712 29.5174 7.51656H29.5066C29.4418 7.48489 29.377 7.46378 29.3121 7.44266C29.2905 7.43211 29.2689 7.42155 29.2473 7.42155C29.1933 7.40044 29.1285 7.37932 29.0636 7.35821C29.042 7.34765 29.0312 7.34765 29.0204 7.33709C28.9556 7.31598 28.88 7.29487 28.8151 7.28431L28.7827 7.27376C28.7611 7.2632 28.7503 7.2632 28.7395 7.2632C28.7287 7.25264 28.7179 7.25264 28.7071 7.25264C28.6531 7.24208 28.599 7.23153 28.5558 7.22097L28.5234 7.21041L28.491 7.19986L28.3181 7.16819L28.102 7.13651L27.9292 7.1154C27.8752 7.10484 27.8103 7.10484 27.7563 7.10484L27.7131 7.09429H27.6807C27.6483 7.09429 27.6158 7.09429 27.5834 7.08373C27.5294 7.08373 27.4754 7.07317 27.4322 7.07317C27.389 7.07317 27.3241 7.07317 27.2809 7.08373H27.1621L27.0108 7.09429H27C26.9676 7.09429 26.946 7.10484 26.9028 7.10484H26.8703L26.7083 7.12596L26.5894 7.14707L26.4274 7.17874C26.4058 7.1893 26.3842 7.1893 26.3625 7.1893L26.3193 7.19986L26.2005 7.23152L26.1681 7.24208C26.1573 7.24208 26.1573 7.24208 26.1573 7.25264C26.1465 7.2632 26.1357 7.2632 26.1249 7.2632L26.06 7.28431C26.006 7.29487 25.952 7.31598 25.9088 7.32654C25.898 7.32654 25.898 7.32654 25.898 7.33709L25.8007 7.36877L25.7791 7.37932L25.6603 7.42155C25.6495 7.43211 25.6387 7.43211 25.6279 7.43211L25.5414 7.46378H25.5306L25.455 7.49545C25.4334 7.50601 25.4226 7.50601 25.4118 7.51656C25.401 7.52712 25.3902 7.52712 25.3685 7.53768L25.2821 7.56935L25.2389 7.59046L25.1417 7.63269C25.1309 7.64325 25.12 7.64325 25.1092 7.64325L25.0336 7.67492L24.904 7.73826L24.8607 7.75937L24.7959 7.79105L24.7095 7.84383C24.6879 7.86494 24.6555 7.8755 24.6339 7.88606L24.569 7.91773C24.5474 7.93884 24.5258 7.9494 24.5042 7.95996H24.4934C24.4826 7.97052 24.4826 7.97051 24.4718 7.97051C24.4502 7.99163 24.4178 8.00219 24.3962 8.01274L24.3421 8.04441C24.3097 8.06553 24.2881 8.08664 24.2557 8.0972C24.2233 8.11831 24.2017 8.13943 24.1693 8.14998L24.1261 8.18165L24.1044 8.20277L24.072 8.22388L23.9532 8.31889L23.9208 8.35056L23.91 8.36112L23.8776 8.39279C23.8343 8.43502 23.7911 8.46669 23.7479 8.49836C23.7371 8.50892 23.7263 8.51948 23.7155 8.51948C23.7047 8.51948 23.7047 8.53003 23.7047 8.53003C23.6507 8.58282 23.5966 8.6356 23.5426 8.67783L23.521 8.69895L23.4454 8.77284C23.4346 8.79396 23.413 8.80451 23.4022 8.81507L23.3589 8.8573L23.3481 8.86786C23.2941 8.92064 23.2509 8.98398 23.2077 9.03677L23.1969 9.04733L23.1537 9.10011C23.1429 9.11067 23.1321 9.12122 23.1321 9.13178C23.0888 9.17401 23.0564 9.2268 23.0132 9.27958L22.9268 9.3957C22.8727 9.4696 22.8187 9.56462 22.7539 9.63852L22.7323 9.67019C22.7215 9.68074 22.7107 9.70186 22.7107 9.71241L22.6567 9.79687C22.6243 9.86021 22.5918 9.92355 22.5486 9.98689C22.5378 10.008 22.527 10.0186 22.527 10.0291C22.5054 10.0608 22.4838 10.103 22.473 10.1347L22.4406 10.198C22.4082 10.2508 22.3866 10.3036 22.3649 10.3669L22.3109 10.4831L22.2137 10.7259C22.2029 10.7576 22.1921 10.7892 22.1705 10.8315C22.1597 10.842 22.1597 10.8526 22.1597 10.8631L22.0624 11.1798V11.1904C21.9544 11.6021 21.9004 12.0349 21.9004 12.4783V19.826L21.9112 20.1321L21.922 20.2272C21.9328 20.3116 21.9436 20.3961 21.9436 20.4805C21.9544 20.5016 21.9544 20.5228 21.9544 20.5439C21.9652 20.6494 21.9868 20.7444 22.0084 20.85L22.03 20.9345L22.084 21.1667L22.1056 21.2512C22.1381 21.3568 22.1597 21.4518 22.1921 21.5468C22.2029 21.5679 22.2137 21.589 22.2137 21.6101L22.3001 21.8424L22.3325 21.9374L22.4514 22.2224L22.473 22.2541L22.6026 22.5075L22.6243 22.5391L22.6567 22.6025C22.6891 22.6553 22.7215 22.708 22.7539 22.7714L22.8079 22.8558C22.8619 22.9297 22.916 23.0142 22.9592 23.0881L22.9808 23.1198C23.0348 23.1831 23.0888 23.257 23.1321 23.3204L23.1969 23.3943C23.2401 23.447 23.2833 23.4998 23.3265 23.542L23.3914 23.6159L23.5426 23.7743L23.5966 23.8271C23.6615 23.8904 23.7371 23.9538 23.8127 24.0171L23.8776 24.0699C23.9316 24.1121 23.9856 24.1649 24.0504 24.1966C24.0828 24.2177 24.1044 24.2388 24.1261 24.2599L24.2881 24.376C24.3205 24.3972 24.3421 24.4077 24.3637 24.4288C24.4394 24.4816 24.515 24.5238 24.6014 24.5661L24.6339 24.5872C24.7095 24.6294 24.7851 24.6716 24.8715 24.7033L24.9688 24.7455C25.0228 24.7772 25.0876 24.7983 25.1525 24.8194L25.2497 24.8617C25.3145 24.8828 25.3794 24.9039 25.455 24.925C25.4874 24.9356 25.509 24.9461 25.5306 24.9567C25.6279 24.9884 25.7251 25.0095 25.8115 25.0306C25.8439 25.0411 25.8655 25.0411 25.9088 25.0517C25.9736 25.0622 26.0492 25.0834 26.1249 25.0939L26.2437 25.115C26.3085 25.1256 26.3842 25.1362 26.449 25.1362C26.4922 25.1467 26.5246 25.1467 26.5678 25.1467C26.6651 25.1573 26.7623 25.1573 26.8487 25.1573H26.8812C27.0216 25.1573 27.1621 25.1467 27.3025 25.1362C27.443 25.1256 27.5834 25.1045 27.7347 25.0834L31.0408 24.5872L31.3109 24.545L31.2353 22.6236L31.1921 21.5996L31.1813 21.4729L31.1705 21.3462L31.1597 21.2617H27.3349C27.2809 21.2617 27.2269 21.2512 27.1837 21.2512L27.1188 21.2406C27.0864 21.2301 27.054 21.2301 27.0108 21.2195C26.9892 21.209 26.9676 21.209 26.9568 21.1984H26.946C26.9136 21.1878 26.8812 21.1773 26.8379 21.1667C26.8163 21.1562 26.7947 21.1562 26.7839 21.1456C26.7299 21.1245 26.6867 21.1034 26.6435 21.0823C26.6327 21.0717 26.6327 21.0717 26.6218 21.0717L26.4922 20.9978C26.4706 20.9873 26.4598 20.9767 26.449 20.9661L26.3625 20.9028C26.3409 20.8922 26.3301 20.8711 26.3193 20.8606C26.2869 20.8289 26.2653 20.8078 26.2437 20.7761L26.2113 20.7444C26.1789 20.7022 26.1465 20.6705 26.114 20.6178C26.114 20.6178 26.114 20.6072 26.1032 20.6072C26.0816 20.5755 26.06 20.5439 26.0384 20.5016C26.0276 20.4911 26.0276 20.4805 26.0168 20.4594C25.9952 20.4277 25.9844 20.4066 25.9736 20.375C25.9628 20.3644 25.9628 20.3538 25.952 20.3327C25.9304 20.3011 25.9196 20.2588 25.9088 20.2272C25.9088 20.2166 25.898 20.2166 25.898 20.2166L25.8655 20.0899C25.8655 20.0688 25.8547 20.0582 25.8547 20.0477L25.8331 19.9527C25.8331 19.9316 25.8223 19.921 25.8223 19.9104C25.8115 19.8682 25.8115 19.8365 25.8115 19.7838V18.0841H30.9004C31.9916 18.0841 32.8776 17.2395 32.8776 16.1522V12.415C32.8884 12.4467 32.8884 12.4256 32.8884 12.4044C32.8884 12.3305 32.8884 12.2672 32.8776 12.1933V12.1827ZM28.9232 14.273H25.9412V12.4678C25.9412 11.6549 26.611 11.0004 27.443 11.0004H27.4646C27.497 11.0004 27.5294 11.0004 27.5726 11.0109L27.6267 11.0215C27.6591 11.032 27.6807 11.032 27.7023 11.032C27.7239 11.0426 27.7347 11.0426 27.7563 11.0426C27.7887 11.0531 27.8103 11.0532 27.8319 11.0637C27.8535 11.0743 27.8643 11.0743 27.8752 11.0743L27.994 11.1165L28.0264 11.1376C28.0588 11.1482 28.0804 11.1693 28.102 11.1798C28.1237 11.1904 28.1345 11.2009 28.1453 11.2009L28.2101 11.2432L28.2533 11.2748C28.2749 11.296 28.3073 11.3171 28.3289 11.3276L28.3613 11.3487L28.4586 11.4332L28.4802 11.4543L28.545 11.5177L28.5774 11.5493L28.6315 11.6232C28.6423 11.6338 28.6531 11.6443 28.6531 11.6549C28.6747 11.6866 28.6963 11.7182 28.7179 11.7605C28.7179 11.771 28.7287 11.771 28.7287 11.771C28.7503 11.8132 28.7719 11.8449 28.7827 11.8871C28.7935 11.8977 28.7935 11.9083 28.7935 11.9188C28.8043 11.9399 28.8151 11.961 28.8151 11.9822C28.8259 11.9927 28.8259 12.0033 28.8259 12.0138C28.8367 12.0349 28.8367 12.0455 28.8367 12.0561C28.8475 12.0877 28.8583 12.1088 28.8583 12.1405C28.8692 12.1616 28.8692 12.1722 28.8692 12.1933L28.8908 12.2883L28.9016 12.3305C28.9124 12.3728 28.9124 12.4256 28.9124 12.4678V14.273H28.9232ZM15.7203 0.865673L15.7527 0.844558C15.7419 0.844558 15.7311 0.855116 15.7203 0.865673ZM15.2449 1.19294L15.2125 1.22461L15.2341 1.21405C15.2341 1.20349 15.2341 1.2035 15.2449 1.19294ZM20.3986 0.475064C20.377 0.45395 20.3337 0.443393 20.2905 0.422279L20.2473 0.401167L20.2149 0.380052L20.1933 0.369494L20.1393 0.348382C20.1176 0.337825 20.096 0.327267 20.0744 0.327267C20.042 0.31671 20.0204 0.306154 19.9772 0.295597H19.9664C19.9232 0.28504 19.8908 0.274484 19.8475 0.25337L19.8151 0.242812H19.7935L19.7395 0.221697C19.7287 0.21114 19.7179 0.211139 19.7071 0.211139L19.6747 0.200585L19.6423 0.190027C19.6315 0.190027 19.6315 0.190027 19.6206 0.17947C19.5882 0.168913 19.5666 0.158355 19.5234 0.158355L19.491 0.1478C19.4586 0.137243 19.4154 0.126685 19.383 0.126685C19.3721 0.126685 19.3613 0.116127 19.3613 0.116127L19.3289 0.10557L19.2317 0.0844577C19.2209 0.0844577 19.2101 0.0844571 19.2101 0.0739001H19.1993L19.0804 0.0527849C19.0696 0.0527849 19.0588 0.0527874 19.048 0.0422305H19.0264C18.994 0.0316735 18.9508 0.0316728 18.9076 0.0316728C18.886 0.0316728 18.8752 0.0211152 18.8643 0.0211152C18.8211 0.0105583 18.7887 0.0105576 18.7347 0.0105576H18.6591L18.5402 0H18.3457C18.2593 0 18.1729 6.44189e-07 18.0864 0.0105576H18.054C18.0324 0.0105576 18.0216 0.0211152 18.0108 0.0211152L17.8379 0.0422305C17.8055 0.0527874 17.7731 0.0527849 17.7407 0.0527849C17.6867 0.0633418 17.6327 0.0633431 17.5894 0.0739001L17.4922 0.0950153C17.4382 0.105572 17.3842 0.116128 17.3409 0.126685L17.2545 0.1478C17.2005 0.158357 17.1357 0.17947 17.0708 0.190027L17.006 0.211139C16.9304 0.232253 16.8547 0.253369 16.7683 0.285039C16.7467 0.295596 16.7251 0.306155 16.7035 0.306155L16.5414 0.369494C16.509 0.380051 16.4874 0.39061 16.4442 0.411724C16.401 0.432838 16.3469 0.453952 16.3037 0.464509L16.2173 0.506737C16.1525 0.538407 16.0768 0.570078 16.012 0.612306L15.958 0.643976L15.7203 0.781218C15.7095 0.791775 15.6987 0.80233 15.6879 0.80233L15.6987 0.791773C15.6771 0.80233 15.6663 0.812889 15.6555 0.823446L15.6014 0.855115C15.5582 0.886786 15.5258 0.907901 15.4826 0.929015L15.4178 0.9818C15.3421 1.03458 15.2665 1.08737 15.2017 1.15071C15.1909 1.16127 15.1801 1.16127 15.1801 1.17182C15.1693 1.18238 15.1693 1.18238 15.1585 1.18238L15.072 1.25628L14.9856 1.31962C14.9748 1.33018 14.964 1.34074 14.9532 1.34074C14.9316 1.35129 14.9208 1.36185 14.91 1.38296C14.8559 1.43575 14.7911 1.48853 14.7371 1.53076L14.6939 1.57299L14.5858 1.67856L14.4994 1.77357C14.4778 1.79469 14.4562 1.8158 14.4454 1.83692C14.4022 1.8897 14.3481 1.94248 14.3049 1.98471L14.2509 2.04805L14.1537 2.17474C14.1321 2.20641 14.1104 2.22752 14.0888 2.26975C14.078 2.28031 14.078 2.28031 14.078 2.29086L14.0456 2.32253C14.0456 2.32253 14.024 2.35421 14.0132 2.36476L13.916 2.502L13.8836 2.54423C13.8728 2.55479 13.8619 2.56535 13.8619 2.5759C13.8187 2.63925 13.7755 2.71314 13.7323 2.78704L13.7107 2.81871C13.6675 2.89261 13.6134 2.97707 13.581 3.06152C13.5702 3.07208 13.5702 3.07208 13.5702 3.08264C13.5594 3.10375 13.5486 3.12486 13.5378 3.13542C13.5054 3.19876 13.473 3.2621 13.4406 3.336L13.4082 3.39935L13.3758 3.46269C13.3433 3.52603 13.3217 3.58937 13.3001 3.65271C13.3001 3.66327 13.2893 3.66327 13.2893 3.66327L13.2677 3.71605L13.2353 3.81107L13.1921 3.92719C13.1813 3.93775 13.1813 3.94831 13.1813 3.95886L13.1597 4.01165L13.0948 4.23335L13.0732 4.28613L13.0624 4.30725V4.28613V4.29669C13.0408 4.3917 13.0192 4.48671 12.9976 4.59228V4.62396C12.976 4.71897 12.9652 4.81398 12.9544 4.90899C12.9436 4.94066 12.9436 4.97234 12.9436 5.00401C12.9328 5.06735 12.922 5.14125 12.922 5.21515C12.9112 5.24682 12.9112 5.27849 12.9112 5.31016C12.9004 5.40517 12.9004 5.50018 12.9004 5.59519V29L13.0732 28.9894L16.8655 28.7783V14.7586H19.8367V10.8948H16.9628V5.64798C16.9628 4.83509 17.6327 4.18056 18.4322 4.18056H20.2581L20.3986 0.791773L20.377 0.717876L20.3986 0.475064ZM0 0.654533V24.925H3.96519V0.897343L0.172869 0.665091L0 0.654533ZM10.7287 4.03276L10.7179 3.96942V3.95886L10.6963 3.81107V3.80051C10.6855 3.76884 10.6855 3.74773 10.6747 3.72661C10.6639 3.7055 10.6639 3.68438 10.6531 3.67383L10.6315 3.61049L10.599 3.52603C10.599 3.52603 10.5774 3.47324 10.5666 3.44157C10.5558 3.43102 10.5558 3.42046 10.5558 3.4099C10.545 3.38879 10.5342 3.37823 10.5342 3.35712C10.5126 3.31489 10.491 3.27266 10.4802 3.23043L10.4478 3.17765C10.4262 3.14598 10.4154 3.12487 10.3938 3.10375C10.383 3.08264 10.3721 3.06152 10.3613 3.05097L10.3397 3.01929C10.3073 2.96651 10.2641 2.91373 10.2209 2.8715L10.1885 2.82927L10.0912 2.7237L10.0696 2.70259L10.0372 2.67092C10.0264 2.66036 10.0156 2.66036 10.0156 2.6498C9.98319 2.61813 9.96159 2.59702 9.91837 2.5759L9.88595 2.54423C9.86435 2.52312 9.83193 2.502 9.81032 2.49145C9.77791 2.47033 9.7563 2.44922 9.73469 2.43866C9.72389 2.4281 9.71309 2.41755 9.70228 2.41755C9.66987 2.39643 9.63746 2.37532 9.60504 2.36476C9.59424 2.35421 9.58343 2.34365 9.57263 2.34365L9.51861 2.31198C9.47539 2.29087 9.43217 2.26975 9.38896 2.25919C9.38896 2.25919 9.37815 2.25919 9.37815 2.24864C9.35654 2.23808 9.34574 2.22752 9.32413 2.22752L9.18367 2.17474L9.12965 2.15362C9.11885 2.14307 9.10804 2.14307 9.09724 2.14307C9.04322 2.12195 8.9892 2.1114 8.92437 2.10084C8.90276 2.09028 8.88115 2.09028 8.85954 2.09028C8.82713 2.07973 8.80552 2.07972 8.78391 2.07972C8.76231 2.06917 8.7407 2.06917 8.71909 2.06917L8.65426 2.05861H8.64346C8.57863 2.04805 8.51381 2.04805 8.43818 2.04805L8.21128 2.05861L8.13566 2.06917L7.9952 2.09028L7.90876 2.11139L7.78992 2.14307H7.77911C7.7467 2.15362 7.72509 2.16418 7.68187 2.17474L7.57383 2.21696L7.4874 2.25919C7.46579 2.26975 7.45498 2.28031 7.43337 2.28031C7.41177 2.29086 7.40096 2.30142 7.37935 2.30142L7.29292 2.35421L7.19568 2.40699C7.19568 2.40699 7.18487 2.40699 7.18487 2.41755C7.15246 2.43866 7.13085 2.45978 7.10924 2.47033L7.02281 2.53367L6.94718 2.59702C6.93638 2.60757 6.92557 2.60757 6.92557 2.61813L6.86074 2.67092L6.79592 2.73426L6.78511 2.74481C6.7527 2.77648 6.73109 2.7976 6.70948 2.82927C6.68788 2.85038 6.67707 2.8715 6.66627 2.88205L6.64466 2.90317C6.63385 2.92428 6.62305 2.93484 6.61225 2.9454C6.60144 2.96651 6.59064 2.97707 6.57983 2.98762L6.54742 3.02985C6.53661 3.04041 6.52581 3.05097 6.52581 3.07208C6.5042 3.10375 6.4934 3.12487 6.47179 3.14598C6.46098 3.15654 6.46098 3.15653 6.46098 3.16709C6.43938 3.19876 6.42857 3.21988 6.41777 3.25155C6.40696 3.26211 6.40696 3.27266 6.39616 3.29378L6.36375 3.35712L6.32053 3.44157C6.29892 3.47324 6.28812 3.51547 6.27731 3.54714C6.26651 3.57881 6.2557 3.59993 6.2449 3.64215L6.22329 3.7055C6.21249 3.72661 6.21249 3.73717 6.21249 3.75828C6.20168 3.7794 6.20168 3.78995 6.20168 3.81107C6.19088 3.82162 6.19088 3.83218 6.19088 3.85329L6.18007 3.88497C6.16927 3.91664 6.16927 3.93775 6.16927 3.97998V3.99054C6.15846 4.02221 6.15846 4.05388 6.15846 4.08555V4.11722C6.14766 4.17 6.14766 4.23335 6.14766 4.28613L6.15846 4.48671L6.16927 4.5395L6.20168 4.71897C6.20168 4.72952 6.20168 4.74008 6.21249 4.74008C6.22329 4.80342 6.2449 4.86676 6.26651 4.93011C6.27731 4.95122 6.27731 4.96178 6.28812 4.97233C6.30972 5.02512 6.32053 5.0779 6.34214 5.12013L6.36375 5.1518C6.38535 5.20459 6.41777 5.26793 6.45018 5.32072C6.46098 5.33127 6.47179 5.35239 6.47179 5.36294L6.51501 5.42629C6.53661 5.4474 6.54742 5.46851 6.55822 5.48962C6.56903 5.50018 6.57983 5.51074 6.57983 5.5213C6.61225 5.57408 6.65546 5.62687 6.69868 5.66909L6.73109 5.70076L6.83914 5.81689L6.86074 5.83801L7.0012 5.96469L7.03361 5.99636C7.07683 6.02803 7.13085 6.0597 7.17407 6.10193C7.18487 6.11249 7.19568 6.11249 7.19568 6.12304C7.2497 6.15471 7.30372 6.18639 7.36855 6.21806L7.40096 6.23917C7.45498 6.27084 7.509 6.29196 7.57383 6.31307L7.59544 6.32363L7.77911 6.38697C7.78992 6.39752 7.80072 6.39752 7.82233 6.39752L8.01681 6.45031L8.22209 6.48198L8.26531 6.49254C8.33013 6.50309 8.40576 6.50309 8.47059 6.50309L8.69748 6.49254L8.72989 6.48198C8.79472 6.47143 8.85954 6.46087 8.91357 6.45031C8.93517 6.43975 8.95678 6.43975 8.96759 6.4292C9.02161 6.41864 9.07563 6.40808 9.11885 6.38697C9.14046 6.37641 9.16207 6.36586 9.18367 6.36586C9.22689 6.34474 9.28091 6.33418 9.31333 6.31307L9.38896 6.2814C9.43217 6.26028 9.46459 6.23917 9.5078 6.22861L9.58343 6.18639C9.62665 6.16527 9.65906 6.14416 9.69148 6.12304C9.71309 6.10193 9.73469 6.09137 9.76711 6.07026C9.79952 6.04914 9.83193 6.02803 9.86435 5.99636C9.88595 5.97525 9.90756 5.95413 9.92917 5.94358C9.96159 5.91191 9.98319 5.89079 10.0156 5.86968L10.0804 5.80633C10.1128 5.77466 10.1345 5.75355 10.1561 5.72188C10.1777 5.70077 10.1993 5.66909 10.2101 5.64798L10.2749 5.55297C10.2965 5.5213 10.3181 5.50018 10.3289 5.47907C10.3505 5.4474 10.3721 5.41573 10.383 5.38406C10.4046 5.35238 10.4154 5.33127 10.4262 5.2996C10.4478 5.26793 10.4586 5.23626 10.4802 5.19403L10.5234 5.09902C10.5342 5.06735 10.5558 5.03568 10.5666 4.99345L10.599 4.89844L10.6315 4.79287C10.6423 4.7612 10.6531 4.72953 10.6531 4.6873L10.6747 4.57117C10.6855 4.5395 10.6855 4.50783 10.6855 4.4656V4.42337C10.6963 4.37059 10.6963 4.3178 10.6963 4.27557C10.7395 4.18056 10.7395 4.10666 10.7287 4.03276ZM6.48259 7.51656V24.925H10.4478V7.59046L6.48259 7.36877V7.51656Z" fill="#797979" fill-opacity="0.7"/>
</svg>
