<svg width="94" height="41" viewBox="0 0 94 41" fill="none" xmlns="http://www.w3.org/2000/svg">
<path d="M79.7689 26.4043C45.554 23.6826 17.3268 32.1012 10.888 35.1702C7.3631 36.8502 7.08111 38.8681 7.5511 40.0037C7.95528 40.9704 9.62843 41.449 11.5084 40.4354C25.1285 33.1055 52.6132 27.1645 79.7219 28.8257C81.0472 28.9102 81.6676 26.5545 79.7689 26.4043ZM88.3226 16.0523C86.828 17.751 84.7695 18.9618 84.0645 18.3517C83.3596 17.7323 84.0833 15.8552 84.0833 15.8552C87.439 13.7623 94 8.10291 94 3.7575C94 -0.259427 90.5503 -1.47952 86.6964 2.19953C84.0739 4.70542 81.6582 9.32301 80.2859 13.9781C78.3307 15.9303 75.3134 18.3986 72.5311 18.3986C71.1024 18.3986 70.6794 17.385 70.811 16.0241C73.2173 15.8927 79.6655 14.0438 79.6655 8.60034C79.5715 6.21646 77.7291 5.32485 76.0842 5.32485C73.1609 5.32485 69.3634 8.37509 67.5117 12.6548C67.0229 12.5703 66.5247 12.4014 66.0735 12.0917C66.6657 10.7777 67.0511 9.61395 67.1639 8.80681C67.4647 6.62003 66.5999 5.11837 64.8046 5.19346C63.6484 5.24038 62.2479 6.27277 61.9001 8.78804C61.6651 10.4962 62.5487 12.2982 62.5487 12.2982C61.7121 14.8791 58.5256 18.0608 57.3882 18.0326C56.3543 18.0044 57.6044 13.3869 58.6854 10.0175C59.3622 9.29485 59.9355 8.4971 60.1047 7.80258C60.3867 6.67634 59.9543 6.17892 59.6066 5.92551C58.7888 5.33424 56.5517 5.53133 55.3015 7.74627C54.9819 8.31878 54.5401 9.22915 54.0983 10.3366C53.1678 11.4347 51.8142 12.9364 51.3724 12.6736C50.6957 12.27 52.7166 9.49194 52.5004 7.89644C52.303 6.45109 51.1562 5.71903 49.9155 5.88797C48.1671 6.1226 45.789 9.79227 45.789 9.79227C45.789 9.79227 46.2684 8.69419 46.2308 7.73688C46.1838 6.41355 43.5989 5.75658 42.4145 8.26246C41.9821 9.18223 41.2396 12.3357 40.5722 15.461C39.98 16.5497 38.0531 19.8346 36.4833 20.0035C35.1956 20.1443 36.7653 14.1658 36.9439 13.8655C37.6301 12.7487 38.5795 10.4023 38.4667 9.33239C38.3163 7.94336 37.4139 7.63365 36.4927 7.80258C35.1956 8.03722 34.5188 9.39809 34.5188 9.39809C34.5188 9.39809 33.7104 8.28123 32.0655 8.45956C26.6607 9.04145 23.1546 18.4643 23.5964 23.1007C23.822 25.5033 25.0815 26.9862 27.0366 26.761C29.4618 26.4794 31.3417 22.913 31.3417 22.913C31.3417 22.913 31.8963 25.7474 34.4154 25.3626C36.1355 25.0998 37.8369 23.6357 39.2562 22.0214C39.1998 22.3311 39.1622 22.547 39.1434 22.6314C38.7862 24.9684 42.7059 24.8088 42.9691 22.8567C44.2099 13.8655 47.246 10.0738 48.1295 10.0738C48.8627 10.0738 46.165 14.3442 47.7535 16.0805C49.0225 17.4695 51.0528 16.3151 52.7072 14.8604C52.4534 16.0335 52.2842 17.2348 52.256 18.4174C52.1996 20.9984 53.1396 23.0444 55.6211 22.9224C58.9298 22.7628 62.3701 18.7365 64.626 14.8604C65.1336 15.217 65.7821 15.5173 66.5811 15.6769C66.4119 16.6154 66.3461 17.5821 66.4025 18.5676C66.5717 21.5615 68.6396 22.6596 70.9708 22.6033C73.7625 22.5376 76.949 20.4071 79.2801 18.4737L79.2331 18.8116C79.0639 20.1818 79.2707 22.8848 81.2916 23.0631C83.6979 23.279 87.7586 20.867 89.7701 18.2672C91.2741 16.3526 89.5163 14.7008 88.3226 16.0523ZM90.4563 3.66365C90.6725 3.66365 90.7853 3.83258 90.7853 4.17045C90.7853 6.73265 84.4593 12.1761 84.4593 12.1761C84.4593 12.1761 88.614 3.66365 90.4563 3.66365ZM75.2194 9.12591C75.7364 9.12591 76.0278 9.42625 76.0278 9.94244C76.0278 11.3033 74.1197 12.392 71.9765 12.5516C72.9541 10.7027 74.2983 9.12591 75.2194 9.12591ZM32.8456 13.0771C32.6483 14.6351 29.9975 21.4583 28.5594 21.4958C26.7171 21.5427 29.4712 11.7257 32.4321 11.8007C32.9584 11.8101 32.949 12.2606 32.8456 13.0771ZM9.72242 14.9448C11.499 14.9636 8.36887 24.1237 8.70726 28.1125C9.04564 32.1294 13.5293 30.975 13.2379 28.6568C12.7585 24.7244 15.3904 12.4014 18.0693 12.4014C19.9493 12.4014 15.992 20.8951 16.7722 26.3386C17.2892 29.9426 21.9608 28.685 21.4908 26.5545C19.9211 19.4873 24.7901 12.7017 24.2449 7.89644C24.0099 5.79412 22.7316 4.76173 21.4532 4.75235C16.9884 4.7148 13.5387 13.8092 13.5387 13.8092C13.5387 13.8092 13.8959 8.64726 10.4274 8.45017C5.11658 8.15922 -0.147247 21.355 0.00314776 33.143C0.0501462 36.9065 4.75939 36.2589 4.515 33.265C4.05441 27.6901 7.18451 14.9167 9.72242 14.9448Z" fill="#797979" fill-opacity="0.7"/>
</svg>
