<svg width="32" height="32" viewBox="0 0 32 32" fill="none" xmlns="http://www.w3.org/2000/svg">
<path d="M16 0C7.164 0 0 7.164 0 16C0 24.836 7.164 32 16 32C24.836 32 32 24.836 32 16C32 7.162 24.836 0 16 0ZM17.248 20.326C16.078 20.236 15.588 19.656 14.672 19.098C14.168 21.742 13.552 24.278 11.728 25.6C11.164 21.606 12.554 18.606 13.2 15.42C12.1 13.566 13.332 9.84 15.652 10.758C18.506 11.888 13.178 17.644 16.756 18.362C20.49 19.114 22.016 11.882 19.7 9.53C16.352 6.134 9.96 9.452 10.746 14.314C10.938 15.502 12.164 15.862 11.236 17.504C9.094 17.03 8.454 15.34 8.536 13.088C8.668 9.402 11.848 6.822 15.038 6.464C19.072 6.012 22.856 7.944 23.38 11.738C23.97 16.02 21.56 20.66 17.248 20.326Z" fill="#E25447" fill-opacity="0.5"/>
</svg>
