<svg width="60" height="62" viewBox="0 0 60 62" fill="none" xmlns="http://www.w3.org/2000/svg">
<path d="M18.3774 34.2683C18.3774 34.2683 20.0529 30.7407 16.9352 28.1492C13.8051 25.5515 9.2267 26.8596 7.50825 27.988C5.78367 29.1164 6.3974 30.3563 6.56924 30.5237C6.74723 30.7035 7.14615 30.9267 8.99348 30.2075C8.99348 30.2075 4.25548 35.6385 1.99695 47.1762C1.99695 47.1762 1.62257 50.0281 2.6966 50.1583C3.76449 50.2823 4.41505 48.658 4.78943 47.666C4.949 47.2444 11.9148 30.9701 10.6444 30.0835C10.6444 30.0835 14.9958 29.8417 15.4683 32.83C15.9471 35.8121 11.3686 38.1246 10.0307 38.3974C8.68048 38.664 8.71117 39.2095 8.79709 39.2839C8.88301 39.3583 9.17146 39.7489 10.9083 39.4823C12.6452 39.2157 16.6406 38.0006 18.3774 34.2683ZM25.3494 27.7152C25.2574 26.3389 24.9321 26.2149 24.4595 26.2769C23.9992 26.3389 23.944 26.9836 23.944 26.9836C20.5991 31.4351 20.2125 32.8672 20.0406 34.2001C19.8749 35.5331 20.5194 37.2132 21.5688 37.2194C22.6122 37.2318 22.293 36.3205 22.293 36.3205C22.2746 36.0973 23.2014 33.9212 23.6923 33.0346C24.7848 31.1065 25.4537 29.104 25.3494 27.7152ZM43.4667 34.6775C43.3501 34.4791 43.0678 34.3737 42.7425 34.5101C42.4173 34.6465 41.1959 34.9131 40.4963 34.9937C39.7844 35.0805 38.1825 34.9379 35.1937 34.4233C32.2048 33.9088 29.6946 34.4109 29.6946 34.4109L33.4629 30.8089C33.4629 30.8089 35.8258 28.1864 36.1327 27.2378C36.4273 26.2893 35.7644 25.8243 35.3164 25.7685C34.8684 25.7127 31.456 25.8119 30.3145 25.9917C29.173 26.1839 28.3506 26.0785 27.7 26.0351C27.0494 25.9917 26.7794 26.5559 26.7794 26.5559C26.135 27.9012 28.4672 28.2112 28.4672 28.2112C30.0076 28.3724 32.8185 27.7772 32.8185 27.7772C28.0069 31.7512 25.4353 34.1505 24.9321 34.9503C24.5884 35.5083 24.0728 36.5127 24.7418 37.2876C25.4108 38.0564 26.9697 37.2256 26.9697 37.2256C28.9459 36.6428 32.5546 36.6986 32.5546 36.6986C32.5546 36.6986 34.4265 36.68 37.6363 36.7916C40.8461 36.9094 42.5523 35.7873 43.0433 35.4835C43.5404 35.1735 43.5956 34.8759 43.4667 34.6775ZM47.4069 31.2491C47.2903 30.8771 46.8545 31.0073 46.7563 31.0383C46.6704 31.0569 46.517 31.0817 45.8173 31.1871C45.1177 31.2925 43.074 30.9453 42.7241 30.9019C42.3682 30.8585 41.1039 30.7221 41.1039 30.7221C41.2635 30.6663 45.756 26.0103 45.756 26.0103C45.756 26.0103 47.1062 24.5533 46.3636 23.7598C45.4859 22.8422 43.8718 23.0964 43.8718 23.0964C43.8718 23.0964 38.6735 23.859 38.3912 23.8032C38.0782 23.7598 37.9309 23.6792 37.7222 23.6792C37.5136 23.6916 37.2312 23.828 37.1024 23.952C36.6543 24.3735 36.9428 25.1237 36.9428 25.1237C37.0348 25.4833 37.446 25.8553 37.7775 25.9917C38.5017 26.2955 42.9021 25.7375 42.9021 25.7375L37.7161 30.0153C37.7161 30.0153 36.4211 30.9577 35.9608 32.2224C35.5005 33.4934 36.3045 33.543 36.4211 33.5306C36.5132 33.5306 37.3601 33.3074 38.1702 33.2454C38.9681 33.1834 41.153 33.2764 41.9263 33.3322C42.7119 33.3632 44.5592 33.3136 45.8296 32.7494C47.0816 32.1914 47.5358 31.6273 47.4069 31.2491ZM23.3302 47.976C23.2995 48.1248 22.7656 50.0033 22.7226 51.3239C22.6674 52.6444 23.2382 53.2148 23.8028 53.2582C24.3797 53.3016 24.9628 52.88 25.4476 52.1484C25.9263 51.4169 27.1661 45.9859 27.1661 45.9859L28.952 44.8141C28.952 44.8141 29.4123 44.4545 29.2466 44.1693C29.0809 43.8966 28.7863 44.0454 28.7863 44.0454L27.522 44.5227C27.522 44.5227 28.326 39.8109 28.4549 39.0174C28.5776 38.2238 27.9087 38.1928 27.743 38.1928C27.5773 38.1928 27.2397 38.2548 26.2393 39.9659C25.2267 41.677 24.1588 45.4527 24.1588 45.4527L19.5619 46.4323C19.5619 46.4323 22.649 38.4966 21.0901 38.5524C19.5312 38.6082 15.7875 47.2382 15.7875 47.2382C15.7875 47.2382 13.9463 47.4738 12.86 47.6722C12.86 47.6722 12.0621 47.7962 11.9701 48.4038C11.8842 48.9928 12.2033 49.3647 12.2033 49.3647C12.5715 49.8855 14.7135 50.1149 14.7135 50.1149C14.2347 51.6028 13.6272 54.1943 13.6333 54.9879C13.6456 55.7815 13.7806 57.1144 14.7319 57.226C15.4315 57.3128 16.3092 56.8354 16.7204 56.1039C17.1377 55.3723 18.5309 49.7243 18.5309 49.7243C19.1691 49.6561 23.3302 47.976 23.3302 47.976ZM55.8089 48.1434C55.723 47.7218 55.3486 47.8024 55.3486 47.8024C55.3486 47.8024 53.624 47.9202 49.8495 48.3604C47.8488 48.5898 45.1484 49.2469 43.0555 49.8111L44.3076 46.0603L46.1058 41.1439C46.7932 41.0261 53.311 38.385 53.311 38.385C53.311 38.385 53.98 38.0874 53.9186 37.827C53.8449 37.5108 53.4583 37.6038 53.4583 37.6038L47.1307 38.8066L48.0084 37.0086C48.0084 37.0086 48.4871 35.9423 47.8181 35.4773C47.1491 35.0247 46.7318 35.5951 46.7318 35.5951C46.3451 35.9547 44.2339 39.4079 44.2339 39.4079C44.2339 39.4079 42.8346 39.6621 42.5523 39.7055C42.27 39.7489 41.9754 39.6869 41.9754 39.6869C41.4598 39.4203 40.3244 39.6435 40.3858 40.6603L43.1353 41.6646V41.6956C43.1353 41.6956 42.1227 44.3987 41.8465 45.9673C41.5765 47.5296 41.7115 49.8545 41.7299 50.0157C41.7299 50.0529 41.7422 50.1087 41.7606 50.1769C40.5883 50.5055 39.815 50.7473 39.815 50.7473L36.059 51.981L24.9996 56.4077C24.9996 56.4077 20.7955 58.311 19.2244 58.8504C17.5182 59.4331 17.8619 60.6483 17.8619 60.6483C17.954 61.1877 18.1872 61.7394 19.3655 61.9502C20.5378 62.161 21.98 61.634 21.98 61.634C21.98 61.634 33.7146 56.4263 34.629 56.0543C35.5926 55.6451 43.7368 52.1236 55.2872 48.627C55.2995 48.6208 55.8825 48.534 55.8089 48.1434ZM59.9638 28.484C59.9086 28.2732 58.7732 28.1368 58.3559 28.0934C57.9385 28.0624 57.5703 27.8516 57.3923 27.3618C57.2266 26.8968 57.8342 25.4275 58.1042 24.3921C58.3865 23.3568 57.8219 22.9848 57.4966 22.9538C57.1836 22.9228 56.7847 23.2204 56.7847 23.2204C52.5929 22.3338 47.8426 26.81 47.5665 28.8002C47.3701 30.2447 47.7751 31.2739 48.9658 31.5281C50.1503 31.7822 51.2243 31.3483 52.1572 30.9763C53.0778 30.6291 54.919 29.1908 54.919 29.1908C55.0969 29.6433 56.0912 30.1021 56.9995 30.1331C57.9078 30.1765 59.4913 29.4387 59.7613 29.2465C60.0375 29.0668 60.0252 28.6948 59.9638 28.484ZM54.5753 26.6551C54.4832 26.9092 54.4525 27.2874 54.4525 27.2874C54.4525 27.2874 52.9796 28.143 52.3106 28.4096C51.6171 28.6824 50.7701 28.6328 50.7701 28.6328C51.6171 25.7251 55.2258 25.1547 55.2258 25.1547C55.2258 25.1547 54.6673 26.4133 54.5753 26.6551ZM25.4046 24.045C26.1473 23.3816 28.3567 19.9345 28.5101 19.6493C28.6697 19.3641 28.7802 19.048 28.5838 18.8372C28.3874 18.6264 27.9025 18.8682 27.9025 18.8682C27.9025 18.8682 26.8653 19.172 25.5826 19.9779C24.2877 20.7901 23.6555 22.0052 23.4714 22.4392C23.2811 22.8732 23.2075 23.9086 23.7414 24.2124C24.2692 24.5347 24.9382 24.4603 25.4046 24.045ZM39.68 41.2493C39.2934 40.2015 38.3851 40.9021 38.3851 40.9021C37.937 41.2617 36.9612 43.2704 36.9612 43.2704C36.1633 44.6095 32.2539 47.077 32.2539 47.077C32.7449 45.7999 32.8369 44.5847 32.7694 43.8408C32.6958 43.103 32.0882 42.0242 31.1983 41.8568C30.3206 41.677 29.443 41.9188 29.2527 42.142C29.0441 42.3714 29.1177 42.5946 29.5535 42.8302C29.9954 43.0534 30.204 43.537 30.204 43.537C30.2961 43.7354 30.1917 44.0639 30.1856 44.1259C30.1733 44.1817 29.3878 46.5686 29.3878 46.5686C29.3878 46.5686 28.7004 48.8626 29.6885 49.6003C30.6827 50.3505 31.364 50.2761 32.9413 49.5569L36.3904 46.1099C36.3352 47.9388 37.3724 48.844 37.9677 49.3337C38.563 49.8173 38.9804 49.6809 38.9804 49.6809C39.5757 49.3337 39.2013 48.8068 39.1461 48.7014C39.0908 48.6084 39.1154 45.3969 39.41 43.7354C39.7107 42.0738 39.68 41.2493 39.68 41.2493ZM17.911 11.7633C17.9846 11.7943 18.0706 11.7819 18.0767 11.7447C18.0951 11.7137 21.9248 6.05948 21.9248 6.05948L29.8726 4.16856C29.8726 4.16856 36.9428 1.93045 37.0594 1.87465C37.1821 1.83125 37.759 1.57706 37.5627 0.975687C37.354 0.374311 36.7771 0.467308 36.7771 0.467308L33.733 1.26088C33.733 1.26088 21.9739 4.66454 21.5136 4.81333C21.041 4.96213 20.9305 5.30931 20.9305 5.30931C19.7276 7.36143 17.8864 11.1867 17.8128 11.4161C17.733 11.6393 17.8251 11.7323 17.911 11.7633ZM40.4779 5.02412C40.4779 5.02412 40.8645 7.59082 41.0732 8.0806C41.2941 8.56418 42.8101 9.07256 42.8101 9.07256C45.8357 9.80413 57.4721 14.0262 57.4721 14.0262C57.4721 14.0262 58.2024 14.3114 58.3374 14.3238C58.4725 14.3362 58.8898 14.2618 59.0494 13.8464C59.2151 13.4248 58.8714 13.0838 58.8407 13.0652C58.81 13.0466 58.5032 12.8978 58.5032 12.8978C55.2688 11.2053 48.9228 8.95477 48.6098 8.87417C48.3091 8.78737 42.448 7.07004 42.448 7.07004C42.448 7.07004 40.7295 2.24664 40.619 1.91805C40.5147 1.58946 39.7107 0.101522 39.7107 0.101522C39.7107 0.101522 39.6371 -0.0348721 39.545 0.00852615C39.4529 0.0519244 39.4898 0.15732 39.4898 0.15732L40.4779 5.02412ZM22.8577 20.3065L24.1465 20.0771C24.4411 19.8043 24.7664 19.5253 25.1592 19.2836C26.3805 18.5148 27.3993 18.1738 27.6264 18.0994C28.1051 17.8886 28.7433 17.8266 29.1668 18.2668C29.3571 18.459 29.5228 18.7504 29.5044 19.1658L30.026 19.079L30.0383 19.0666C36.7832 17.8948 51.6355 16.9028 51.6355 16.9028C52.1817 16.816 53.6547 16.3201 53.3724 14.8507C53.1514 13.6976 51.2304 13.6356 50.9481 13.6666C50.6658 13.6852 31.4622 16.2457 30.1856 16.4565C23.2382 17.6096 11.3134 20.6289 11.3134 20.6289L3.99771 22.805C4.13273 22.5322 9.98159 18.3536 10.3253 18.0932C10.669 17.8266 17.4507 13.6232 17.4507 13.6232C17.4507 13.6232 17.9969 13.4124 17.8189 13.0714C17.6716 12.7676 17.3893 12.8606 17.3893 12.8606C17.3893 12.8606 16.972 13.0404 15.7568 13.555C13.4062 14.5717 9.62562 16.8594 9.62562 16.8594C6.64289 18.5396 0.388975 23.6668 0.388975 23.6668C0.388975 23.6668 -0.230893 24.0884 0.0943842 24.8509C0.407387 25.6197 1.25434 25.5267 1.25434 25.5267L10.3314 23.053C11.0065 22.743 22.8577 20.3065 22.8577 20.3065ZM55.8948 50.8837V50.8713C56.0298 50.8403 56.1342 50.7473 56.1342 50.5737C56.1342 50.4559 56.0912 50.3815 56.0175 50.3195C55.9439 50.2637 55.8273 50.2327 55.6432 50.2327C55.4959 50.2327 55.4038 50.2451 55.3056 50.2637V51.4789H55.4959V50.9581H55.6309C55.7905 50.9581 55.858 51.0201 55.8948 51.1813C55.9132 51.3425 55.95 51.4541 55.9807 51.4851H56.1771C56.1587 51.4541 56.1219 51.3797 56.1035 51.1875C56.0728 51.0015 55.9991 50.9085 55.8948 50.8837ZM55.6309 50.8093H55.4959V50.4001C55.5266 50.3877 55.5695 50.3877 55.6309 50.3877C55.8518 50.3877 55.9316 50.4931 55.9316 50.5985C55.9316 50.7473 55.7905 50.8093 55.6309 50.8093ZM55.7045 49.7553H55.6923C55.1092 49.7553 54.6244 50.2389 54.6244 50.8527C54.6244 51.4789 55.1031 51.95 55.6923 51.95C56.2999 51.95 56.7724 51.4727 56.7724 50.8527C56.7724 50.2389 56.2999 49.7553 55.7045 49.7553ZM55.7045 51.7826C55.2258 51.7826 54.8269 51.3735 54.8269 50.8527C54.8269 50.3319 55.2258 49.9227 55.6923 49.9227H55.7045C56.1833 49.9227 56.5699 50.3319 56.5699 50.8527C56.5699 51.3735 56.1833 51.7826 55.7045 51.7826Z" fill="#797979" fill-opacity="0.7"/>
</svg>
