<svg width="45" height="45" viewBox="0 0 45 45" fill="none" xmlns="http://www.w3.org/2000/svg">
<g clip-path="url(#clip0)">
<path d="M29.2457 2.21528C26.9174 1.40435 24.4686 0.991609 22.0028 0.994522C9.87048 0.994522 1.91689e-05 10.8645 1.91689e-05 22.9973C-0.00337992 25.5684 0.445299 28.1202 1.32566 30.536C1.49028 30.9876 1.98994 31.2202 2.44153 31.0551C2.89313 30.8904 3.12524 30.3908 2.96062 29.9392C2.15018 27.7147 1.73744 25.365 1.74035 22.9973C1.74035 11.8245 10.83 2.73485 22.0028 2.73485C24.2734 2.73194 26.5284 3.11167 28.6728 3.85849C28.9665 3.96289 29.2943 3.90171 29.5308 3.69825C29.7673 3.49528 29.877 3.18062 29.8182 2.87422C29.7595 2.56781 29.541 2.31628 29.2457 2.21528Z" fill="#E25447"/>
<path d="M10.491 39.6742L13.2467 35.9342C13.4536 35.6535 13.473 35.2767 13.2957 34.9761C13.119 34.676 12.7801 34.5105 12.4343 34.5551L5.6041 35.4418C5.36908 35.4724 5.15639 35.5977 5.01557 35.7885C4.87476 35.9793 4.81794 36.2197 4.85825 36.4533L6.03481 43.2398C6.09454 43.5831 6.35336 43.8579 6.69229 43.9376C7.03172 44.0177 7.38619 43.8876 7.59257 43.6074L9.45721 41.076C13.136 43.6438 17.5169 45.0141 22.0027 45C34.1355 45 44.0055 35.1301 44.0055 22.9973C44.0113 20.0872 43.4354 17.2052 42.3123 14.5204C42.1943 14.231 41.9296 14.0266 41.6198 13.9858C41.3095 13.9455 41.0012 14.0742 40.8128 14.3233C40.6239 14.5729 40.5831 14.9045 40.7065 15.192C41.7407 17.6641 42.2705 20.3178 42.2652 22.9973C42.2652 34.1701 33.1755 43.2597 22.0027 43.2597C17.8889 43.2723 13.8702 42.021 10.491 39.6742ZM7.40173 40.9333L6.72871 37.051L10.6362 36.5436L8.5817 39.3323C8.57927 39.3347 8.57733 39.3372 8.57539 39.3396C8.57344 39.342 8.56956 39.3483 8.56616 39.3527L7.40173 40.9333Z" fill="#E25447"/>
<path d="M38.6661 0C38.1853 0 37.7959 0.389438 37.7959 0.870166V5.46379H32.942C32.4613 5.46379 32.0718 5.85322 32.0718 6.33395C32.0718 6.81468 32.4613 7.20412 32.942 7.20412H37.7959V12.058C37.7959 12.5387 38.1853 12.9282 38.6661 12.9282C39.1468 12.9282 39.5362 12.5387 39.5362 12.058V7.20412H44.1298C44.6106 7.20412 45 6.81468 45 6.33395C45 5.85322 44.6106 5.46379 44.1298 5.46379H39.5362V0.870166C39.5362 0.389438 39.1468 0 38.6661 0Z" fill="#E25447"/>
<path d="M22.046 31.204C22.0314 31.2031 22.0173 31.2016 22.0028 31.2016C21.9882 31.2016 21.9741 31.2031 21.9596 31.204C19.9225 31.1783 18.2842 29.521 18.2817 27.484C18.2817 27.0032 17.8923 26.6138 17.4116 26.6138C16.9309 26.6138 16.5414 27.0032 16.5414 27.484C16.5453 30.1629 18.4886 32.4447 21.1326 32.8749V34.8066C21.1326 35.2873 21.522 35.6767 22.0028 35.6767C22.4835 35.6767 22.8729 35.2873 22.8729 34.8066V32.8749C25.683 32.4214 27.6734 29.8847 27.4457 27.0474C27.2184 24.2102 24.8493 22.0231 22.0028 22.0226C19.9478 22.0226 18.2817 20.3571 18.2817 18.3016C18.2817 16.2466 19.9478 14.5806 22.0028 14.5806C24.0583 14.5806 25.7238 16.2466 25.7238 18.3021C25.7238 18.7823 26.1137 19.1722 26.594 19.1722C27.0747 19.1722 27.4641 18.7823 27.4641 18.3021C27.4607 15.6226 25.5174 13.3404 22.8729 12.9102V11.1878C22.8729 10.7071 22.4835 10.3176 22.0028 10.3176C21.522 10.3176 21.1326 10.7071 21.1326 11.1878V12.9102C18.323 13.3651 16.3336 15.9009 16.5613 18.7381C16.7886 21.5749 19.1568 23.7615 22.0028 23.7625C24.0495 23.7625 25.7117 25.4149 25.7238 27.4616C25.7355 29.5079 24.0922 31.1798 22.046 31.2035V31.204Z" fill="#E25447"/>
</g>
<defs>
<clipPath id="clip0">
<rect width="45" height="45" fill="white"/>
</clipPath>
</defs>
</svg>
