<svg width="88" height="29" viewBox="0 0 88 29" fill="none" xmlns="http://www.w3.org/2000/svg">
<path d="M88 11H78V18H88V11Z" fill="#072139"/>
<path d="M14.16 14.264C15.088 14.568 15.824 15.08 16.368 15.8C16.912 16.504 17.184 17.384 17.184 18.44C17.184 19.896 16.624 21.024 15.504 21.824C14.384 22.608 12.752 23 10.608 23H2.25604V6.19996H10.128C12.112 6.19996 13.64 6.59196 14.712 7.37596C15.784 8.14396 16.32 9.20796 16.32 10.568C16.32 11.4 16.128 12.136 15.744 12.776C15.36 13.416 14.832 13.912 14.16 14.264ZM5.37604 8.64796V13.28H9.79204C10.88 13.28 11.712 13.088 12.288 12.704C12.88 12.304 13.176 11.728 13.176 10.976C13.176 10.208 12.88 9.63196 12.288 9.24796C11.712 8.84796 10.88 8.64796 9.79204 8.64796H5.37604ZM10.416 20.552C12.832 20.552 14.04 19.744 14.04 18.128C14.04 16.512 12.832 15.704 10.416 15.704H5.37604V20.552H10.416ZM28.2898 23.24C26.5938 23.24 25.0578 22.872 23.6818 22.136C22.3218 21.384 21.2498 20.352 20.4658 19.04C19.6978 17.728 19.3138 16.248 19.3138 14.6C19.3138 12.952 19.7058 11.472 20.4898 10.16C21.2738 8.84796 22.3458 7.82396 23.7058 7.08796C25.0818 6.33596 26.6178 5.95996 28.3138 5.95996C29.6898 5.95996 30.9458 6.19996 32.0818 6.67996C33.2178 7.15996 34.1778 7.85596 34.9618 8.76796L32.9458 10.664C31.7298 9.35196 30.2338 8.69596 28.4578 8.69596C27.3058 8.69596 26.2738 8.95196 25.3618 9.46396C24.4498 9.95996 23.7378 10.656 23.2258 11.552C22.7138 12.448 22.4578 13.464 22.4578 14.6C22.4578 15.736 22.7138 16.752 23.2258 17.648C23.7378 18.544 24.4498 19.248 25.3618 19.76C26.2738 20.256 27.3058 20.504 28.4578 20.504C30.2338 20.504 31.7298 19.84 32.9458 18.512L34.9618 20.432C34.1778 21.344 33.2098 22.04 32.0578 22.52C30.9218 23 29.6658 23.24 28.2898 23.24Z" fill="#072139"/>
<path d="M44.7193 22.2319C44.3993 22.5199 43.9993 22.7439 43.5193 22.9039C43.0553 23.0479 42.5673 23.1199 42.0553 23.1199C40.8713 23.1199 39.9593 22.7999 39.3193 22.1599C38.6793 21.5199 38.3593 20.6159 38.3593 19.4479V11.8159H36.1033V10.3759H38.3593V7.61589H40.0633V10.3759H43.9033V11.8159H40.0633V19.3519C40.0633 20.1039 40.2473 20.6799 40.6153 21.0799C40.9993 21.4639 41.5433 21.6559 42.2473 21.6559C42.5993 21.6559 42.9353 21.5999 43.2553 21.4879C43.5913 21.3759 43.8793 21.2159 44.1193 21.0079L44.7193 22.2319ZM58.368 17.2159H47.808C47.904 18.5279 48.408 19.5919 49.32 20.4079C50.232 21.2079 51.384 21.6079 52.776 21.6079C53.56 21.6079 54.28 21.4719 54.936 21.1999C55.592 20.9119 56.16 20.4959 56.64 19.9519L57.6 21.0559C57.04 21.7279 56.336 22.2399 55.488 22.5919C54.656 22.9439 53.736 23.1199 52.728 23.1199C51.432 23.1199 50.28 22.8479 49.272 22.3039C48.28 21.7439 47.504 20.9759 46.944 19.9999C46.384 19.0239 46.104 17.9199 46.104 16.6879C46.104 15.4559 46.368 14.3519 46.896 13.3759C47.44 12.3999 48.176 11.6399 49.104 11.0959C50.048 10.5519 51.104 10.2799 52.272 10.2799C53.44 10.2799 54.488 10.5519 55.416 11.0959C56.344 11.6399 57.072 12.3999 57.6 13.3759C58.128 14.3359 58.392 15.4399 58.392 16.6879L58.368 17.2159ZM52.272 11.7439C51.056 11.7439 50.032 12.1359 49.2 12.9199C48.384 13.6879 47.92 14.6959 47.808 15.9439H56.76C56.648 14.6959 56.176 13.6879 55.344 12.9199C54.528 12.1359 53.504 11.7439 52.272 11.7439ZM73.3804 5.19189V22.9999H71.7484V20.5039C71.2364 21.3519 70.5564 21.9999 69.7084 22.4479C68.8764 22.8959 67.9324 23.1199 66.8764 23.1199C65.6924 23.1199 64.6204 22.8479 63.6604 22.3039C62.7004 21.7599 61.9484 20.9999 61.4044 20.0239C60.8604 19.0479 60.5884 17.9359 60.5884 16.6879C60.5884 15.4399 60.8604 14.3279 61.4044 13.3519C61.9484 12.3759 62.7004 11.6239 63.6604 11.0959C64.6204 10.5519 65.6924 10.2799 66.8764 10.2799C67.9004 10.2799 68.8204 10.4959 69.6364 10.9279C70.4684 11.3439 71.1484 11.9599 71.6764 12.7759V5.19189H73.3804ZM67.0204 21.6079C67.9004 21.6079 68.6924 21.4079 69.3964 21.0079C70.1164 20.5919 70.6764 20.0079 71.0764 19.2559C71.4924 18.5039 71.7004 17.6479 71.7004 16.6879C71.7004 15.7279 71.4924 14.8719 71.0764 14.1199C70.6764 13.3679 70.1164 12.7919 69.3964 12.3919C68.6924 11.9759 67.9004 11.7679 67.0204 11.7679C66.1244 11.7679 65.3164 11.9759 64.5964 12.3919C63.8924 12.7919 63.3324 13.3679 62.9164 14.1199C62.5164 14.8719 62.3164 15.7279 62.3164 16.6879C62.3164 17.6479 62.5164 18.5039 62.9164 19.2559C63.3324 20.0079 63.8924 20.5919 64.5964 21.0079C65.3164 21.4079 66.1244 21.6079 67.0204 21.6079Z" fill="#E25447"/>
</svg>
