<svg width="32" height="32" viewBox="0 0 32 32" fill="none" xmlns="http://www.w3.org/2000/svg">
<g clip-path="url(#clip0)">
<path d="M5.92486 30C5.92486 30.2626 5.97595 30.5227 6.07521 30.7654C6.17447 31.008 6.31996 31.2285 6.50338 31.4142C6.68679 31.5999 6.90453 31.7472 7.14417 31.8478C7.38381 31.9483 7.64066 32 7.90004 32C8.4239 32 8.92629 31.7893 9.29671 31.4142C9.48012 31.2285 9.62562 31.008 9.72488 30.7654C9.82414 30.5227 9.87523 30.2626 9.87523 30C9.87523 29.4696 9.66713 28.9609 9.29671 28.5858C8.92629 28.2107 8.4239 28 7.90004 28C7.37619 28 6.8738 28.2107 6.50338 28.5858C6.13296 28.9609 5.92486 29.4696 5.92486 30ZM23.7015 30C23.7015 30.2626 23.7526 30.5227 23.8519 30.7654C23.9512 31.008 24.0966 31.2285 24.2801 31.4142C24.4635 31.5999 24.6812 31.7472 24.9209 31.8478C25.1605 31.9483 25.4173 32 25.6767 32C26.2006 32 26.703 31.7893 27.0734 31.4142C27.2568 31.2285 27.4023 31.008 27.5016 30.7654C27.6008 30.5227 27.6519 30.2626 27.6519 30C27.6519 29.4696 27.4438 28.9609 27.0734 28.5858C26.703 28.2107 26.2006 28 25.6767 28C25.1529 28 24.6505 28.2107 24.2801 28.5858C23.9096 28.9609 23.7015 29.4696 23.7015 30ZM-0.0579834 5C-0.0579834 5.552 0.384458 6 0.92961 6H2.98183L4.20842 11.312L5.92486 20C5.92486 20.072 5.95844 20.134 5.96634 20.204L4.96097 24.784C4.89579 25.08 4.96689 25.39 5.15453 25.626C5.34218 25.864 5.62463 26 5.92486 26H28.3314C28.8765 26 29.319 25.552 29.319 25C29.319 24.448 28.8765 24 28.3314 24H7.15737L7.60969 21.94C7.70845 21.956 7.79733 22 7.90004 22H25.9039C26.9942 22 27.6519 21.782 28.1773 20.5L31.385 10.536C31.942 8.75 30.7194 8 29.6271 8H5.92486C5.77079 8 5.63648 8.054 5.49229 8.088L4.72592 4.772C4.62123 4.32 4.22422 4 3.764 4H0.92961C0.382483 4 -0.0579834 4.448 -0.0579834 5ZM5.96436 10H29.479L26.3266 19.798C26.289 19.884 26.2574 19.946 26.2337 19.988C26.1685 19.994 26.0658 20 25.9039 20H7.90004V19.802L7.86251 19.608L5.96436 10Z" fill="#E25447"/>
</g>
<defs>
<clipPath id="clip0">
<rect width="32" height="32" fill="white"/>
</clipPath>
</defs>
</svg>
