<svg width="32" height="32" viewBox="0 0 32 32" fill="none" xmlns="http://www.w3.org/2000/svg">
<path d="M16 0C7.164 0 0 7.164 0 16C0 24.836 7.164 32 16 32C24.836 32 32 24.836 32 16C32 7.162 24.836 0 16 0ZM23.96 12.408C23.968 12.578 23.972 12.748 23.972 12.918C23.972 18.124 20.01 24.126 12.764 24.126C10.54 24.126 8.47 23.474 6.726 22.356C7.034 22.392 7.348 22.412 7.666 22.412C9.512 22.412 11.21 21.782 12.558 20.726C10.834 20.694 9.38 19.554 8.878 17.99C9.12 18.036 9.364 18.06 9.62 18.06C9.98 18.06 10.328 18.012 10.658 17.922C8.856 17.56 7.498 15.968 7.498 14.06C7.498 14.044 7.498 14.028 7.498 14.01C8.03 14.306 8.636 14.482 9.282 14.504C8.226 13.798 7.53 12.592 7.53 11.226C7.53 10.504 7.724 9.828 8.062 9.246C10.004 11.63 12.908 13.198 16.182 13.362C16.114 13.074 16.08 12.772 16.08 12.464C16.08 10.29 17.844 8.526 20.02 8.526C21.152 8.526 22.176 9.004 22.896 9.77C23.794 9.592 24.638 9.264 25.398 8.814C25.104 9.734 24.48 10.506 23.666 10.994C24.462 10.9 25.222 10.686 25.928 10.374C25.4 11.162 24.73 11.856 23.96 12.408Z" fill="#E25447" fill-opacity="0.5"/>
</svg>
