<svg width="861" height="658" viewBox="0 0 861 658" fill="none" xmlns="http://www.w3.org/2000/svg">
<g filter="url(#filter0_d)">
<path d="M183 156.854C183 122.623 211.592 95.3291 245.786 96.9187L620.559 114.34C652.578 115.829 677.773 142.222 677.773 174.276V433.365C677.773 466.503 650.91 493.365 617.773 493.365H243C209.863 493.365 183 466.503 183 433.365V156.854Z" fill="white"/>
</g>
<path d="M250.661 332.671C257.004 310.117 259.965 289.113 297.178 284.039C343.695 277.695 335.238 182.548 375.412 220.607C415.585 258.667 434.615 358.044 481.132 307.298C527.649 256.552 512.848 186.776 540.336 184.662C562.326 182.97 607.292 265.715 627.027 307.298" stroke="#4D53EF" stroke-width="2"/>
<ellipse cx="310" cy="273.5" rx="12" ry="12.5" fill="#57CBFD"/>
<circle cx="543.144" cy="188.144" r="21.1441" fill="#4D53EF"/>
<g filter="url(#filter1_d)">
<circle cx="529.5" cy="387.5" r="8.5" fill="#4D53EF"/>
<circle cx="529.5" cy="387.5" r="8" stroke="white"/>
</g>
<g filter="url(#filter2_d)">
<ellipse cx="530" cy="425.5" rx="8" ry="8.5" fill="#57CBFD"/>
<path d="M537.5 425.5C537.5 429.947 534.114 433.5 530 433.5C525.886 433.5 522.5 429.947 522.5 425.5C522.5 421.053 525.886 417.5 530 417.5C534.114 417.5 537.5 421.053 537.5 425.5Z" stroke="white"/>
</g>
<rect x="550.908" y="379.187" width="84.5765" height="16.9153" rx="6" fill="#EBEBEB"/>
<rect x="550.908" y="417.247" width="84.5765" height="16.9153" rx="6" fill="#EBEBEB"/>
<path d="M403.696 407.254V422.588H401.694V407.254H403.696ZM412.982 410.312C414.449 410.312 415.637 410.759 416.546 411.654C417.455 412.534 417.91 413.81 417.91 415.482V422.588H415.93V415.768C415.93 414.565 415.629 413.649 415.028 413.018C414.427 412.373 413.605 412.05 412.564 412.05C411.508 412.05 410.665 412.38 410.034 413.04C409.418 413.7 409.11 414.661 409.11 415.922V422.588H407.108V410.532H409.11V412.248C409.506 411.632 410.041 411.155 410.716 410.818C411.405 410.481 412.161 410.312 412.982 410.312ZM427.054 410.312C428.521 410.312 429.709 410.759 430.618 411.654C431.528 412.534 431.982 413.81 431.982 415.482V422.588H430.002V415.768C430.002 414.565 429.702 413.649 429.1 413.018C428.499 412.373 427.678 412.05 426.636 412.05C425.58 412.05 424.737 412.38 424.106 413.04C423.49 413.7 423.182 414.661 423.182 415.922V422.588H421.18V410.532H423.182V412.248C423.578 411.632 424.114 411.155 424.788 410.818C425.478 410.481 426.233 410.312 427.054 410.312ZM440.511 422.786C439.381 422.786 438.355 422.529 437.431 422.016C436.521 421.503 435.803 420.777 435.275 419.838C434.761 418.885 434.505 417.785 434.505 416.538C434.505 415.306 434.769 414.221 435.297 413.282C435.839 412.329 436.573 411.603 437.497 411.104C438.421 410.591 439.455 410.334 440.599 410.334C441.743 410.334 442.777 410.591 443.701 411.104C444.625 411.603 445.351 412.321 445.879 413.26C446.421 414.199 446.693 415.291 446.693 416.538C446.693 417.785 446.414 418.885 445.857 419.838C445.314 420.777 444.573 421.503 443.635 422.016C442.696 422.529 441.655 422.786 440.511 422.786ZM440.511 421.026C441.229 421.026 441.904 420.857 442.535 420.52C443.165 420.183 443.671 419.677 444.053 419.002C444.449 418.327 444.647 417.506 444.647 416.538C444.647 415.57 444.456 414.749 444.075 414.074C443.693 413.399 443.195 412.901 442.579 412.578C441.963 412.241 441.295 412.072 440.577 412.072C439.843 412.072 439.169 412.241 438.553 412.578C437.951 412.901 437.467 413.399 437.101 414.074C436.734 414.749 436.551 415.57 436.551 416.538C436.551 417.521 436.727 418.349 437.079 419.024C437.445 419.699 437.929 420.205 438.531 420.542C439.132 420.865 439.792 421.026 440.511 421.026ZM453.813 420.74L457.553 410.532H459.687L454.957 422.588H452.625L447.895 410.532H450.051L453.813 420.74ZM460.909 416.516C460.909 415.284 461.158 414.206 461.657 413.282C462.156 412.343 462.838 411.617 463.703 411.104C464.583 410.591 465.558 410.334 466.629 410.334C467.685 410.334 468.602 410.561 469.379 411.016C470.156 411.471 470.736 412.043 471.117 412.732V410.532H473.141V422.588H471.117V420.344C470.721 421.048 470.127 421.635 469.335 422.104C468.558 422.559 467.648 422.786 466.607 422.786C465.536 422.786 464.568 422.522 463.703 421.994C462.838 421.466 462.156 420.725 461.657 419.772C461.158 418.819 460.909 417.733 460.909 416.516ZM471.117 416.538C471.117 415.629 470.934 414.837 470.567 414.162C470.2 413.487 469.702 412.974 469.071 412.622C468.455 412.255 467.773 412.072 467.025 412.072C466.277 412.072 465.595 412.248 464.979 412.6C464.363 412.952 463.872 413.465 463.505 414.14C463.138 414.815 462.955 415.607 462.955 416.516C462.955 417.44 463.138 418.247 463.505 418.936C463.872 419.611 464.363 420.131 464.979 420.498C465.595 420.85 466.277 421.026 467.025 421.026C467.773 421.026 468.455 420.85 469.071 420.498C469.702 420.131 470.2 419.611 470.567 418.936C470.934 418.247 471.117 417.447 471.117 416.538ZM478.966 412.182V419.288C478.966 419.875 479.091 420.293 479.34 420.542C479.589 420.777 480.022 420.894 480.638 420.894H482.112V422.588H480.308C479.193 422.588 478.357 422.331 477.8 421.818C477.243 421.305 476.964 420.461 476.964 419.288V412.182H475.402V410.532H476.964V407.496H478.966V410.532H482.112V412.182H478.966ZM485.572 408.574C485.19 408.574 484.868 408.442 484.604 408.178C484.34 407.914 484.208 407.591 484.208 407.21C484.208 406.829 484.34 406.506 484.604 406.242C484.868 405.978 485.19 405.846 485.572 405.846C485.938 405.846 486.246 405.978 486.496 406.242C486.76 406.506 486.892 406.829 486.892 407.21C486.892 407.591 486.76 407.914 486.496 408.178C486.246 408.442 485.938 408.574 485.572 408.574ZM486.54 410.532V422.588H484.538V410.532H486.54ZM495.21 422.786C494.08 422.786 493.054 422.529 492.13 422.016C491.22 421.503 490.502 420.777 489.974 419.838C489.46 418.885 489.204 417.785 489.204 416.538C489.204 415.306 489.468 414.221 489.996 413.282C490.538 412.329 491.272 411.603 492.196 411.104C493.12 410.591 494.154 410.334 495.298 410.334C496.442 410.334 497.476 410.591 498.4 411.104C499.324 411.603 500.05 412.321 500.578 413.26C501.12 414.199 501.392 415.291 501.392 416.538C501.392 417.785 501.113 418.885 500.556 419.838C500.013 420.777 499.272 421.503 498.334 422.016C497.395 422.529 496.354 422.786 495.21 422.786ZM495.21 421.026C495.928 421.026 496.603 420.857 497.234 420.52C497.864 420.183 498.37 419.677 498.752 419.002C499.148 418.327 499.346 417.506 499.346 416.538C499.346 415.57 499.155 414.749 498.774 414.074C498.392 413.399 497.894 412.901 497.278 412.578C496.662 412.241 495.994 412.072 495.276 412.072C494.542 412.072 493.868 412.241 493.252 412.578C492.65 412.901 492.166 413.399 491.8 414.074C491.433 414.749 491.25 415.57 491.25 416.538C491.25 417.521 491.426 418.349 491.778 419.024C492.144 419.699 492.628 420.205 493.23 420.542C493.831 420.865 494.491 421.026 495.21 421.026ZM509.898 410.312C511.365 410.312 512.553 410.759 513.462 411.654C514.371 412.534 514.826 413.81 514.826 415.482V422.588H512.846V415.768C512.846 414.565 512.545 413.649 511.944 413.018C511.343 412.373 510.521 412.05 509.48 412.05C508.424 412.05 507.581 412.38 506.95 413.04C506.334 413.7 506.026 414.661 506.026 415.922V422.588H504.024V410.532H506.026V412.248C506.422 411.632 506.957 411.155 507.632 410.818C508.321 410.481 509.077 410.312 509.898 410.312Z" fill="black"/>
<path d="M413.152 394.168C412.048 394.168 411.056 393.976 410.176 393.592C409.312 393.192 408.632 392.648 408.136 391.96C407.64 391.256 407.384 390.448 407.368 389.536H409.696C409.776 390.32 410.096 390.984 410.656 391.528C411.232 392.056 412.064 392.32 413.152 392.32C414.192 392.32 415.008 392.064 415.6 391.552C416.208 391.024 416.512 390.352 416.512 389.536C416.512 388.896 416.336 388.376 415.984 387.976C415.632 387.576 415.192 387.272 414.664 387.064C414.136 386.856 413.424 386.632 412.528 386.392C411.424 386.104 410.536 385.816 409.864 385.528C409.208 385.24 408.64 384.792 408.16 384.184C407.696 383.56 407.464 382.728 407.464 381.688C407.464 380.776 407.696 379.968 408.16 379.264C408.624 378.56 409.272 378.016 410.104 377.632C410.952 377.248 411.92 377.056 413.008 377.056C414.576 377.056 415.856 377.448 416.848 378.232C417.856 379.016 418.424 380.056 418.552 381.352H416.152C416.072 380.712 415.736 380.152 415.144 379.672C414.552 379.176 413.768 378.928 412.792 378.928C411.88 378.928 411.136 379.168 410.56 379.648C409.984 380.112 409.696 380.768 409.696 381.616C409.696 382.224 409.864 382.72 410.2 383.104C410.552 383.488 410.976 383.784 411.472 383.992C411.984 384.184 412.696 384.408 413.608 384.664C414.712 384.968 415.6 385.272 416.272 385.576C416.944 385.864 417.52 386.32 418 386.944C418.48 387.552 418.72 388.384 418.72 389.44C418.72 390.256 418.504 391.024 418.072 391.744C417.64 392.464 417 393.048 416.152 393.496C415.304 393.944 414.304 394.168 413.152 394.168ZM424.598 382.648V390.4C424.598 391.04 424.734 391.496 425.006 391.768C425.278 392.024 425.75 392.152 426.422 392.152H428.03V394H426.062C424.846 394 423.934 393.72 423.326 393.16C422.718 392.6 422.414 391.68 422.414 390.4V382.648H420.71V380.848H422.414V377.536H424.598V380.848H428.03V382.648H424.598ZM432.86 382.984C433.244 382.232 433.788 381.648 434.492 381.232C435.212 380.816 436.084 380.608 437.108 380.608V382.864H436.532C434.084 382.864 432.86 384.192 432.86 386.848V394H430.676V380.848H432.86V382.984ZM438.813 387.376C438.813 386.032 439.085 384.856 439.629 383.848C440.173 382.824 440.917 382.032 441.861 381.472C442.821 380.912 443.885 380.632 445.053 380.632C446.205 380.632 447.205 380.88 448.053 381.376C448.901 381.872 449.533 382.496 449.949 383.248V380.848H452.157V394H449.949V391.552C449.517 392.32 448.869 392.96 448.005 393.472C447.157 393.968 446.165 394.216 445.029 394.216C443.861 394.216 442.805 393.928 441.861 393.352C440.917 392.776 440.173 391.968 439.629 390.928C439.085 389.888 438.813 388.704 438.813 387.376ZM449.949 387.4C449.949 386.408 449.749 385.544 449.349 384.808C448.949 384.072 448.405 383.512 447.717 383.128C447.045 382.728 446.301 382.528 445.485 382.528C444.669 382.528 443.925 382.72 443.253 383.104C442.581 383.488 442.045 384.048 441.645 384.784C441.245 385.52 441.045 386.384 441.045 387.376C441.045 388.384 441.245 389.264 441.645 390.016C442.045 390.752 442.581 391.32 443.253 391.72C443.925 392.104 444.669 392.296 445.485 392.296C446.301 392.296 447.045 392.104 447.717 391.72C448.405 391.32 448.949 390.752 449.349 390.016C449.749 389.264 449.949 388.392 449.949 387.4ZM458.512 382.648V390.4C458.512 391.04 458.648 391.496 458.92 391.768C459.192 392.024 459.664 392.152 460.336 392.152H461.944V394H459.976C458.76 394 457.848 393.72 457.24 393.16C456.632 392.6 456.328 391.68 456.328 390.4V382.648H454.624V380.848H456.328V377.536H458.512V380.848H461.944V382.648H458.512ZM476.59 386.92C476.59 387.336 476.566 387.776 476.518 388.24H466.006C466.086 389.536 466.526 390.552 467.326 391.288C468.142 392.008 469.126 392.368 470.278 392.368C471.222 392.368 472.006 392.152 472.63 391.72C473.27 391.272 473.718 390.68 473.974 389.944H476.326C475.974 391.208 475.27 392.24 474.214 393.04C473.158 393.824 471.846 394.216 470.278 394.216C469.03 394.216 467.91 393.936 466.918 393.376C465.942 392.816 465.174 392.024 464.614 391C464.054 389.96 463.774 388.76 463.774 387.4C463.774 386.04 464.046 384.848 464.59 383.824C465.134 382.8 465.894 382.016 466.87 381.472C467.862 380.912 468.998 380.632 470.278 380.632C471.526 380.632 472.63 380.904 473.59 381.448C474.55 381.992 475.286 382.744 475.798 383.704C476.326 384.648 476.59 385.72 476.59 386.92ZM474.334 386.464C474.334 385.632 474.15 384.92 473.782 384.328C473.414 383.72 472.91 383.264 472.27 382.96C471.646 382.64 470.95 382.48 470.182 382.48C469.078 382.48 468.134 382.832 467.35 383.536C466.582 384.24 466.142 385.216 466.03 386.464H474.334ZM484.897 380.632C486.033 380.632 487.025 380.88 487.873 381.376C488.737 381.872 489.377 382.496 489.793 383.248V380.848H492.001V394.288C492.001 395.488 491.745 396.552 491.233 397.48C490.721 398.424 489.985 399.16 489.025 399.688C488.081 400.216 486.977 400.48 485.713 400.48C483.985 400.48 482.545 400.072 481.393 399.256C480.241 398.44 479.561 397.328 479.353 395.92H481.513C481.753 396.72 482.249 397.36 483.001 397.84C483.753 398.336 484.657 398.584 485.713 398.584C486.913 398.584 487.889 398.208 488.641 397.456C489.409 396.704 489.793 395.648 489.793 394.288V391.528C489.361 392.296 488.721 392.936 487.873 393.448C487.025 393.96 486.033 394.216 484.897 394.216C483.729 394.216 482.665 393.928 481.705 393.352C480.761 392.776 480.017 391.968 479.473 390.928C478.929 389.888 478.657 388.704 478.657 387.376C478.657 386.032 478.929 384.856 479.473 383.848C480.017 382.824 480.761 382.032 481.705 381.472C482.665 380.912 483.729 380.632 484.897 380.632ZM489.793 387.4C489.793 386.408 489.593 385.544 489.193 384.808C488.793 384.072 488.249 383.512 487.561 383.128C486.889 382.728 486.145 382.528 485.329 382.528C484.513 382.528 483.769 382.72 483.097 383.104C482.425 383.488 481.889 384.048 481.489 384.784C481.089 385.52 480.889 386.384 480.889 387.376C480.889 388.384 481.089 389.264 481.489 390.016C481.889 390.752 482.425 391.32 483.097 391.72C483.769 392.104 484.513 392.296 485.329 392.296C486.145 392.296 486.889 392.104 487.561 391.72C488.249 391.32 488.793 390.752 489.193 390.016C489.593 389.264 489.793 388.392 489.793 387.4ZM507.02 380.848L499.1 400.192H496.844L499.436 393.856L494.132 380.848H496.556L500.684 391.504L504.764 380.848H507.02Z" fill="black"/>
<path d="M314.792 258.992C315.642 256.158 317.342 253.608 319.608 251.625C323.858 248.083 326.55 242.7 326.55 236.75C326.55 225.7 317.342 216.633 306.008 217.2C295.95 217.625 287.733 226.125 287.45 236.183C287.308 242.417 290 247.942 294.392 251.625C296.8 253.608 298.5 256.158 299.35 258.992H314.792Z" fill="#FFD15C"/>
<path d="M305.158 259.275H306.433L300.767 238.167C300.908 238.167 301.05 238.167 301.192 238.167C301.9 238.167 302.608 237.883 303.175 237.317C303.458 237.033 303.742 236.892 304.167 236.892C304.592 236.892 304.875 237.033 305.158 237.317C306.15 238.45 307.85 238.45 308.842 237.317C309.125 237.033 309.408 236.892 309.833 236.892C310.117 236.892 310.542 237.033 310.825 237.317C311.392 237.883 311.958 238.167 312.808 238.167C312.95 238.167 313.092 238.167 313.233 238.167L307.708 259.275H308.983L314.792 237.175C314.792 236.892 314.792 236.608 314.508 236.467C314.225 236.325 313.942 236.467 313.8 236.608C313.517 236.892 313.233 237.033 312.95 237.033C312.525 237.033 312.242 236.892 311.817 236.608C311.25 236.042 310.683 235.758 309.975 235.758C309.267 235.758 308.7 236.042 308.133 236.608C307.567 237.175 306.717 237.175 306.15 236.608C305.725 236.042 305.017 235.758 304.308 235.758C303.6 235.758 302.892 236.042 302.467 236.608C302.183 236.892 301.758 237.033 301.333 237.033C301.05 237.033 300.625 236.892 300.483 236.608C300.342 236.467 300.058 236.325 299.775 236.467C299.492 236.608 299.35 236.892 299.492 237.175L305.158 259.275Z" fill="white"/>
<path d="M302.608 272.025C303.317 273.725 305.017 275 307 275C308.983 275 310.683 273.725 311.392 272.025H302.608Z" fill="#344A5E"/>
<path d="M312.242 272.167H301.9C300.483 272.167 299.35 271.033 299.35 269.617V258.85H314.792V269.617C314.792 271.033 313.658 272.167 312.242 272.167Z" fill="#344A5E"/>
<path d="M314.65 264.233H299.35C298.5 264.233 297.792 263.525 297.792 262.675C297.792 261.825 298.5 261.117 299.35 261.117H314.65C315.5 261.117 316.208 261.825 316.208 262.675C316.208 263.525 315.5 264.233 314.65 264.233Z" fill="#415A6B"/>
<path d="M314.65 269.192H299.35C298.5 269.192 297.792 268.483 297.792 267.633C297.792 266.783 298.5 266.075 299.35 266.075H314.65C315.5 266.075 316.208 266.783 316.208 267.633C316.208 268.483 315.5 269.192 314.65 269.192Z" fill="#415A6B"/>
<g filter="url(#filter3_d)">
<rect x="100" y="327" width="306" height="95" rx="10" fill="white"/>
</g>
<path d="M214.197 375.645L217.632 376.878L222.212 375.645L226.792 375.029L231.372 378.11L235.952 382.423H241.105L243.967 377.494L247.975 379.342L250.265 373.18L255.99 373.797L260.57 370.099L266.868 371.948V376.878L269.158 378.11L272.02 376.878L275.455 378.11L277.173 376.878L277.745 372.564L285.76 371.948L292.631 358.392L300.073 371.332L300.646 373.18L305.798 370.099L309.806 368.251L312.096 369.483L316.103 378.726L322.973 382.423L332.133 378.11L334.996 375.029L336.141 372.564H338.431L347.591 377.494L354.461 381.807L353.889 404.606H214.197V375.645Z" fill="#7176F7" fill-opacity="0.2"/>
<path d="M214.197 375.644V375.644C217.503 379.598 223.492 372.421 227.668 375.441C227.756 375.505 227.845 375.572 227.937 375.644C230.347 377.531 232.723 379.493 234.649 381.476C236.43 383.309 241.026 383.208 242.103 380.89L243.243 378.437C243.755 377.333 245.325 377.333 245.837 378.437V378.437C246.389 379.625 248.114 379.509 248.501 378.258L249.656 374.529C250.199 372.776 252.397 372.206 253.723 373.475V373.475C254.878 374.58 256.763 374.313 257.566 372.931L257.96 372.252C258.513 371.3 259.53 370.715 260.63 370.715H262.86H264.11C265.633 370.715 266.868 371.95 266.868 373.473V376.314C266.868 378.064 269.1 378.803 270.144 377.398V377.398C270.822 376.486 272.161 376.413 272.935 377.245L273.284 377.621C274.672 379.115 277.173 378.133 277.173 376.093V374.561C277.173 372.648 279.022 371.28 280.851 371.839L281.84 372.142C283.461 372.637 285.209 371.939 286.042 370.463L293.203 357.775M293.203 357.775L300.646 372.99M293.203 357.775L300.312 370.136C300.511 370.48 300.461 370.913 300.191 371.204V371.204C299.482 371.967 300.408 373.127 301.309 372.605L308.753 368.291C309.911 367.62 311.395 368.134 311.89 369.377L314.386 375.644L314.801 376.537C316.293 379.751 319.515 381.806 323.058 381.806V381.806C324.869 381.806 326.638 381.267 328.141 380.256L333.988 376.323C334.618 375.899 334.996 375.189 334.996 374.429V374.429C334.996 372.727 336.791 371.624 338.309 372.393L344.729 375.644L354.461 381.806" stroke="#4D53EF"/>
<rect x="363" y="335" width="33" height="70" rx="5" fill="#F0FBF4"/>
<path fill-rule="evenodd" clip-rule="evenodd" d="M371.252 264.352C371.142 264.254 371.053 264.138 370.992 264.009C370.93 263.879 370.897 263.741 370.895 263.6C370.892 263.459 370.919 263.32 370.976 263.189C371.032 263.058 371.116 262.939 371.222 262.838L378.093 256.324C378.2 256.223 378.327 256.142 378.467 256.087C378.608 256.031 378.759 256.001 378.913 255.999C379.066 255.997 379.219 256.022 379.362 256.074C379.504 256.126 379.635 256.203 379.745 256.301L386.87 262.619C387.093 262.817 387.222 263.088 387.227 263.372C387.233 263.656 387.115 263.93 386.9 264.133C386.685 264.337 386.39 264.454 386.081 264.459C385.771 264.463 385.472 264.354 385.249 264.157L378.964 258.582L372.904 264.329C372.797 264.43 372.67 264.511 372.53 264.567C372.389 264.623 372.238 264.653 372.084 264.655C371.931 264.657 371.778 264.631 371.636 264.579C371.493 264.527 371.363 264.45 371.252 264.352Z" fill="#40A430"/>
<path fill-rule="evenodd" clip-rule="evenodd" d="M379.24 273.088C378.934 273.093 378.639 272.984 378.418 272.787C378.198 272.59 378.071 272.32 378.066 272.037L377.794 258.158C377.788 257.875 377.905 257.601 378.117 257.398C378.329 257.195 378.62 257.078 378.926 257.074C379.232 257.07 379.528 257.178 379.748 257.375C379.968 257.572 380.095 257.842 380.1 258.125L380.372 272.004C380.378 272.288 380.261 272.561 380.049 272.764C379.837 272.967 379.546 273.084 379.24 273.088Z" fill="#40A430"/>
<path d="M129.576 368.084C129.024 368.084 128.528 367.988 128.088 367.796C127.656 367.596 127.316 367.324 127.068 366.98C126.82 366.628 126.692 366.224 126.684 365.768H127.848C127.888 366.16 128.048 366.492 128.328 366.764C128.616 367.028 129.032 367.16 129.576 367.16C130.096 367.16 130.504 367.032 130.8 366.776C131.104 366.512 131.256 366.176 131.256 365.768C131.256 365.448 131.168 365.188 130.992 364.988C130.816 364.788 130.596 364.636 130.332 364.532C130.068 364.428 129.712 364.316 129.264 364.196C128.712 364.052 128.268 363.908 127.932 363.764C127.604 363.62 127.32 363.396 127.08 363.092C126.848 362.78 126.732 362.364 126.732 361.844C126.732 361.388 126.848 360.984 127.08 360.632C127.312 360.28 127.636 360.008 128.052 359.816C128.476 359.624 128.96 359.528 129.504 359.528C130.288 359.528 130.928 359.724 131.424 360.116C131.928 360.508 132.212 361.028 132.276 361.676H131.076C131.036 361.356 130.868 361.076 130.572 360.836C130.276 360.588 129.884 360.464 129.396 360.464C128.94 360.464 128.568 360.584 128.28 360.824C127.992 361.056 127.848 361.384 127.848 361.808C127.848 362.112 127.932 362.36 128.1 362.552C128.276 362.744 128.488 362.892 128.736 362.996C128.992 363.092 129.348 363.204 129.804 363.332C130.356 363.484 130.8 363.636 131.136 363.788C131.472 363.932 131.76 364.16 132 364.472C132.24 364.776 132.36 365.192 132.36 365.72C132.36 366.128 132.252 366.512 132.036 366.872C131.82 367.232 131.5 367.524 131.076 367.748C130.652 367.972 130.152 368.084 129.576 368.084ZM135.299 362.324V366.2C135.299 366.52 135.367 366.748 135.503 366.884C135.639 367.012 135.875 367.076 136.211 367.076H137.015V368H136.031C135.423 368 134.967 367.86 134.663 367.58C134.359 367.3 134.207 366.84 134.207 366.2V362.324H133.355V361.424H134.207V359.768H135.299V361.424H137.015V362.324H135.299ZM137.93 364.688C137.93 364.016 138.066 363.428 138.338 362.924C138.61 362.412 138.982 362.016 139.454 361.736C139.934 361.456 140.466 361.316 141.05 361.316C141.626 361.316 142.126 361.44 142.55 361.688C142.974 361.936 143.29 362.248 143.498 362.624V361.424H144.602V368H143.498V366.776C143.282 367.16 142.958 367.48 142.526 367.736C142.102 367.984 141.606 368.108 141.038 368.108C140.454 368.108 139.926 367.964 139.454 367.676C138.982 367.388 138.61 366.984 138.338 366.464C138.066 365.944 137.93 365.352 137.93 364.688ZM143.498 364.7C143.498 364.204 143.398 363.772 143.198 363.404C142.998 363.036 142.726 362.756 142.382 362.564C142.046 362.364 141.674 362.264 141.266 362.264C140.858 362.264 140.486 362.36 140.15 362.552C139.814 362.744 139.546 363.024 139.346 363.392C139.146 363.76 139.046 364.192 139.046 364.688C139.046 365.192 139.146 365.632 139.346 366.008C139.546 366.376 139.814 366.66 140.15 366.86C140.486 367.052 140.858 367.148 141.266 367.148C141.674 367.148 142.046 367.052 142.382 366.86C142.726 366.66 142.998 366.376 143.198 366.008C143.398 365.632 143.498 365.196 143.498 364.7ZM147.779 362.324V366.2C147.779 366.52 147.847 366.748 147.983 366.884C148.119 367.012 148.355 367.076 148.691 367.076H149.495V368H148.511C147.903 368 147.447 367.86 147.143 367.58C146.839 367.3 146.687 366.84 146.687 366.2V362.324H145.835V361.424H146.687V359.768H147.779V361.424H149.495V362.324H147.779ZM151.383 360.356C151.175 360.356 150.999 360.284 150.855 360.14C150.711 359.996 150.639 359.82 150.639 359.612C150.639 359.404 150.711 359.228 150.855 359.084C150.999 358.94 151.175 358.868 151.383 358.868C151.583 358.868 151.751 358.94 151.887 359.084C152.031 359.228 152.103 359.404 152.103 359.612C152.103 359.82 152.031 359.996 151.887 360.14C151.751 360.284 151.583 360.356 151.383 360.356ZM151.911 361.424V368H150.819V361.424H151.911ZM156.1 368.108C155.596 368.108 155.144 368.024 154.744 367.856C154.344 367.68 154.028 367.44 153.796 367.136C153.564 366.824 153.436 366.468 153.412 366.068H154.54C154.572 366.396 154.724 366.664 154.996 366.872C155.276 367.08 155.64 367.184 156.088 367.184C156.504 367.184 156.832 367.092 157.072 366.908C157.312 366.724 157.432 366.492 157.432 366.212C157.432 365.924 157.304 365.712 157.048 365.576C156.792 365.432 156.396 365.292 155.86 365.156C155.372 365.028 154.972 364.9 154.66 364.772C154.356 364.636 154.092 364.44 153.868 364.184C153.652 363.92 153.544 363.576 153.544 363.152C153.544 362.816 153.644 362.508 153.844 362.228C154.044 361.948 154.328 361.728 154.696 361.568C155.064 361.4 155.484 361.316 155.956 361.316C156.684 361.316 157.272 361.5 157.72 361.868C158.168 362.236 158.408 362.74 158.44 363.38H157.348C157.324 363.036 157.184 362.76 156.928 362.552C156.68 362.344 156.344 362.24 155.92 362.24C155.528 362.24 155.216 362.324 154.984 362.492C154.752 362.66 154.636 362.88 154.636 363.152C154.636 363.368 154.704 363.548 154.84 363.692C154.984 363.828 155.16 363.94 155.368 364.028C155.584 364.108 155.88 364.2 156.256 364.304C156.728 364.432 157.112 364.56 157.408 364.688C157.704 364.808 157.956 364.992 158.164 365.24C158.38 365.488 158.492 365.812 158.5 366.212C158.5 366.572 158.4 366.896 158.2 367.184C158 367.472 157.716 367.7 157.348 367.868C156.988 368.028 156.572 368.108 156.1 368.108ZM161.373 362.324V366.2C161.373 366.52 161.441 366.748 161.577 366.884C161.713 367.012 161.949 367.076 162.285 367.076H163.089V368H162.105C161.497 368 161.041 367.86 160.737 367.58C160.433 367.3 160.281 366.84 160.281 366.2V362.324H159.429V361.424H160.281V359.768H161.373V361.424H163.089V362.324H161.373ZM164.976 360.356C164.768 360.356 164.592 360.284 164.448 360.14C164.304 359.996 164.232 359.82 164.232 359.612C164.232 359.404 164.304 359.228 164.448 359.084C164.592 358.94 164.768 358.868 164.976 358.868C165.176 358.868 165.344 358.94 165.48 359.084C165.624 359.228 165.696 359.404 165.696 359.612C165.696 359.82 165.624 359.996 165.48 360.14C165.344 360.284 165.176 360.356 164.976 360.356ZM165.504 361.424V368H164.412V361.424H165.504ZM166.957 364.7C166.957 364.02 167.093 363.428 167.365 362.924C167.637 362.412 168.013 362.016 168.493 361.736C168.981 361.456 169.537 361.316 170.161 361.316C170.969 361.316 171.633 361.512 172.153 361.904C172.681 362.296 173.029 362.84 173.197 363.536H172.021C171.909 363.136 171.689 362.82 171.361 362.588C171.041 362.356 170.641 362.24 170.161 362.24C169.537 362.24 169.033 362.456 168.649 362.888C168.265 363.312 168.073 363.916 168.073 364.7C168.073 365.492 168.265 366.104 168.649 366.536C169.033 366.968 169.537 367.184 170.161 367.184C170.641 367.184 171.041 367.072 171.361 366.848C171.681 366.624 171.901 366.304 172.021 365.888H173.197C173.021 366.56 172.669 367.1 172.141 367.508C171.613 367.908 170.953 368.108 170.161 368.108C169.537 368.108 168.981 367.968 168.493 367.688C168.013 367.408 167.637 367.012 167.365 366.5C167.093 365.988 166.957 365.388 166.957 364.7ZM176.982 368.108C176.478 368.108 176.026 368.024 175.626 367.856C175.226 367.68 174.91 367.44 174.678 367.136C174.446 366.824 174.318 366.468 174.294 366.068H175.422C175.454 366.396 175.606 366.664 175.878 366.872C176.158 367.08 176.522 367.184 176.97 367.184C177.386 367.184 177.714 367.092 177.954 366.908C178.194 366.724 178.314 366.492 178.314 366.212C178.314 365.924 178.186 365.712 177.93 365.576C177.674 365.432 177.278 365.292 176.742 365.156C176.254 365.028 175.854 364.9 175.542 364.772C175.238 364.636 174.974 364.44 174.75 364.184C174.534 363.92 174.426 363.576 174.426 363.152C174.426 362.816 174.526 362.508 174.726 362.228C174.926 361.948 175.21 361.728 175.578 361.568C175.946 361.4 176.366 361.316 176.838 361.316C177.566 361.316 178.154 361.5 178.602 361.868C179.05 362.236 179.29 362.74 179.322 363.38H178.23C178.206 363.036 178.066 362.76 177.81 362.552C177.562 362.344 177.226 362.24 176.802 362.24C176.41 362.24 176.098 362.324 175.866 362.492C175.634 362.66 175.518 362.88 175.518 363.152C175.518 363.368 175.586 363.548 175.722 363.692C175.866 363.828 176.042 363.94 176.25 364.028C176.466 364.108 176.762 364.2 177.138 364.304C177.61 364.432 177.994 364.56 178.29 364.688C178.586 364.808 178.838 364.992 179.046 365.24C179.262 365.488 179.374 365.812 179.382 366.212C179.382 366.572 179.282 366.896 179.082 367.184C178.882 367.472 178.598 367.7 178.23 367.868C177.87 368.028 177.454 368.108 176.982 368.108Z" fill="#0B0C28"/>
<path d="M131.4 393.382C131.4 393.008 131.296 392.712 131.086 392.493C130.881 392.27 130.53 392.065 130.033 391.878C129.536 391.691 129.108 391.507 128.748 391.324C128.388 391.137 128.078 390.925 127.818 390.688C127.563 390.447 127.363 390.164 127.217 389.841C127.076 389.517 127.005 389.132 127.005 388.686C127.005 387.915 127.251 387.284 127.743 386.792C128.235 386.3 128.889 386.013 129.705 385.931V384.468H130.799V385.951C131.605 386.065 132.237 386.402 132.692 386.963C133.148 387.519 133.376 388.241 133.376 389.13H131.4C131.4 388.583 131.286 388.175 131.059 387.906C130.835 387.633 130.535 387.496 130.156 387.496C129.783 387.496 129.493 387.603 129.288 387.817C129.083 388.027 128.98 388.319 128.98 388.692C128.98 389.039 129.081 389.317 129.281 389.526C129.482 389.736 129.853 389.95 130.396 390.169C130.942 390.388 131.391 390.595 131.742 390.791C132.093 390.982 132.389 391.201 132.631 391.447C132.872 391.689 133.057 391.967 133.185 392.281C133.312 392.591 133.376 392.953 133.376 393.368C133.376 394.143 133.134 394.772 132.651 395.255C132.168 395.738 131.503 396.023 130.655 396.109V397.47H129.568V396.116C128.634 396.016 127.91 395.686 127.395 395.125C126.884 394.56 126.629 393.81 126.629 392.876H128.604C128.604 393.418 128.732 393.835 128.987 394.127C129.247 394.414 129.618 394.558 130.102 394.558C130.503 394.558 130.819 394.453 131.052 394.243C131.284 394.029 131.4 393.742 131.4 393.382ZM136.726 390.148H137.778C138.28 390.148 138.651 390.023 138.893 389.772C139.134 389.522 139.255 389.189 139.255 388.774C139.255 388.373 139.134 388.061 138.893 387.838C138.656 387.615 138.327 387.503 137.908 387.503C137.53 387.503 137.213 387.608 136.958 387.817C136.703 388.022 136.575 388.291 136.575 388.624H134.6C134.6 388.104 134.739 387.64 135.017 387.229C135.299 386.815 135.691 386.491 136.192 386.259C136.698 386.026 137.254 385.91 137.86 385.91C138.913 385.91 139.738 386.163 140.335 386.669C140.932 387.17 141.23 387.863 141.23 388.747C141.23 389.203 141.091 389.622 140.813 390.005C140.535 390.388 140.171 390.682 139.72 390.887C140.28 391.087 140.697 391.388 140.971 391.789C141.249 392.19 141.388 392.664 141.388 393.211C141.388 394.095 141.064 394.804 140.417 395.337C139.774 395.87 138.922 396.137 137.86 396.137C136.867 396.137 136.053 395.875 135.42 395.351C134.791 394.826 134.477 394.134 134.477 393.272H136.452C136.452 393.646 136.591 393.951 136.869 394.188C137.152 394.425 137.498 394.544 137.908 394.544C138.378 394.544 138.744 394.421 139.009 394.175C139.278 393.924 139.412 393.594 139.412 393.184C139.412 392.19 138.865 391.693 137.771 391.693H136.726V390.148ZM149.522 387.154L145.674 396H143.589L147.444 387.646H142.495V386.047H149.522V387.154ZM151.389 398.495L150.356 397.955L150.603 397.511C150.908 396.955 151.065 396.401 151.074 395.85V394.318H152.742L152.735 395.686C152.731 396.191 152.603 396.702 152.353 397.217C152.102 397.732 151.781 398.158 151.389 398.495ZM160.699 388.692C160.699 389.175 160.578 389.604 160.337 389.978C160.095 390.351 159.763 390.65 159.339 390.873C159.822 391.105 160.205 391.427 160.487 391.837C160.77 392.243 160.911 392.721 160.911 393.272C160.911 394.157 160.61 394.856 160.009 395.371C159.407 395.882 158.589 396.137 157.555 396.137C156.52 396.137 155.7 395.879 155.094 395.364C154.488 394.849 154.185 394.152 154.185 393.272C154.185 392.721 154.326 392.24 154.608 391.83C154.891 391.42 155.271 391.101 155.75 390.873C155.326 390.65 154.993 390.351 154.752 389.978C154.515 389.604 154.396 389.175 154.396 388.692C154.396 387.845 154.679 387.17 155.244 386.669C155.809 386.163 156.577 385.91 157.548 385.91C158.514 385.91 159.28 386.161 159.845 386.662C160.414 387.159 160.699 387.836 160.699 388.692ZM158.929 393.129C158.929 392.696 158.803 392.35 158.553 392.09C158.302 391.83 157.965 391.7 157.541 391.7C157.122 391.7 156.787 391.83 156.536 392.09C156.285 392.345 156.16 392.691 156.16 393.129C156.16 393.553 156.283 393.895 156.529 394.154C156.775 394.414 157.117 394.544 157.555 394.544C157.983 394.544 158.318 394.419 158.56 394.168C158.806 393.917 158.929 393.571 158.929 393.129ZM158.724 388.788C158.724 388.401 158.621 388.091 158.416 387.858C158.211 387.621 157.922 387.503 157.548 387.503C157.179 387.503 156.892 387.617 156.687 387.845C156.481 388.073 156.379 388.387 156.379 388.788C156.379 389.185 156.481 389.504 156.687 389.745C156.892 389.987 157.181 390.107 157.555 390.107C157.928 390.107 158.215 389.987 158.416 389.745C158.621 389.504 158.724 389.185 158.724 388.788ZM166.872 392.021C166.357 392.527 165.756 392.78 165.067 392.78C164.188 392.78 163.484 392.479 162.955 391.878C162.426 391.272 162.162 390.456 162.162 389.431C162.162 388.779 162.303 388.182 162.586 387.64C162.873 387.093 163.272 386.669 163.782 386.368C164.293 386.063 164.867 385.91 165.505 385.91C166.161 385.91 166.744 386.074 167.255 386.402C167.765 386.73 168.162 387.202 168.444 387.817C168.727 388.433 168.87 389.137 168.875 389.93V390.661C168.875 392.32 168.463 393.623 167.638 394.571C166.813 395.519 165.644 396.025 164.131 396.089L163.646 396.096V394.448L164.083 394.441C165.801 394.364 166.731 393.557 166.872 392.021ZM165.553 391.27C165.872 391.27 166.145 391.188 166.373 391.023C166.605 390.859 166.781 390.661 166.899 390.429V389.615C166.899 388.945 166.772 388.426 166.517 388.057C166.261 387.688 165.92 387.503 165.491 387.503C165.095 387.503 164.769 387.685 164.514 388.05C164.258 388.41 164.131 388.863 164.131 389.41C164.131 389.952 164.254 390.399 164.5 390.75C164.751 391.096 165.102 391.27 165.553 391.27ZM170.584 391.105L171.158 386.047H176.736V387.694H172.778L172.532 389.834C173.002 389.583 173.501 389.458 174.029 389.458C174.977 389.458 175.72 389.752 176.258 390.34C176.796 390.928 177.064 391.75 177.064 392.808C177.064 393.45 176.928 394.027 176.654 394.537C176.385 395.043 175.998 395.437 175.492 395.72C174.986 395.998 174.389 396.137 173.701 396.137C173.1 396.137 172.541 396.016 172.026 395.774C171.511 395.528 171.104 395.184 170.803 394.742C170.507 394.3 170.349 393.797 170.331 393.231H172.286C172.327 393.646 172.471 393.97 172.717 394.202C172.967 394.43 173.293 394.544 173.694 394.544C174.141 394.544 174.485 394.384 174.727 394.065C174.968 393.742 175.089 393.286 175.089 392.698C175.089 392.133 174.95 391.7 174.672 391.399C174.394 391.099 174 390.948 173.489 390.948C173.02 390.948 172.639 391.071 172.348 391.317L172.156 391.495L170.584 391.105Z" fill="black"/>
<g filter="url(#filter4_d)">
<rect x="551" y="265" width="279" height="289" rx="10" fill="white"/>
</g>
<rect x="620" y="363" width="1" height="170" fill="#E1E2EF"/>
<rect x="664" y="363" width="1" height="170" fill="#E1E2EF"/>
<rect x="708" y="363" width="1" height="170" fill="#E1E2EF"/>
<rect x="752" y="363" width="1" height="170" fill="#E1E2EF"/>
<path d="M677 457L691 440L703 429L718.5 420.833L728.225 418.479L742 423L768.903 414.163L791 399V512.646L678.004 515V467.917H679.009L677 466.74L678.004 467.917L677 457Z" fill="#E4ECFF" fill-opacity="0.2"/>
<path d="M620.5 474C623.833 463.667 631.842 448.102 643.5 450C665 453.5 673 466.5 682 450C691 433.5 730.5 410.5 743.5 418.5C756.5 426.5 789 403.5 791 397.5" stroke="#0F113A" stroke-width="2"/>
<circle r="3" transform="matrix(1 0 0 -1 709 424)" fill="white"/>
<circle cx="709" cy="424" r="5.5" stroke="#E65838" stroke-width="5"/>
<path d="M585.056 315.126C583.892 315.126 582.818 314.856 581.834 314.316C580.862 313.764 580.088 313.002 579.512 312.03C578.948 311.046 578.666 309.942 578.666 308.718C578.666 307.494 578.948 306.396 579.512 305.424C580.088 304.452 580.862 303.696 581.834 303.156C582.818 302.604 583.892 302.328 585.056 302.328C586.232 302.328 587.306 302.604 588.278 303.156C589.262 303.696 590.036 304.452 590.6 305.424C591.164 306.396 591.446 307.494 591.446 308.718C591.446 309.942 591.164 311.046 590.6 312.03C590.036 313.002 589.262 313.764 588.278 314.316C587.306 314.856 586.232 315.126 585.056 315.126ZM585.056 313.344C585.884 313.344 586.622 313.158 587.27 312.786C587.918 312.402 588.422 311.862 588.782 311.166C589.154 310.458 589.34 309.642 589.34 308.718C589.34 307.794 589.154 306.984 588.782 306.288C588.422 305.592 587.918 305.058 587.27 304.686C586.622 304.314 585.884 304.128 585.056 304.128C584.228 304.128 583.49 304.314 582.842 304.686C582.194 305.058 581.684 305.592 581.312 306.288C580.952 306.984 580.772 307.794 580.772 308.718C580.772 309.642 580.952 310.458 581.312 311.166C581.684 311.862 582.194 312.402 582.842 312.786C583.49 313.158 584.228 313.344 585.056 313.344ZM598.019 313.164L600.827 305.082H603.005L599.225 315H596.777L593.015 305.082H595.211L598.019 313.164ZM614.366 309.798C614.366 310.17 614.342 310.506 614.294 310.806H606.716C606.776 311.598 607.07 312.234 607.598 312.714C608.126 313.194 608.774 313.434 609.542 313.434C610.646 313.434 611.426 312.972 611.882 312.048H614.096C613.796 312.96 613.25 313.71 612.458 314.298C611.678 314.874 610.706 315.162 609.542 315.162C608.594 315.162 607.742 314.952 606.986 314.532C606.242 314.1 605.654 313.5 605.222 312.732C604.802 311.952 604.592 311.052 604.592 310.032C604.592 309.012 604.796 308.118 605.204 307.35C605.624 306.57 606.206 305.97 606.95 305.55C607.706 305.13 608.57 304.92 609.542 304.92C610.478 304.92 611.312 305.124 612.044 305.532C612.776 305.94 613.346 306.516 613.754 307.26C614.162 307.992 614.366 308.838 614.366 309.798ZM612.224 309.15C612.212 308.394 611.942 307.788 611.414 307.332C610.886 306.876 610.232 306.648 609.452 306.648C608.744 306.648 608.138 306.876 607.634 307.332C607.13 307.776 606.83 308.382 606.734 309.15H612.224ZM619.158 306.522C619.458 306.018 619.854 305.628 620.346 305.352C620.85 305.064 621.444 304.92 622.128 304.92V307.044H621.606C620.802 307.044 620.19 307.248 619.77 307.656C619.362 308.064 619.158 308.772 619.158 309.78V315H617.106V305.082H619.158V306.522ZM628.568 313.164L631.376 305.082H633.554L629.774 315H627.326L623.564 305.082H625.76L628.568 313.164ZM636.869 303.768C636.497 303.768 636.185 303.642 635.933 303.39C635.681 303.138 635.555 302.826 635.555 302.454C635.555 302.082 635.681 301.77 635.933 301.518C636.185 301.266 636.497 301.14 636.869 301.14C637.229 301.14 637.535 301.266 637.787 301.518C638.039 301.77 638.165 302.082 638.165 302.454C638.165 302.826 638.039 303.138 637.787 303.39C637.535 303.642 637.229 303.768 636.869 303.768ZM637.877 305.082V315H635.825V305.082H637.877ZM650.381 309.798C650.381 310.17 650.357 310.506 650.309 310.806H642.731C642.791 311.598 643.085 312.234 643.613 312.714C644.141 313.194 644.789 313.434 645.557 313.434C646.661 313.434 647.441 312.972 647.897 312.048H650.111C649.811 312.96 649.265 313.71 648.473 314.298C647.693 314.874 646.721 315.162 645.557 315.162C644.609 315.162 643.757 314.952 643.001 314.532C642.257 314.1 641.669 313.5 641.237 312.732C640.817 311.952 640.607 311.052 640.607 310.032C640.607 309.012 640.811 308.118 641.219 307.35C641.639 306.57 642.221 305.97 642.965 305.55C643.721 305.13 644.585 304.92 645.557 304.92C646.493 304.92 647.327 305.124 648.059 305.532C648.791 305.94 649.361 306.516 649.769 307.26C650.177 307.992 650.381 308.838 650.381 309.798ZM648.239 309.15C648.227 308.394 647.957 307.788 647.429 307.332C646.901 306.876 646.247 306.648 645.467 306.648C644.759 306.648 644.153 306.876 643.649 307.332C643.145 307.776 642.845 308.382 642.749 309.15H648.239ZM666.44 305.082L663.362 315H661.202L659.204 307.674L657.206 315H655.046L651.95 305.082H654.038L656.108 313.056L658.214 305.082H660.356L662.372 313.02L664.424 305.082H666.44Z" fill="#0B0C28"/>
<path d="M592.916 379H591.917V372.377L589.913 373.113V372.211L592.76 371.142H592.916V379ZM600.51 375.665C600.51 376.828 600.312 377.693 599.914 378.259C599.517 378.825 598.896 379.107 598.051 379.107C597.216 379.107 596.599 378.832 596.197 378.28C595.796 377.725 595.589 376.898 595.574 375.799V374.472C595.574 373.323 595.773 372.469 596.171 371.91C596.568 371.352 597.191 371.072 598.04 371.072C598.881 371.072 599.501 371.343 599.898 371.883C600.296 372.42 600.5 373.251 600.51 374.375V375.665ZM599.517 374.306C599.517 373.464 599.399 372.852 599.162 372.469C598.926 372.082 598.552 371.889 598.04 371.889C597.531 371.889 597.161 372.08 596.928 372.463C596.695 372.847 596.575 373.436 596.568 374.23V375.82C596.568 376.665 596.69 377.29 596.933 377.695C597.18 378.096 597.553 378.296 598.051 378.296C598.541 378.296 598.905 378.107 599.141 377.727C599.381 377.347 599.506 376.75 599.517 375.933V374.306ZM603.288 376.309L602.664 376.959V379H601.671V370.75H602.664V375.74L603.196 375.101L605.006 373.188H606.215L603.954 375.616L606.478 379H605.312L603.288 376.309Z" fill="#585858"/>
<path d="M599.699 406.738L596.46 414H595.418L598.646 406.996H594.414V406.18H599.699V406.738ZM602.852 410.364L601.896 411.357V414H600.864V406.18H601.896V410.047L605.371 406.18H606.617L603.539 409.633L606.859 414H605.623L602.852 410.364Z" fill="#585858"/>
<path d="M596.106 443.079L596.504 439.18H600.511V440.098H597.347L597.111 442.23C597.494 442.005 597.929 441.892 598.416 441.892C599.129 441.892 599.694 442.128 600.113 442.601C600.532 443.07 600.742 443.706 600.742 444.508C600.742 445.313 600.523 445.949 600.086 446.415C599.653 446.876 599.046 447.107 598.266 447.107C597.575 447.107 597.011 446.916 596.574 446.533C596.137 446.15 595.888 445.62 595.827 444.943H596.767C596.828 445.39 596.987 445.729 597.245 445.958C597.503 446.184 597.843 446.296 598.266 446.296C598.728 446.296 599.089 446.139 599.351 445.824C599.616 445.509 599.748 445.074 599.748 444.519C599.748 443.996 599.605 443.577 599.318 443.262C599.035 442.943 598.658 442.784 598.185 442.784C597.752 442.784 597.412 442.879 597.165 443.068L596.901 443.283L596.106 443.079ZM603.331 444.309L602.708 444.959V447H601.714V438.75H602.708V443.74L603.239 443.101L605.05 441.188H606.258L603.997 443.616L606.521 447H605.356L603.331 444.309Z" fill="#585858"/>
<path d="M648.172 415.008C648.172 414.581 648.052 414.242 647.812 413.992C647.578 413.737 647.177 413.503 646.609 413.289C646.042 413.076 645.552 412.865 645.141 412.656C644.729 412.443 644.375 412.201 644.078 411.93C643.786 411.654 643.557 411.331 643.391 410.961C643.229 410.591 643.148 410.151 643.148 409.641C643.148 408.76 643.43 408.039 643.992 407.477C644.555 406.914 645.302 406.586 646.234 406.492V404.82H647.484V406.516C648.406 406.646 649.128 407.031 649.648 407.672C650.169 408.307 650.43 409.133 650.43 410.148H648.172C648.172 409.523 648.042 409.057 647.781 408.75C647.526 408.438 647.182 408.281 646.75 408.281C646.323 408.281 645.992 408.404 645.758 408.648C645.523 408.888 645.406 409.221 645.406 409.648C645.406 410.044 645.521 410.362 645.75 410.602C645.979 410.841 646.404 411.086 647.023 411.336C647.648 411.586 648.161 411.823 648.562 412.047C648.964 412.266 649.302 412.516 649.578 412.797C649.854 413.073 650.065 413.391 650.211 413.75C650.357 414.104 650.43 414.518 650.43 414.992C650.43 415.878 650.154 416.596 649.602 417.148C649.049 417.701 648.289 418.026 647.32 418.125V419.68H646.078V418.133C645.01 418.018 644.182 417.641 643.594 417C643.01 416.354 642.719 415.497 642.719 414.43H644.977C644.977 415.049 645.122 415.526 645.414 415.859C645.711 416.188 646.135 416.352 646.688 416.352C647.146 416.352 647.508 416.232 647.773 415.992C648.039 415.747 648.172 415.419 648.172 415.008ZM658.321 413.719H659.61V415.539H658.321V418H656.063V415.539H651.399L651.297 414.117L656.039 406.625H658.321V413.719ZM653.547 413.719H656.063V409.703L655.914 409.961L653.547 413.719ZM661.188 420.852L660.008 420.234L660.29 419.727C660.639 419.091 660.818 418.458 660.829 417.828V416.078H662.735L662.727 417.641C662.722 418.219 662.576 418.802 662.29 419.391C662.003 419.979 661.636 420.466 661.188 420.852ZM671.509 409.648C671.509 410.201 671.371 410.69 671.095 411.117C670.819 411.544 670.438 411.885 669.954 412.141C670.506 412.406 670.944 412.773 671.267 413.242C671.589 413.706 671.751 414.253 671.751 414.883C671.751 415.893 671.407 416.693 670.72 417.281C670.032 417.865 669.097 418.156 667.915 418.156C666.733 418.156 665.795 417.862 665.103 417.273C664.41 416.685 664.063 415.888 664.063 414.883C664.063 414.253 664.225 413.703 664.548 413.234C664.871 412.766 665.306 412.401 665.853 412.141C665.368 411.885 664.988 411.544 664.712 411.117C664.441 410.69 664.306 410.201 664.306 409.648C664.306 408.68 664.629 407.909 665.274 407.336C665.92 406.758 666.798 406.469 667.907 406.469C669.011 406.469 669.886 406.755 670.532 407.328C671.183 407.896 671.509 408.669 671.509 409.648ZM669.485 414.719C669.485 414.224 669.342 413.828 669.056 413.531C668.769 413.234 668.384 413.086 667.899 413.086C667.42 413.086 667.037 413.234 666.751 413.531C666.464 413.823 666.321 414.219 666.321 414.719C666.321 415.203 666.462 415.594 666.743 415.891C667.024 416.188 667.415 416.336 667.915 416.336C668.405 416.336 668.787 416.193 669.063 415.906C669.345 415.62 669.485 415.224 669.485 414.719ZM669.251 409.758C669.251 409.315 669.134 408.961 668.899 408.695C668.665 408.424 668.334 408.289 667.907 408.289C667.485 408.289 667.157 408.419 666.923 408.68C666.688 408.94 666.571 409.299 666.571 409.758C666.571 410.211 666.688 410.576 666.923 410.852C667.157 411.128 667.488 411.266 667.915 411.266C668.342 411.266 668.67 411.128 668.899 410.852C669.134 410.576 669.251 410.211 669.251 409.758ZM680.697 407.891L676.298 418H673.915L678.322 408.453H672.665V406.625H680.697V407.891ZM687.111 413.453C686.522 414.031 685.835 414.32 685.048 414.32C684.043 414.32 683.239 413.977 682.634 413.289C682.03 412.596 681.728 411.664 681.728 410.492C681.728 409.747 681.89 409.065 682.213 408.445C682.541 407.82 682.996 407.336 683.58 406.992C684.163 406.643 684.819 406.469 685.548 406.469C686.298 406.469 686.965 406.656 687.548 407.031C688.132 407.406 688.585 407.945 688.908 408.648C689.231 409.352 689.395 410.156 689.4 411.062V411.898C689.4 413.794 688.929 415.284 687.986 416.367C687.043 417.451 685.707 418.029 683.978 418.102L683.423 418.109V416.227L683.923 416.219C685.887 416.13 686.949 415.208 687.111 413.453ZM685.603 412.594C685.968 412.594 686.28 412.5 686.541 412.312C686.806 412.125 687.007 411.898 687.142 411.633V410.703C687.142 409.938 686.996 409.344 686.705 408.922C686.413 408.5 686.022 408.289 685.533 408.289C685.08 408.289 684.707 408.497 684.416 408.914C684.124 409.326 683.978 409.844 683.978 410.469C683.978 411.089 684.119 411.599 684.4 412C684.686 412.396 685.088 412.594 685.603 412.594Z" fill="#4D53EF"/>
<path d="M644.026 433H642.796V425.891H644.026V433ZM646.331 427.717L646.365 428.327C646.756 427.855 647.269 427.619 647.904 427.619C649.004 427.619 649.564 428.249 649.583 429.509V433H648.397V429.577C648.397 429.242 648.323 428.994 648.177 428.835C648.034 428.672 647.798 428.591 647.469 428.591C646.99 428.591 646.634 428.807 646.4 429.24V433H645.213V427.717H646.331ZM652.767 432.15C653.063 432.15 653.309 432.064 653.504 431.892C653.7 431.719 653.804 431.506 653.817 431.252H654.935C654.922 431.581 654.819 431.888 654.627 432.175C654.435 432.458 654.175 432.683 653.846 432.849C653.517 433.015 653.162 433.098 652.782 433.098C652.043 433.098 651.457 432.858 651.024 432.38C650.591 431.901 650.374 431.241 650.374 430.397V430.275C650.374 429.471 650.589 428.828 651.019 428.347C651.449 427.862 652.035 427.619 652.777 427.619C653.405 427.619 653.916 427.803 654.31 428.171C654.707 428.535 654.915 429.016 654.935 429.611H653.817C653.804 429.309 653.7 429.06 653.504 428.864C653.312 428.669 653.066 428.571 652.767 428.571C652.383 428.571 652.087 428.711 651.878 428.991C651.67 429.268 651.564 429.689 651.561 430.256V430.446C651.561 431.019 651.663 431.447 651.869 431.73C652.077 432.01 652.376 432.15 652.767 432.15ZM658.397 428.801C658.241 428.775 658.08 428.762 657.914 428.762C657.37 428.762 657.004 428.97 656.815 429.387V433H655.629V427.717H656.761L656.791 428.308C657.077 427.849 657.474 427.619 657.982 427.619C658.151 427.619 658.291 427.642 658.402 427.688L658.397 428.801ZM661.176 433.098C660.424 433.098 659.813 432.862 659.345 432.39C658.879 431.914 658.646 431.283 658.646 430.495V430.349C658.646 429.821 658.747 429.351 658.949 428.938C659.154 428.521 659.441 428.197 659.808 427.966C660.176 427.735 660.586 427.619 661.039 427.619C661.758 427.619 662.313 427.849 662.704 428.308C663.098 428.767 663.295 429.416 663.295 430.256V430.734H659.843C659.878 431.171 660.023 431.516 660.277 431.77C660.534 432.023 660.857 432.15 661.244 432.15C661.788 432.15 662.23 431.931 662.572 431.491L663.212 432.102C663 432.417 662.717 432.663 662.362 432.839C662.011 433.011 661.615 433.098 661.176 433.098ZM661.034 428.571C660.708 428.571 660.445 428.685 660.243 428.913C660.044 429.141 659.917 429.458 659.862 429.865H662.123V429.777C662.097 429.38 661.991 429.081 661.805 428.879C661.62 428.674 661.363 428.571 661.034 428.571ZM667.177 433C667.125 432.899 667.079 432.735 667.04 432.507C666.662 432.901 666.2 433.098 665.653 433.098C665.123 433.098 664.69 432.946 664.354 432.644C664.019 432.341 663.852 431.966 663.852 431.521C663.852 430.957 664.06 430.526 664.477 430.227C664.896 429.924 665.495 429.772 666.273 429.772H667.001V429.426C667.001 429.152 666.924 428.934 666.771 428.771C666.618 428.605 666.386 428.522 666.073 428.522C665.803 428.522 665.582 428.591 665.409 428.728C665.237 428.861 665.15 429.032 665.15 429.24H663.964C663.964 428.951 664.06 428.68 664.252 428.43C664.444 428.176 664.704 427.977 665.033 427.834C665.365 427.691 665.735 427.619 666.142 427.619C666.76 427.619 667.253 427.775 667.621 428.088C667.989 428.397 668.178 428.833 668.188 429.396V431.779C668.188 432.255 668.254 432.634 668.388 432.917V433H667.177ZM665.873 432.146C666.107 432.146 666.327 432.089 666.532 431.975C666.741 431.861 666.897 431.708 667.001 431.516V430.52H666.361C665.922 430.52 665.591 430.596 665.37 430.749C665.149 430.902 665.038 431.118 665.038 431.398C665.038 431.626 665.113 431.809 665.263 431.945C665.416 432.079 665.619 432.146 665.873 432.146ZM672.192 431.564C672.192 431.353 672.104 431.192 671.928 431.081C671.755 430.97 671.467 430.873 671.064 430.788C670.66 430.703 670.323 430.596 670.053 430.466C669.46 430.179 669.164 429.764 669.164 429.221C669.164 428.765 669.356 428.384 669.74 428.078C670.125 427.772 670.613 427.619 671.205 427.619C671.837 427.619 672.346 427.775 672.734 428.088C673.124 428.4 673.32 428.806 673.32 429.304H672.133C672.133 429.076 672.048 428.887 671.879 428.737C671.71 428.584 671.485 428.508 671.205 428.508C670.945 428.508 670.732 428.568 670.566 428.688C670.403 428.809 670.321 428.97 670.321 429.172C670.321 429.354 670.398 429.496 670.551 429.597C670.704 429.698 671.013 429.8 671.479 429.904C671.944 430.005 672.309 430.127 672.572 430.271C672.839 430.41 673.036 430.58 673.163 430.778C673.293 430.977 673.359 431.218 673.359 431.501C673.359 431.976 673.162 432.362 672.768 432.658C672.374 432.951 671.858 433.098 671.22 433.098C670.787 433.098 670.401 433.02 670.063 432.863C669.724 432.707 669.46 432.492 669.272 432.219C669.083 431.945 668.988 431.651 668.988 431.335H670.141C670.157 431.615 670.263 431.831 670.458 431.984C670.654 432.134 670.912 432.209 671.235 432.209C671.547 432.209 671.785 432.15 671.947 432.033C672.11 431.913 672.192 431.757 672.192 431.564ZM676.523 433.098C675.771 433.098 675.161 432.862 674.692 432.39C674.226 431.914 673.994 431.283 673.994 430.495V430.349C673.994 429.821 674.094 429.351 674.296 428.938C674.501 428.521 674.788 428.197 675.156 427.966C675.524 427.735 675.934 427.619 676.386 427.619C677.106 427.619 677.661 427.849 678.051 428.308C678.445 428.767 678.642 429.416 678.642 430.256V430.734H675.19C675.226 431.171 675.371 431.516 675.624 431.77C675.882 432.023 676.204 432.15 676.591 432.15C677.135 432.15 677.578 431.931 677.919 431.491L678.559 432.102C678.347 432.417 678.064 432.663 677.709 432.839C677.358 433.011 676.962 433.098 676.523 433.098ZM676.381 428.571C676.056 428.571 675.792 428.685 675.59 428.913C675.392 429.141 675.265 429.458 675.209 429.865H677.47V429.777C677.444 429.38 677.338 429.081 677.153 428.879C676.967 428.674 676.71 428.571 676.381 428.571Z" fill="black"/>
<path d="M533.957 202.5C533.957 202.367 534.007 202.24 534.097 202.146C534.186 202.053 534.308 202 534.435 202H551.652C551.779 202 551.901 202.053 551.99 202.146C552.08 202.24 552.13 202.367 552.13 202.5C552.13 202.633 552.08 202.76 551.99 202.854C551.901 202.947 551.779 203 551.652 203H534.435C534.308 203 534.186 202.947 534.097 202.854C534.007 202.76 533.957 202.633 533.957 202.5Z" fill="white"/>
<path d="M553.781 180.355C554.181 180.633 554.788 181.479 554.213 182.681C553.735 183.678 552.74 184.898 551.681 185.22C551.426 185.304 551.158 185.329 550.893 185.296C550.628 185.262 550.373 185.169 550.146 185.024C549.094 184.366 547.853 183.476 547.327 183.094C546.663 183.445 545.825 183.518 544.974 183.289L544.962 183.285C545.012 184.936 545.547 185.967 548.161 188.505C550.491 190.766 551.873 193.736 551.86 196.451C551.85 198.232 551.229 199.761 550.061 200.87C549.973 200.955 549.858 201.001 549.739 201.001H536.348C536.221 201.001 536.099 200.949 536.01 200.855C535.92 200.761 535.87 200.634 535.87 200.501C535.87 200.369 535.92 200.242 536.01 200.148C536.099 200.054 536.221 200.001 536.348 200.001H549.549C550.428 199.096 550.895 197.871 550.902 196.446C550.915 194.044 549.614 191.281 547.509 189.238C544.721 186.532 544 185.25 544 183.001C544 182.96 544.013 182.924 544.022 182.886C543.499 182.591 543.046 182.201 542.737 181.729C542.35 181.139 541.516 179.624 542.135 178.283C542.162 178.224 542.2 178.171 542.247 178.128C542.294 178.084 542.349 178.051 542.408 178.029C542.468 178.007 542.53 177.998 542.593 178.002C542.656 178.006 542.717 178.023 542.774 178.051C542.83 178.08 542.881 178.12 542.923 178.169C542.964 178.218 542.996 178.275 543.017 178.337C543.038 178.399 543.046 178.465 543.043 178.531C543.039 178.596 543.023 178.66 542.996 178.719C542.717 179.322 542.915 180.236 543.526 181.164C543.878 181.7 544.507 182.133 545.21 182.321C545.924 182.512 546.604 182.428 547.077 182.089C547.158 182.032 547.253 182.001 547.351 182.002C547.448 182.002 547.544 182.034 547.623 182.093C547.64 182.105 549.323 183.344 550.635 184.167C550.75 184.241 550.88 184.288 551.014 184.304C551.148 184.321 551.284 184.306 551.412 184.261C552.152 184.035 552.966 183.049 553.356 182.235C553.67 181.577 553.348 181.263 553.202 181.151C549.905 178.174 548.25 175.081 548.182 174.95C548.15 174.89 548.131 174.823 548.125 174.755C548.119 174.686 548.127 174.617 548.147 174.551C548.354 173.884 548.527 173.205 548.664 172.518C547.663 173.148 545.943 174.028 544.151 174.028C541.66 174.028 535.87 175 535.87 184.004C535.87 184.053 535.878 188.948 537.754 194.331C537.776 194.393 537.786 194.459 537.784 194.525C537.782 194.591 537.767 194.656 537.74 194.716C537.714 194.776 537.676 194.83 537.63 194.875C537.583 194.92 537.529 194.954 537.469 194.977C537.41 195 537.347 195.01 537.283 195.006C537.22 195.003 537.158 194.987 537.101 194.959C537.044 194.93 536.993 194.89 536.951 194.841C536.908 194.792 536.876 194.735 536.855 194.672C534.922 189.124 534.912 184.206 534.913 184.001C534.913 173.818 541.985 173.027 544.151 173.027C546.551 173.027 548.945 171.124 548.968 171.104C549.04 171.048 549.124 171.014 549.213 171.005C549.302 170.996 549.392 171.012 549.472 171.053C549.552 171.095 549.62 171.158 549.667 171.238C549.714 171.317 549.739 171.408 549.739 171.501C549.739 172.482 549.294 174.069 549.121 174.648C549.521 175.346 551.097 177.929 553.781 180.355Z" fill="white"/>
<path d="M538.275 172.54C539.807 171.461 541.519 171 544 171C544.127 171 544.248 171.053 544.338 171.146C544.428 171.24 544.478 171.367 544.478 171.5C544.478 171.633 544.428 171.76 544.338 171.854C544.248 171.947 544.127 172 544 172C541.723 172 540.171 172.409 538.809 173.369C536.596 174.931 533.956 178.043 533.956 184C533.956 185.451 533.956 187.438 534.899 191.379C534.926 191.506 534.905 191.64 534.839 191.751C534.774 191.862 534.669 191.942 534.548 191.974C534.427 192.006 534.298 191.986 534.191 191.92C534.083 191.854 534.004 191.747 533.971 191.621C533 187.562 533 185.503 533 184C533 177.604 535.869 174.237 538.275 172.54Z" fill="white"/>
<defs>
<filter id="filter0_d" x="83" y="0.852661" width="694.773" height="596.513" filterUnits="userSpaceOnUse" color-interpolation-filters="sRGB">
<feFlood flood-opacity="0" result="BackgroundImageFix"/>
<feColorMatrix in="SourceAlpha" type="matrix" values="0 0 0 0 0 0 0 0 0 0 0 0 0 0 0 0 0 0 127 0"/>
<feOffset dy="4"/>
<feGaussianBlur stdDeviation="50"/>
<feColorMatrix type="matrix" values="0 0 0 0 0.300781 0 0 0 0 0.32625 0 0 0 0 0.9375 0 0 0 0.15 0"/>
<feBlend mode="normal" in2="BackgroundImageFix" result="effect1_dropShadow"/>
<feBlend mode="normal" in="SourceGraphic" in2="effect1_dropShadow" result="shape"/>
</filter>
<filter id="filter1_d" x="517" y="379" width="25" height="25" filterUnits="userSpaceOnUse" color-interpolation-filters="sRGB">
<feFlood flood-opacity="0" result="BackgroundImageFix"/>
<feColorMatrix in="SourceAlpha" type="matrix" values="0 0 0 0 0 0 0 0 0 0 0 0 0 0 0 0 0 0 127 0"/>
<feOffset dy="4"/>
<feGaussianBlur stdDeviation="2"/>
<feColorMatrix type="matrix" values="0 0 0 0 0 0 0 0 0 0 0 0 0 0 0 0 0 0 0.25 0"/>
<feBlend mode="normal" in2="BackgroundImageFix" result="effect1_dropShadow"/>
<feBlend mode="normal" in="SourceGraphic" in2="effect1_dropShadow" result="shape"/>
</filter>
<filter id="filter2_d" x="518" y="417" width="24" height="25" filterUnits="userSpaceOnUse" color-interpolation-filters="sRGB">
<feFlood flood-opacity="0" result="BackgroundImageFix"/>
<feColorMatrix in="SourceAlpha" type="matrix" values="0 0 0 0 0 0 0 0 0 0 0 0 0 0 0 0 0 0 127 0"/>
<feOffset dy="4"/>
<feGaussianBlur stdDeviation="2"/>
<feColorMatrix type="matrix" values="0 0 0 0 0 0 0 0 0 0 0 0 0 0 0 0 0 0 0.25 0"/>
<feBlend mode="normal" in2="BackgroundImageFix" result="effect1_dropShadow"/>
<feBlend mode="normal" in="SourceGraphic" in2="effect1_dropShadow" result="shape"/>
</filter>
<filter id="filter3_d" x="0" y="231" width="506" height="295" filterUnits="userSpaceOnUse" color-interpolation-filters="sRGB">
<feFlood flood-opacity="0" result="BackgroundImageFix"/>
<feColorMatrix in="SourceAlpha" type="matrix" values="0 0 0 0 0 0 0 0 0 0 0 0 0 0 0 0 0 0 127 0"/>
<feOffset dy="4"/>
<feGaussianBlur stdDeviation="50"/>
<feColorMatrix type="matrix" values="0 0 0 0 0 0 0 0 0 0 0 0 0 0 0 0 0 0 0.05 0"/>
<feBlend mode="normal" in2="BackgroundImageFix" result="effect1_dropShadow"/>
<feBlend mode="normal" in="SourceGraphic" in2="effect1_dropShadow" result="shape"/>
</filter>
<filter id="filter4_d" x="451" y="169" width="479" height="489" filterUnits="userSpaceOnUse" color-interpolation-filters="sRGB">
<feFlood flood-opacity="0" result="BackgroundImageFix"/>
<feColorMatrix in="SourceAlpha" type="matrix" values="0 0 0 0 0 0 0 0 0 0 0 0 0 0 0 0 0 0 127 0"/>
<feOffset dy="4"/>
<feGaussianBlur stdDeviation="50"/>
<feColorMatrix type="matrix" values="0 0 0 0 0.920833 0 0 0 0 0.920833 0 0 0 0 0.920833 0 0 0 1 0"/>
<feBlend mode="normal" in2="BackgroundImageFix" result="effect1_dropShadow"/>
<feBlend mode="normal" in="SourceGraphic" in2="effect1_dropShadow" result="shape"/>
</filter>
</defs>
</svg>
