<svg width="33" height="31" viewBox="0 0 33 31" fill="none" xmlns="http://www.w3.org/2000/svg">
<path d="M29.8293 6.84221L29.3417 6.98852L26.7448 7.20749L26.0113 8.3161L25.479 8.15604L23.4123 6.39248L23.1125 5.47535L22.711 4.49734L21.412 3.39462L19.8796 3.11084L19.8444 3.77463L21.3456 5.16113L22.0802 5.98006L21.2543 6.38855L20.582 6.201L19.5746 5.80332L19.6088 5.03446L18.2871 4.51992L17.8482 6.32767L16.516 6.61342L16.6478 7.62187L18.3835 7.93805L18.6834 6.32669L20.1162 6.527L20.7823 6.89621H21.8509L22.5823 8.28271L24.5214 10.1445L24.3793 10.8682L22.8158 10.6796L20.1141 11.9709L18.1688 14.1793L17.9156 15.1573H17.2174L15.9164 14.5897L14.6527 15.1573L14.967 16.4191L15.5169 15.8191L16.4839 15.7906L16.4164 16.9238L17.2174 17.1457L18.0173 17.996L19.3235 17.6484L20.8155 17.8713L22.5481 18.3122L23.4134 18.4085L24.8804 19.9845L27.7118 21.5605L25.8806 24.8716L23.9477 25.7219L23.2142 27.6141L20.4171 29.3816L20.1193 30.4009C27.2698 28.7709 32.5891 22.6917 32.5891 15.4234C32.587 12.2488 31.5702 9.29411 29.8293 6.84221Z" fill="white"/>
<path d="M18.1678 23.4847L16.9809 21.4021L18.0702 19.2536L16.9809 18.9453L15.7576 17.7827L13.0477 17.2073L12.1482 15.4261V16.4837H11.7518L9.4164 13.4868V11.0252L7.70452 8.39068L4.98625 8.84924H3.15505L2.23375 8.27776L3.40924 7.396L2.23686 7.65228C0.82378 9.93622 0 12.5864 0 15.4251C0 23.9413 7.2947 30.8481 16.294 30.8481C16.9871 30.8481 17.6666 30.7902 18.3389 30.7136L18.1688 28.845C18.1688 28.845 18.9168 26.0701 18.9168 25.9759C18.9158 25.8806 18.1678 23.4847 18.1678 23.4847Z" fill="white"/>
<path d="M6.05485 4.97357L8.94949 4.59159L10.2837 3.89932L11.785 4.30879L14.1837 4.1831L15.0054 2.96058L16.2037 3.14715L19.1139 2.88889L19.9159 2.05227L21.0468 1.33741L22.6466 1.56523L23.2297 1.48176C21.1225 0.543018 18.7778 0 16.2929 0C11.2351 0 6.71262 2.18189 3.72668 5.60791H3.73498L6.05485 4.97357ZM16.9819 1.5338L18.646 0.666743L19.7146 1.251L18.1677 2.36551L16.6903 2.50593L16.0253 2.09744L16.9819 1.5338ZM12.0527 1.66048L12.7872 1.95015L13.749 1.66048L14.2729 2.51968L12.0527 3.07154L10.9851 2.4804C10.984 2.4804 12.0288 1.8441 12.0527 1.66048Z" fill="white"/>
</svg>
