<svg width="62" height="62" viewBox="0 0 62 62" fill="none" xmlns="http://www.w3.org/2000/svg">
<circle cx="31" cy="31" r="31" fill="#DDF5FF"/>
<path d="M30 17C28.8459 17 27.8753 17.7988 27.6107 18.8723C24.9402 19.3965 22.504 20.7979 20.6958 22.8643C18.7256 25.1156 17.6406 28.005 17.6406 31C17.6406 31.453 18.0079 31.8203 18.4609 31.8203C18.914 31.8203 19.2812 31.453 19.2812 31C19.2812 28.4025 20.2221 25.8969 21.9305 23.9447C23.465 22.1911 25.5197 20.9892 27.7755 20.5124C28.1706 21.3448 29.019 21.9219 30 21.9219C31.357 21.9219 32.4609 20.8179 32.4609 19.4609C32.4609 18.104 31.357 17 30 17Z" fill="#57CBFD"/>
<path d="M37.0309 29.5105C36.8325 29.3725 36.4551 29.1543 36.1861 29.0381L35.7613 28.0127C35.8662 27.7485 35.9808 27.3257 36.0247 27.0814C36.0722 26.817 35.9873 26.5462 35.7974 26.3562L34.6436 25.2024C34.4536 25.0125 34.1827 24.9275 33.9184 24.9751C33.6778 25.0184 33.2578 25.1311 32.9871 25.2385L31.9617 24.8137C31.8493 24.5533 31.6313 24.173 31.4894 23.9689C31.336 23.7484 31.0845 23.6169 30.8159 23.6169H29.1842C28.9156 23.6169 28.664 23.7484 28.5107 23.9689C28.3727 24.1673 28.1546 24.5447 28.0384 24.8137L27.013 25.2385C26.7487 25.1336 26.3259 25.019 26.0816 24.9751C25.8174 24.9277 25.5464 25.0126 25.3565 25.2024L24.2027 26.3562C24.0128 26.5462 23.9278 26.817 23.9754 27.0814C24.0186 27.322 24.1313 27.742 24.2387 28.0127L23.814 29.0381C23.5535 29.1506 23.1732 29.3685 22.9692 29.5105C22.7487 29.6638 22.6172 29.9154 22.6172 30.1839V31.8156C22.6172 32.0842 22.7487 32.3358 22.9692 32.4891C23.1675 32.6271 23.5449 32.8452 23.814 32.9615L24.2387 33.9868C24.1339 34.2511 24.0193 34.6739 23.9754 34.9182C23.9278 35.1825 24.0128 35.4534 24.2027 35.6433L25.3565 36.7971C25.5464 36.9871 25.8171 37.0719 26.0816 37.0245C26.3222 36.9812 26.7423 36.8685 27.013 36.7611L28.0384 37.1858C28.1508 37.4463 28.3687 37.8266 28.5107 38.0307C28.664 38.2512 28.9156 38.3826 29.1842 38.3826H30.8159C31.0845 38.3826 31.336 38.2512 31.4894 38.0307C31.6273 37.8323 31.8455 37.4549 31.9617 37.1858L32.9871 36.7611C33.2513 36.8659 33.6741 36.9805 33.9184 37.0245C34.1828 37.072 34.4536 36.9871 34.6436 36.7971L35.7974 35.6433C35.9873 35.4534 36.0722 35.1825 36.0247 34.9182C35.9814 34.6776 35.8687 34.2575 35.7613 33.9868L36.1861 32.9615C36.4465 32.849 36.8269 32.6311 37.0309 32.4891C37.2514 32.3358 37.3829 32.0842 37.3829 31.8156V30.1839C37.3829 29.9154 37.2514 29.6638 37.0309 29.5105ZM30 34.2811C28.1907 34.2811 26.7188 32.8091 26.7188 30.9999C26.7188 29.1906 28.1907 27.7186 30 27.7186C31.8093 27.7186 33.2812 29.1906 33.2812 30.9999C33.2812 32.8091 31.8093 34.2811 30 34.2811Z" fill="#57CBFD"/>
<path d="M41.5391 30.1797C41.086 30.1797 40.7188 30.547 40.7188 31C40.7188 33.5975 39.7779 36.1031 38.0695 38.0553C36.535 39.8089 34.4803 41.0108 32.2245 41.4876C31.8294 40.6552 30.981 40.0781 30 40.0781C28.643 40.0781 27.5391 41.1821 27.5391 42.5391C27.5391 43.896 28.643 45 30 45C31.1541 45 32.1247 44.2012 32.3893 43.1277C35.0598 42.6035 37.496 41.2021 39.3042 39.1357C41.2744 36.8844 42.3594 33.995 42.3594 31C42.3594 30.547 41.9921 30.1797 41.5391 30.1797Z" fill="#57CBFD"/>
</svg>
