<svg width="62" height="62" viewBox="0 0 62 62" fill="none" xmlns="http://www.w3.org/2000/svg">
<circle cx="31" cy="31" r="31" fill="#F8F2FF"/>
<path d="M30 20.1667C24.0265 20.1667 19.1667 25.0266 19.1667 31.0001C19.1667 36.9736 24.0265 41.8334 30 41.8334C35.9735 41.8334 40.8334 36.9736 40.8334 31.0001C40.8334 25.0266 35.9735 20.1667 30 20.1667ZM30 39.6667C25.2214 39.6667 21.3334 35.7787 21.3334 31.0001C21.3334 26.2215 25.2214 22.3334 30 22.3334C34.7786 22.3334 38.6667 26.2215 38.6667 31.0001C38.6667 35.7787 34.7786 39.6667 30 39.6667Z" fill="#9143F4"/>
<path d="M31.0834 25.5833H28.9167V31.4484L32.4841 35.0158L34.0159 33.484L31.0834 30.5514V25.5833Z" fill="#9143F4"/>
</svg>
