<svg width="29" height="30" viewBox="0 0 29 30" fill="none" xmlns="http://www.w3.org/2000/svg">
<path d="M28.7338 12.6162H14.7951V18.1347H22.7579C22.4145 19.9184 21.3729 21.4272 19.8027 22.438C18.4756 23.2927 16.782 23.7981 14.7913 23.7981C10.9372 23.7981 7.67726 21.2897 6.51217 17.9191C6.21897 17.0644 6.04922 16.1502 6.04922 15.2101C6.04922 14.2699 6.21897 13.3557 6.51217 12.501C7.68112 9.13414 10.9411 6.62574 14.7951 6.62574C16.9671 6.62574 18.9154 7.34667 20.4508 8.75881L24.6946 4.66733C22.129 2.36331 18.7842 0.951172 14.7951 0.951172C9.01211 0.951172 4.00838 4.14706 1.57403 8.80712C0.570973 10.7321 0 12.9098 0 15.2138C0 17.5178 0.570973 19.6917 1.57403 21.6167C4.00838 26.2768 9.01211 29.4727 14.7951 29.4727C18.7919 29.4727 22.1406 28.1943 24.5865 26.0166C27.3835 23.5342 29 19.8775 29 15.5334C29 14.5226 28.9074 13.5527 28.7338 12.6162Z" fill="black"/>
</svg>
