<svg width="780" height="617" viewBox="0 0 780 617" fill="none" xmlns="http://www.w3.org/2000/svg">
<g filter="url(#filter0_d)">
<rect x="139" y="96" width="516.37" height="417" rx="10" fill="white"/>
</g>
<path d="M185.23 459.662H182.945V466H182.013V459.662H179.732V458.891H185.23V459.662ZM187.848 466.098C187.132 466.098 186.549 465.863 186.1 465.395C185.65 464.923 185.426 464.293 185.426 463.505V463.339C185.426 462.815 185.525 462.348 185.724 461.938C185.925 461.524 186.205 461.202 186.563 460.971C186.925 460.736 187.315 460.619 187.735 460.619C188.422 460.619 188.956 460.845 189.337 461.298C189.718 461.75 189.908 462.398 189.908 463.241V463.617H186.329C186.342 464.138 186.493 464.56 186.783 464.882C187.076 465.201 187.447 465.36 187.896 465.36C188.215 465.36 188.486 465.295 188.707 465.165C188.928 465.035 189.122 464.862 189.288 464.647L189.84 465.077C189.397 465.757 188.733 466.098 187.848 466.098ZM187.735 461.361C187.371 461.361 187.065 461.495 186.817 461.762C186.57 462.025 186.417 462.396 186.358 462.875H189.005V462.807C188.979 462.348 188.855 461.993 188.634 461.742C188.412 461.488 188.113 461.361 187.735 461.361ZM192.73 462.646L193.902 460.717H194.957L193.229 463.329L195.011 466H193.966L192.745 464.022L191.524 466H190.475L192.257 463.329L190.528 460.717H191.573L192.73 462.646ZM197.145 459.438V460.717H198.131V461.415H197.145V464.691C197.145 464.903 197.188 465.062 197.276 465.17C197.364 465.274 197.514 465.326 197.726 465.326C197.83 465.326 197.973 465.307 198.155 465.268V466C197.918 466.065 197.687 466.098 197.462 466.098C197.058 466.098 196.754 465.976 196.549 465.731C196.344 465.487 196.241 465.141 196.241 464.691V461.415H195.279V460.717H196.241V459.438H197.145Z" fill="#A3A3A3"/>
<path d="M291.23 459.662H288.945V466H288.013V459.662H285.732V458.891H291.23V459.662ZM293.848 466.098C293.132 466.098 292.549 465.863 292.1 465.395C291.65 464.923 291.426 464.293 291.426 463.505V463.339C291.426 462.815 291.525 462.348 291.724 461.938C291.925 461.524 292.205 461.202 292.563 460.971C292.925 460.736 293.315 460.619 293.735 460.619C294.422 460.619 294.956 460.845 295.337 461.298C295.718 461.75 295.908 462.398 295.908 463.241V463.617H292.329C292.342 464.138 292.493 464.56 292.783 464.882C293.076 465.201 293.447 465.36 293.896 465.36C294.215 465.36 294.486 465.295 294.707 465.165C294.928 465.035 295.122 464.862 295.288 464.647L295.84 465.077C295.397 465.757 294.733 466.098 293.848 466.098ZM293.735 461.361C293.371 461.361 293.065 461.495 292.817 461.762C292.57 462.025 292.417 462.396 292.358 462.875H295.005V462.807C294.979 462.348 294.855 461.993 294.634 461.742C294.412 461.488 294.113 461.361 293.735 461.361ZM298.73 462.646L299.902 460.717H300.957L299.229 463.329L301.011 466H299.966L298.745 464.022L297.524 466H296.475L298.257 463.329L296.528 460.717H297.573L298.73 462.646ZM303.145 459.438V460.717H304.131V461.415H303.145V464.691C303.145 464.903 303.188 465.062 303.276 465.17C303.364 465.274 303.514 465.326 303.726 465.326C303.83 465.326 303.973 465.307 304.155 465.268V466C303.918 466.065 303.687 466.098 303.462 466.098C303.058 466.098 302.754 465.976 302.549 465.731C302.344 465.487 302.241 465.141 302.241 464.691V461.415H301.279V460.717H302.241V459.438H303.145Z" fill="#A3A3A3"/>
<path d="M398.23 459.662H395.945V466H395.013V459.662H392.732V458.891H398.23V459.662ZM400.848 466.098C400.132 466.098 399.549 465.863 399.1 465.395C398.65 464.923 398.426 464.293 398.426 463.505V463.339C398.426 462.815 398.525 462.348 398.724 461.938C398.925 461.524 399.205 461.202 399.563 460.971C399.925 460.736 400.315 460.619 400.735 460.619C401.422 460.619 401.956 460.845 402.337 461.298C402.718 461.75 402.908 462.398 402.908 463.241V463.617H399.329C399.342 464.138 399.493 464.56 399.783 464.882C400.076 465.201 400.447 465.36 400.896 465.36C401.215 465.36 401.486 465.295 401.707 465.165C401.928 465.035 402.122 464.862 402.288 464.647L402.84 465.077C402.397 465.757 401.733 466.098 400.848 466.098ZM400.735 461.361C400.371 461.361 400.065 461.495 399.817 461.762C399.57 462.025 399.417 462.396 399.358 462.875H402.005V462.807C401.979 462.348 401.855 461.993 401.634 461.742C401.412 461.488 401.113 461.361 400.735 461.361ZM405.73 462.646L406.902 460.717H407.957L406.229 463.329L408.011 466H406.966L405.745 464.022L404.524 466H403.475L405.257 463.329L403.528 460.717H404.573L405.73 462.646ZM410.145 459.438V460.717H411.131V461.415H410.145V464.691C410.145 464.903 410.188 465.062 410.276 465.17C410.364 465.274 410.514 465.326 410.726 465.326C410.83 465.326 410.973 465.307 411.155 465.268V466C410.918 466.065 410.687 466.098 410.462 466.098C410.058 466.098 409.754 465.976 409.549 465.731C409.344 465.487 409.241 465.141 409.241 464.691V461.415H408.279V460.717H409.241V459.438H410.145Z" fill="#A3A3A3"/>
<path d="M504.23 459.662H501.945V466H501.013V459.662H498.732V458.891H504.23V459.662ZM506.848 466.098C506.132 466.098 505.549 465.863 505.1 465.395C504.65 464.923 504.426 464.293 504.426 463.505V463.339C504.426 462.815 504.525 462.348 504.724 461.938C504.925 461.524 505.205 461.202 505.563 460.971C505.925 460.736 506.315 460.619 506.735 460.619C507.422 460.619 507.956 460.845 508.337 461.298C508.718 461.75 508.908 462.398 508.908 463.241V463.617H505.329C505.342 464.138 505.493 464.56 505.783 464.882C506.076 465.201 506.447 465.36 506.896 465.36C507.215 465.36 507.486 465.295 507.707 465.165C507.928 465.035 508.122 464.862 508.288 464.647L508.84 465.077C508.397 465.757 507.733 466.098 506.848 466.098ZM506.735 461.361C506.371 461.361 506.065 461.495 505.817 461.762C505.57 462.025 505.417 462.396 505.358 462.875H508.005V462.807C507.979 462.348 507.855 461.993 507.634 461.742C507.412 461.488 507.113 461.361 506.735 461.361ZM511.73 462.646L512.902 460.717H513.957L512.229 463.329L514.011 466H512.966L511.745 464.022L510.524 466H509.475L511.257 463.329L509.528 460.717H510.573L511.73 462.646ZM516.145 459.438V460.717H517.131V461.415H516.145V464.691C516.145 464.903 516.188 465.062 516.276 465.17C516.364 465.274 516.514 465.326 516.726 465.326C516.83 465.326 516.973 465.307 517.155 465.268V466C516.918 466.065 516.687 466.098 516.462 466.098C516.058 466.098 515.754 465.976 515.549 465.731C515.344 465.487 515.241 465.141 515.241 464.691V461.415H514.279V460.717H515.241V459.438H516.145Z" fill="#A3A3A3"/>
<path d="M611.23 459.662H608.945V466H608.013V459.662H605.732V458.891H611.23V459.662ZM613.848 466.098C613.132 466.098 612.549 465.863 612.1 465.395C611.65 464.923 611.426 464.293 611.426 463.505V463.339C611.426 462.815 611.525 462.348 611.724 461.938C611.925 461.524 612.205 461.202 612.563 460.971C612.925 460.736 613.315 460.619 613.735 460.619C614.422 460.619 614.956 460.845 615.337 461.298C615.718 461.75 615.908 462.398 615.908 463.241V463.617H612.329C612.342 464.138 612.493 464.56 612.783 464.882C613.076 465.201 613.447 465.36 613.896 465.36C614.215 465.36 614.486 465.295 614.707 465.165C614.928 465.035 615.122 464.862 615.288 464.647L615.84 465.077C615.397 465.757 614.733 466.098 613.848 466.098ZM613.735 461.361C613.371 461.361 613.065 461.495 612.817 461.762C612.57 462.025 612.417 462.396 612.358 462.875H615.005V462.807C614.979 462.348 614.855 461.993 614.634 461.742C614.412 461.488 614.113 461.361 613.735 461.361ZM618.73 462.646L619.902 460.717H620.957L619.229 463.329L621.011 466H619.966L618.745 464.022L617.524 466H616.475L618.257 463.329L616.528 460.717H617.573L618.73 462.646ZM623.145 459.438V460.717H624.131V461.415H623.145V464.691C623.145 464.903 623.188 465.062 623.276 465.17C623.364 465.274 623.514 465.326 623.726 465.326C623.83 465.326 623.973 465.307 624.155 465.268V466C623.918 466.065 623.687 466.098 623.462 466.098C623.058 466.098 622.754 465.976 622.549 465.731C622.344 465.487 622.241 465.141 622.241 464.691V461.415H621.279V460.717H622.241V459.438H623.145Z" fill="#A3A3A3"/>
<path d="M178.434 447.968C178.434 449.026 178.253 449.812 177.892 450.326C177.53 450.84 176.965 451.098 176.197 451.098C175.439 451.098 174.877 450.847 174.513 450.346C174.148 449.841 173.959 449.089 173.946 448.09V446.884C173.946 445.839 174.127 445.062 174.488 444.555C174.85 444.047 175.416 443.793 176.188 443.793C176.952 443.793 177.516 444.039 177.877 444.53C178.238 445.019 178.424 445.774 178.434 446.796V447.968ZM177.53 446.732C177.53 445.967 177.423 445.411 177.208 445.062C176.993 444.711 176.653 444.535 176.188 444.535C175.725 444.535 175.388 444.709 175.177 445.058C174.965 445.406 174.856 445.941 174.85 446.664V448.109C174.85 448.878 174.96 449.446 175.182 449.813C175.406 450.178 175.745 450.36 176.197 450.36C176.643 450.36 176.974 450.188 177.188 449.843C177.407 449.498 177.521 448.954 177.53 448.212V446.732Z" fill="#A3A3A3"/>
<path d="M171.329 412H170.421V405.979L168.6 406.648V405.828L171.188 404.856H171.329V412ZM178.434 408.968C178.434 410.026 178.253 410.812 177.892 411.326C177.53 411.84 176.965 412.098 176.197 412.098C175.439 412.098 174.877 411.847 174.513 411.346C174.148 410.841 173.959 410.089 173.946 409.09V407.884C173.946 406.839 174.127 406.062 174.488 405.555C174.85 405.047 175.416 404.793 176.188 404.793C176.952 404.793 177.516 405.039 177.877 405.53C178.238 406.019 178.424 406.774 178.434 407.796V408.968ZM177.53 407.732C177.53 406.967 177.423 406.411 177.208 406.062C176.993 405.711 176.653 405.535 176.188 405.535C175.725 405.535 175.388 405.709 175.177 406.058C174.965 406.406 174.856 406.941 174.85 407.664V409.109C174.85 409.878 174.96 410.446 175.182 410.813C175.406 411.178 175.745 411.36 176.197 411.36C176.643 411.36 176.974 411.188 177.188 410.843C177.407 410.498 177.521 409.954 177.53 409.212V407.732Z" fill="#A3A3A3"/>
<path d="M173.019 373H168.36V372.351L170.821 369.616C171.186 369.203 171.437 368.868 171.573 368.61C171.713 368.35 171.783 368.081 171.783 367.805C171.783 367.434 171.671 367.129 171.446 366.892C171.222 366.654 170.922 366.535 170.548 366.535C170.099 366.535 169.749 366.664 169.498 366.921C169.251 367.175 169.127 367.53 169.127 367.985H168.224C168.224 367.331 168.434 366.802 168.854 366.398C169.277 365.995 169.841 365.793 170.548 365.793C171.209 365.793 171.731 365.967 172.115 366.315C172.499 366.66 172.691 367.121 172.691 367.697C172.691 368.397 172.245 369.23 171.354 370.197L169.449 372.263H173.019V373ZM178.434 369.968C178.434 371.026 178.253 371.812 177.892 372.326C177.53 372.84 176.965 373.098 176.197 373.098C175.439 373.098 174.877 372.847 174.513 372.346C174.148 371.841 173.959 371.089 173.946 370.09V368.884C173.946 367.839 174.127 367.062 174.488 366.555C174.85 366.047 175.416 365.793 176.188 365.793C176.952 365.793 177.516 366.039 177.877 366.53C178.238 367.019 178.424 367.774 178.434 368.796V369.968ZM177.53 368.732C177.53 367.967 177.423 367.411 177.208 367.062C176.993 366.711 176.653 366.535 176.188 366.535C175.725 366.535 175.388 366.709 175.177 367.058C174.965 367.406 174.856 367.941 174.85 368.664V370.109C174.85 370.878 174.96 371.446 175.182 371.813C175.406 372.178 175.745 372.36 176.197 372.36C176.643 372.36 176.974 372.188 177.188 371.843C177.407 371.498 177.521 370.954 177.53 370.212V368.732Z" fill="#A3A3A3"/>
<path d="M169.674 329.006H170.353C170.779 328.999 171.114 328.887 171.358 328.669C171.603 328.451 171.725 328.156 171.725 327.785C171.725 326.952 171.31 326.535 170.479 326.535C170.089 326.535 169.776 326.647 169.542 326.872C169.311 327.093 169.195 327.388 169.195 327.756H168.292C168.292 327.193 168.497 326.726 168.907 326.354C169.321 325.98 169.845 325.793 170.479 325.793C171.15 325.793 171.676 325.97 172.057 326.325C172.438 326.68 172.628 327.173 172.628 327.805C172.628 328.114 172.527 328.413 172.325 328.703C172.127 328.993 171.855 329.209 171.51 329.353C171.9 329.476 172.201 329.681 172.413 329.968C172.628 330.254 172.735 330.604 172.735 331.018C172.735 331.656 172.527 332.162 172.11 332.536C171.694 332.91 171.152 333.098 170.484 333.098C169.817 333.098 169.273 332.917 168.854 332.556C168.437 332.194 168.229 331.717 168.229 331.125H169.137C169.137 331.499 169.259 331.799 169.503 332.023C169.747 332.248 170.074 332.36 170.484 332.36C170.921 332.36 171.254 332.246 171.485 332.019C171.716 331.791 171.832 331.464 171.832 331.037C171.832 330.624 171.705 330.306 171.451 330.085C171.197 329.864 170.831 329.75 170.353 329.743H169.674V329.006ZM178.434 329.968C178.434 331.026 178.253 331.812 177.892 332.326C177.53 332.84 176.965 333.098 176.197 333.098C175.439 333.098 174.877 332.847 174.513 332.346C174.148 331.841 173.959 331.089 173.946 330.09V328.884C173.946 327.839 174.127 327.062 174.488 326.555C174.85 326.047 175.416 325.793 176.188 325.793C176.952 325.793 177.516 326.039 177.877 326.53C178.238 327.019 178.424 327.774 178.434 328.796V329.968ZM177.53 328.732C177.53 327.967 177.423 327.411 177.208 327.062C176.993 326.711 176.653 326.535 176.188 326.535C175.725 326.535 175.388 326.709 175.177 327.058C174.965 327.406 174.856 327.941 174.85 328.664V330.109C174.85 330.878 174.96 331.446 175.182 331.813C175.406 332.178 175.745 332.36 176.197 332.36C176.643 332.36 176.974 332.188 177.188 331.843C177.407 331.498 177.521 330.954 177.53 330.212V328.732Z" fill="#A3A3A3"/>
<path d="M172.174 291.612H173.16V292.35H172.174V294H171.266V292.35H168.028V291.817L171.212 286.891H172.174V291.612ZM169.054 291.612H171.266V288.126L171.158 288.321L169.054 291.612ZM178.434 290.968C178.434 292.026 178.253 292.812 177.892 293.326C177.53 293.84 176.965 294.098 176.197 294.098C175.439 294.098 174.877 293.847 174.513 293.346C174.148 292.841 173.959 292.089 173.946 291.09V289.884C173.946 288.839 174.127 288.062 174.488 287.555C174.85 287.047 175.416 286.793 176.188 286.793C176.952 286.793 177.516 287.039 177.877 287.53C178.238 288.019 178.424 288.774 178.434 289.796V290.968ZM177.53 289.732C177.53 288.967 177.423 288.411 177.208 288.062C176.993 287.711 176.653 287.535 176.188 287.535C175.725 287.535 175.388 287.709 175.177 288.058C174.965 288.406 174.856 288.941 174.85 289.664V291.109C174.85 291.878 174.96 292.446 175.182 292.813C175.406 293.178 175.745 293.36 176.197 293.36C176.643 293.36 176.974 293.188 177.188 292.843C177.407 292.498 177.521 291.954 177.53 291.212V289.732Z" fill="#A3A3A3"/>
<path d="M168.775 251.436L169.137 247.891H172.779V248.726H169.903L169.688 250.664C170.037 250.459 170.432 250.356 170.875 250.356C171.523 250.356 172.037 250.571 172.418 251.001C172.799 251.427 172.989 252.005 172.989 252.734C172.989 253.467 172.791 254.045 172.394 254.468C172 254.888 171.448 255.098 170.738 255.098C170.11 255.098 169.597 254.924 169.2 254.575C168.803 254.227 168.577 253.745 168.521 253.13H169.376C169.431 253.537 169.576 253.844 169.811 254.053C170.045 254.258 170.354 254.36 170.738 254.36C171.158 254.36 171.487 254.217 171.725 253.931C171.965 253.644 172.086 253.249 172.086 252.744C172.086 252.269 171.956 251.888 171.695 251.602C171.438 251.312 171.095 251.167 170.665 251.167C170.271 251.167 169.962 251.253 169.737 251.426L169.498 251.621L168.775 251.436ZM178.434 251.968C178.434 253.026 178.253 253.812 177.892 254.326C177.53 254.84 176.965 255.098 176.197 255.098C175.439 255.098 174.877 254.847 174.513 254.346C174.148 253.841 173.959 253.089 173.946 252.09V250.884C173.946 249.839 174.127 249.062 174.488 248.555C174.85 248.047 175.416 247.793 176.188 247.793C176.952 247.793 177.516 248.039 177.877 248.53C178.238 249.019 178.424 249.774 178.434 250.796V251.968ZM177.53 250.732C177.53 249.967 177.423 249.411 177.208 249.062C176.993 248.711 176.653 248.535 176.188 248.535C175.725 248.535 175.388 248.709 175.177 249.058C174.965 249.406 174.856 249.941 174.85 250.664V252.109C174.85 252.878 174.96 253.446 175.182 253.813C175.406 254.178 175.745 254.36 176.197 254.36C176.643 254.36 176.974 254.188 177.188 253.843C177.407 253.498 177.521 252.954 177.53 252.212V250.732Z" fill="#A3A3A3"/>
<path d="M171.905 208.886V209.652H171.739C171.036 209.665 170.476 209.874 170.06 210.277C169.643 210.681 169.402 211.249 169.337 211.981C169.711 211.552 170.222 211.337 170.87 211.337C171.489 211.337 171.982 211.555 172.35 211.991C172.721 212.427 172.906 212.991 172.906 213.681C172.906 214.413 172.706 214.999 172.306 215.438C171.909 215.878 171.375 216.098 170.704 216.098C170.024 216.098 169.472 215.837 169.049 215.316C168.626 214.792 168.414 214.118 168.414 213.295V212.948C168.414 211.64 168.692 210.64 169.249 209.95C169.809 209.257 170.641 208.902 171.744 208.886H171.905ZM170.719 212.089C170.41 212.089 170.125 212.182 169.864 212.367C169.604 212.553 169.423 212.785 169.322 213.065V213.397C169.322 213.983 169.454 214.455 169.718 214.813C169.981 215.172 170.31 215.351 170.704 215.351C171.111 215.351 171.43 215.201 171.661 214.901C171.896 214.602 172.013 214.21 172.013 213.725C172.013 213.236 171.894 212.842 171.656 212.543C171.422 212.24 171.109 212.089 170.719 212.089ZM178.434 212.968C178.434 214.026 178.253 214.812 177.892 215.326C177.53 215.84 176.965 216.098 176.197 216.098C175.439 216.098 174.877 215.847 174.513 215.346C174.148 214.841 173.959 214.089 173.946 213.09V211.884C173.946 210.839 174.127 210.062 174.488 209.555C174.85 209.047 175.416 208.793 176.188 208.793C176.952 208.793 177.516 209.039 177.877 209.53C178.238 210.019 178.424 210.774 178.434 211.796V212.968ZM177.53 211.732C177.53 210.967 177.423 210.411 177.208 210.062C176.993 209.711 176.653 209.535 176.188 209.535C175.725 209.535 175.388 209.709 175.177 210.058C174.965 210.406 174.856 210.941 174.85 211.664V213.109C174.85 213.878 174.96 214.446 175.182 214.813C175.406 215.178 175.745 215.36 176.197 215.36C176.643 215.36 176.974 215.188 177.188 214.843C177.407 214.498 177.521 213.954 177.53 213.212V211.732Z" fill="#A3A3A3"/>
<path d="M172.95 169.398L170.006 176H169.059L171.993 169.633H168.146V168.891H172.95V169.398ZM178.434 172.968C178.434 174.026 178.253 174.812 177.892 175.326C177.53 175.84 176.965 176.098 176.197 176.098C175.439 176.098 174.877 175.847 174.513 175.346C174.148 174.841 173.959 174.089 173.946 173.09V171.884C173.946 170.839 174.127 170.062 174.488 169.555C174.85 169.047 175.416 168.793 176.188 168.793C176.952 168.793 177.516 169.039 177.877 169.53C178.238 170.019 178.424 170.774 178.434 171.796V172.968ZM177.53 171.732C177.53 170.967 177.423 170.411 177.208 170.062C176.993 169.711 176.653 169.535 176.188 169.535C175.725 169.535 175.388 169.709 175.177 170.058C174.965 170.406 174.856 170.941 174.85 171.664V173.109C174.85 173.878 174.96 174.446 175.182 174.813C175.406 175.178 175.745 175.36 176.197 175.36C176.643 175.36 176.974 175.188 177.188 174.843C177.407 174.498 177.521 173.954 177.53 173.212V171.732Z" fill="#A3A3A3"/>
<path d="M172.672 131.746C172.672 132.101 172.577 132.417 172.389 132.693C172.203 132.97 171.951 133.187 171.632 133.343C172.003 133.502 172.296 133.735 172.511 134.041C172.729 134.347 172.838 134.694 172.838 135.081C172.838 135.696 172.63 136.186 172.213 136.551C171.799 136.915 171.254 137.098 170.577 137.098C169.894 137.098 169.345 136.915 168.932 136.551C168.521 136.183 168.316 135.693 168.316 135.081C168.316 134.697 168.421 134.35 168.629 134.041C168.84 133.732 169.132 133.497 169.503 133.338C169.187 133.182 168.938 132.965 168.756 132.688C168.574 132.412 168.482 132.098 168.482 131.746C168.482 131.147 168.674 130.672 169.059 130.32C169.443 129.969 169.949 129.793 170.577 129.793C171.202 129.793 171.707 129.969 172.091 130.32C172.478 130.672 172.672 131.147 172.672 131.746ZM171.935 135.062C171.935 134.664 171.808 134.34 171.554 134.09C171.303 133.839 170.974 133.714 170.567 133.714C170.16 133.714 169.833 133.838 169.586 134.085C169.342 134.332 169.22 134.658 169.22 135.062C169.22 135.465 169.339 135.783 169.576 136.014C169.817 136.245 170.151 136.36 170.577 136.36C171 136.36 171.332 136.245 171.573 136.014C171.814 135.779 171.935 135.462 171.935 135.062ZM170.577 130.535C170.222 130.535 169.934 130.646 169.713 130.867C169.495 131.085 169.386 131.383 169.386 131.761C169.386 132.122 169.493 132.415 169.708 132.64C169.926 132.861 170.216 132.972 170.577 132.972C170.938 132.972 171.227 132.861 171.441 132.64C171.66 132.415 171.769 132.122 171.769 131.761C171.769 131.399 171.656 131.105 171.432 130.877C171.207 130.649 170.922 130.535 170.577 130.535ZM178.434 133.968C178.434 135.026 178.253 135.812 177.892 136.326C177.53 136.84 176.965 137.098 176.197 137.098C175.439 137.098 174.877 136.847 174.513 136.346C174.148 135.841 173.959 135.089 173.946 134.09V132.884C173.946 131.839 174.127 131.062 174.488 130.555C174.85 130.047 175.416 129.793 176.188 129.793C176.952 129.793 177.516 130.039 177.877 130.53C178.238 131.019 178.424 131.774 178.434 132.796V133.968ZM177.53 132.732C177.53 131.967 177.423 131.411 177.208 131.062C176.993 130.711 176.653 130.535 176.188 130.535C175.725 130.535 175.388 130.709 175.177 131.058C174.965 131.406 174.856 131.941 174.85 132.664V134.109C174.85 134.878 174.96 135.446 175.182 135.813C175.406 136.178 175.745 136.36 176.197 136.36C176.643 136.36 176.974 136.188 177.188 135.843C177.407 135.498 177.521 134.954 177.53 134.212V132.732Z" fill="#A3A3A3"/>
<path d="M189 134V448" stroke="#F0F0F0"/>
<path d="M295 134V448" stroke="#F0F0F0"/>
<path d="M402 134V448" stroke="#F0F0F0"/>
<path d="M508 134V448" stroke="#F0F0F0"/>
<path d="M615 134V448" stroke="#F0F0F0"/>
<path d="M189 448H614" stroke="#F0F0F0"/>
<path d="M189 409H614" stroke="#F0F0F0"/>
<path d="M189 370H614" stroke="#F0F0F0"/>
<path d="M189 330H614" stroke="#F0F0F0"/>
<path d="M189 291H614" stroke="#F0F0F0"/>
<path d="M189 252H614" stroke="#F0F0F0"/>
<path d="M189 213H614" stroke="#F0F0F0"/>
<path d="M189 173H614" stroke="#F0F0F0"/>
<path d="M189 134H614" stroke="#F0F0F0"/>
<path d="M189 436C189 436 242 319 295 319C348 319 348 146 401 146C454 146 454 189 508 189C561 189 614 260 614 260" stroke="#9A9DE4" stroke-width="4"/>
<circle cx="189" cy="436" r="4" fill="#A6CEE3"/>
<circle cx="295" cy="319" r="4" fill="#A6CEE3"/>
<circle cx="401" cy="146" r="4" fill="#A6CEE3"/>
<circle cx="508" cy="189" r="4" fill="#A6CEE3"/>
<circle cx="614" cy="260" r="4" fill="#A6CEE3"/>
<rect x="254.34" y="344.426" width="10.6468" height="72.7532" rx="2" fill="#A0B0DA" fill-opacity="0.5"/>
<rect x="300.477" y="332.004" width="10.6468" height="85.1745" rx="2" fill="#A0B0DA" fill-opacity="0.5"/>
<rect x="323.545" y="344.426" width="10.6468" height="72.7532" rx="2" fill="#A0B0DA" fill-opacity="0.5"/>
<rect x="367.906" y="363.945" width="10.6468" height="53.234" rx="2" fill="#A0B0DA" fill-opacity="0.5"/>
<rect x="344.838" y="337.328" width="10.6468" height="79.8511" rx="2" fill="#A0B0DA" fill-opacity="0.5"/>
<rect x="390.974" y="349.749" width="10.6468" height="67.4298" rx="2" fill="#A0B0DA" fill-opacity="0.5"/>
<rect x="414" y="295" width="11" height="122" rx="2" fill="#A0B0DA" fill-opacity="0.5"/>
<rect x="483.247" y="337.328" width="10.6468" height="79.8511" rx="2" fill="#A0B0DA" fill-opacity="0.5"/>
<rect x="529.383" y="363.945" width="10.6468" height="53.234" rx="2" fill="#A0B0DA" fill-opacity="0.5"/>
<rect x="549" y="344" width="11" height="73" rx="2" fill="#A0B0DA" fill-opacity="0.5"/>
<rect x="569" y="311" width="11" height="106" rx="2" fill="#A0B0DA" fill-opacity="0.5"/>
<rect x="437.111" y="314.26" width="10.6468" height="102.919" rx="2" fill="#A0B0DA" fill-opacity="0.5"/>
<rect x="460.179" y="324.906" width="10.6468" height="92.2723" rx="2" fill="#A0B0DA" fill-opacity="0.5"/>
<rect x="506.315" y="332.004" width="10.6468" height="85.1745" rx="2" fill="#A0B0DA" fill-opacity="0.5"/>
<rect x="277.409" y="314.26" width="10.6468" height="102.919" rx="2" fill="#A0B0DA" fill-opacity="0.5"/>
<g filter="url(#filter1_d)">
<rect x="100" y="113" width="316" height="60" rx="10" fill="white"/>
</g>
<path d="M369 149C370.775 149 372.499 148.405 373.897 147.312L378.293 151.708L379.707 150.294L375.311 145.898C376.405 144.5 377 142.775 377 141C377 136.589 373.411 133 369 133C364.589 133 361 136.589 361 141C361 145.411 364.589 149 369 149ZM369 135C372.309 135 375 137.691 375 141C375 144.309 372.309 147 369 147C365.691 147 363 144.309 363 141C363 137.691 365.691 135 369 135Z" fill="#3F3E7E"/>
<path d="M370.412 139.586C370.791 139.966 371 140.468 371 141H373C373.001 140.474 372.898 139.954 372.696 139.468C372.495 138.983 372.199 138.542 371.826 138.172C370.312 136.66 367.687 136.66 366.174 138.172L367.586 139.588C368.346 138.83 369.656 138.832 370.412 139.586Z" fill="#3F3E7E"/>
<g filter="url(#filter2_d)">
<rect x="420" y="433" width="287" height="80" rx="10" fill="white"/>
</g>
<circle cx="632.175" cy="124.591" r="56.6693" stroke="#EBF0FF" stroke-opacity="0.5" stroke-width="12"/>
<circle cx="462" cy="473" r="18" fill="#DAE4FC" fill-opacity="0.5"/>
<rect x="491" y="460" width="91" height="6" rx="3" fill="#E4E6FF"/>
<rect x="491" y="470" width="115" height="6" rx="3" fill="#E4E6FF"/>
<rect x="491" y="481" width="133" height="6" rx="3" fill="#E4E6FF"/>
<circle cx="193.633" cy="488.616" r="49.8093" stroke="#BECAE7" stroke-opacity="0.5" stroke-width="18"/>
<path d="M246.044 524.984C246.95 525.606 248.191 525.382 248.789 524.461C253.23 517.621 256.234 509.942 257.625 501.849C259.129 493.101 258.714 484.066 256.408 475.336C254.102 466.605 249.956 458.374 244.241 451.181C238.94 444.507 232.399 438.866 224.991 434.568C224.034 434.012 222.816 434.378 222.291 435.353L212.807 452.973C212.285 453.944 212.649 455.15 213.592 455.72C217.901 458.323 221.715 461.671 224.833 465.597C228.363 470.041 230.924 475.125 232.349 480.518C233.773 485.911 234.029 491.491 233.1 496.895C232.286 501.633 230.577 506.141 228.065 510.197C227.48 511.14 227.703 512.391 228.619 513.02L246.044 524.984Z" fill="#9143F4"/>
<mask id="path-62-inside-1" fill="white">
<path d="M250.897 522.482C245.836 531.487 238.823 539.244 230.373 545.184C221.923 551.125 212.249 555.098 202.063 556.812C191.877 558.526 181.436 557.937 171.508 555.089C161.579 552.241 152.413 547.206 144.684 540.354C136.955 533.501 130.858 525.005 126.842 515.489C122.825 505.972 120.99 495.677 121.471 485.359C121.952 475.041 124.738 464.962 129.623 455.861C134.508 446.76 141.37 438.868 149.703 432.765L165.736 454.656C160.671 458.366 156.5 463.162 153.531 468.694C150.562 474.226 148.869 480.352 148.576 486.624C148.283 492.895 149.399 499.153 151.84 504.937C154.282 510.721 157.987 515.885 162.685 520.05C167.383 524.215 172.954 527.275 178.989 529.006C185.024 530.737 191.37 531.095 197.561 530.053C203.752 529.011 209.632 526.597 214.768 522.986C219.904 519.375 224.167 514.661 227.243 509.187L250.897 522.482Z"/>
</mask>
<path d="M250.897 522.482C245.836 531.487 238.823 539.244 230.373 545.184C221.923 551.125 212.249 555.098 202.063 556.812C191.877 558.526 181.436 557.937 171.508 555.089C161.579 552.241 152.413 547.206 144.684 540.354C136.955 533.501 130.858 525.005 126.842 515.489C122.825 505.972 120.99 495.677 121.471 485.359C121.952 475.041 124.738 464.962 129.623 455.861C134.508 446.76 141.37 438.868 149.703 432.765L165.736 454.656C160.671 458.366 156.5 463.162 153.531 468.694C150.562 474.226 148.869 480.352 148.576 486.624C148.283 492.895 149.399 499.153 151.84 504.937C154.282 510.721 157.987 515.885 162.685 520.05C167.383 524.215 172.954 527.275 178.989 529.006C185.024 530.737 191.37 531.095 197.561 530.053C203.752 529.011 209.632 526.597 214.768 522.986C219.904 519.375 224.167 514.661 227.243 509.187L250.897 522.482Z" stroke="#4D53EF" stroke-width="80" mask="url(#path-62-inside-1)"/>
<rect x="135" y="135" width="185" height="12" rx="2" fill="#E8E9FC"/>
<rect x="135" y="154" width="153" height="7" rx="2" fill="#E8E9FC"/>
<path d="M682.758 124.086C682.758 152.336 660.076 175.174 632.175 175.174C604.273 175.174 581.592 152.336 581.592 124.086C581.592 95.8357 604.273 72.9976 632.175 72.9976C660.076 72.9976 682.758 95.8357 682.758 124.086Z" stroke="#A3B6E9" stroke-opacity="0.5" stroke-width="8"/>
<g filter="url(#filter3_d)">
<circle cx="632.175" cy="124.591" r="47.5073" fill="white"/>
</g>
<mask id="path-67-inside-2" fill="white">
<path d="M627.247 73.5481C626.964 71.4697 628.414 69.5389 630.506 69.3945C637.226 68.931 643.983 69.7375 650.43 71.7847C658.084 74.2156 665.11 78.3354 671.002 83.8474C676.893 89.3593 681.503 96.1263 684.5 103.661C687.496 111.196 688.805 119.31 688.332 127.421C687.858 135.531 685.614 143.435 681.762 150.564C677.909 157.693 672.544 163.869 666.052 168.647C659.56 173.426 652.103 176.688 644.218 178.198C637.576 179.47 630.768 179.473 624.146 178.218C622.088 177.827 620.876 175.743 621.399 173.715C621.926 171.671 624.015 170.462 626.093 170.83C631.621 171.808 637.289 171.771 642.824 170.711C649.615 169.41 656.038 166.6 661.629 162.485C667.221 158.369 671.842 153.05 675.161 146.909C678.479 140.769 680.411 133.961 680.819 126.976C681.227 119.99 680.1 113.001 677.519 106.511C674.938 100.021 670.967 94.1928 665.893 89.4453C660.818 84.6977 654.767 81.1493 648.174 79.0555C642.799 77.3486 637.173 76.6431 631.569 76.9619C629.463 77.0817 627.532 75.6381 627.247 73.5481Z"/>
</mask>
<path d="M627.247 73.5481C626.964 71.4697 628.414 69.5389 630.506 69.3945C637.226 68.931 643.983 69.7375 650.43 71.7847C658.084 74.2156 665.11 78.3354 671.002 83.8474C676.893 89.3593 681.503 96.1263 684.5 103.661C687.496 111.196 688.805 119.31 688.332 127.421C687.858 135.531 685.614 143.435 681.762 150.564C677.909 157.693 672.544 163.869 666.052 168.647C659.56 173.426 652.103 176.688 644.218 178.198C637.576 179.47 630.768 179.473 624.146 178.218C622.088 177.827 620.876 175.743 621.399 173.715C621.926 171.671 624.015 170.462 626.093 170.83C631.621 171.808 637.289 171.771 642.824 170.711C649.615 169.41 656.038 166.6 661.629 162.485C667.221 158.369 671.842 153.05 675.161 146.909C678.479 140.769 680.411 133.961 680.819 126.976C681.227 119.99 680.1 113.001 677.519 106.511C674.938 100.021 670.967 94.1928 665.893 89.4453C660.818 84.6977 654.767 81.1493 648.174 79.0555C642.799 77.3486 637.173 76.6431 631.569 76.9619C629.463 77.0817 627.532 75.6381 627.247 73.5481Z" stroke="#4D53EF" stroke-width="18" mask="url(#path-67-inside-2)"/>
<mask id="path-68-inside-3" fill="white">
<path d="M638.152 63.312C638.336 60.2229 640.994 57.8439 644.059 58.2741C655.792 59.9209 666.92 64.5587 676.311 71.7672C687.178 80.1086 695.206 91.4973 699.327 104.42C703.447 117.342 703.466 131.186 699.38 144.112C695.294 157.038 687.297 168.434 676.452 176.785C665.608 185.135 652.428 190.046 638.665 190.864C624.903 191.682 611.209 188.368 599.404 181.363C587.599 174.358 578.241 163.993 572.575 151.647C567.703 141.031 565.758 129.382 566.885 117.862C567.191 114.736 570.178 112.692 573.269 113.25C576.385 113.812 578.417 116.803 578.168 119.96C577.438 129.21 579.081 138.528 582.99 147.046C587.704 157.316 595.487 165.938 605.307 171.764C615.127 177.591 626.517 180.348 637.965 179.667C649.413 178.987 660.376 174.903 669.397 167.956C678.418 161.01 685.07 151.531 688.468 140.779C691.867 130.027 691.851 118.511 688.424 107.762C684.996 97.0134 678.319 87.5402 669.279 80.6017C661.72 74.7997 652.809 70.9998 643.398 69.5188C640.335 69.0368 637.966 66.4068 638.152 63.312Z"/>
</mask>
<path d="M638.152 63.312C638.336 60.2229 640.994 57.8439 644.059 58.2741C655.792 59.9209 666.92 64.5587 676.311 71.7672C687.178 80.1086 695.206 91.4973 699.327 104.42C703.447 117.342 703.466 131.186 699.38 144.112C695.294 157.038 687.297 168.434 676.452 176.785C665.608 185.135 652.428 190.046 638.665 190.864C624.903 191.682 611.209 188.368 599.404 181.363C587.599 174.358 578.241 163.993 572.575 151.647C567.703 141.031 565.758 129.382 566.885 117.862C567.191 114.736 570.178 112.692 573.269 113.25C576.385 113.812 578.417 116.803 578.168 119.96C577.438 129.21 579.081 138.528 582.99 147.046C587.704 157.316 595.487 165.938 605.307 171.764C615.127 177.591 626.517 180.348 637.965 179.667C649.413 178.987 660.376 174.903 669.397 167.956C678.418 161.01 685.07 151.531 688.468 140.779C691.867 130.027 691.851 118.511 688.424 107.762C684.996 97.0134 678.319 87.5402 669.279 80.6017C661.72 74.7997 652.809 70.9998 643.398 69.5188C640.335 69.0368 637.966 66.4068 638.152 63.312Z" stroke="#FA9E6B" stroke-width="26" mask="url(#path-68-inside-3)"/>
<defs>
<filter id="filter0_d" x="39" y="0" width="716.37" height="617" filterUnits="userSpaceOnUse" color-interpolation-filters="sRGB">
<feFlood flood-opacity="0" result="BackgroundImageFix"/>
<feColorMatrix in="SourceAlpha" type="matrix" values="0 0 0 0 0 0 0 0 0 0 0 0 0 0 0 0 0 0 127 0"/>
<feOffset dy="4"/>
<feGaussianBlur stdDeviation="50"/>
<feColorMatrix type="matrix" values="0 0 0 0 0 0 0 0 0 0 0 0 0 0 0 0 0 0 0.05 0"/>
<feBlend mode="normal" in2="BackgroundImageFix" result="effect1_dropShadow"/>
<feBlend mode="normal" in="SourceGraphic" in2="effect1_dropShadow" result="shape"/>
</filter>
<filter id="filter1_d" x="1.52588e-05" y="17" width="516" height="260" filterUnits="userSpaceOnUse" color-interpolation-filters="sRGB">
<feFlood flood-opacity="0" result="BackgroundImageFix"/>
<feColorMatrix in="SourceAlpha" type="matrix" values="0 0 0 0 0 0 0 0 0 0 0 0 0 0 0 0 0 0 127 0"/>
<feOffset dy="4"/>
<feGaussianBlur stdDeviation="50"/>
<feColorMatrix type="matrix" values="0 0 0 0 0.777778 0 0 0 0 0.821333 0 0 0 0 0.933333 0 0 0 0.4 0"/>
<feBlend mode="normal" in2="BackgroundImageFix" result="effect1_dropShadow"/>
<feBlend mode="normal" in="SourceGraphic" in2="effect1_dropShadow" result="shape"/>
</filter>
<filter id="filter2_d" x="320" y="337" width="487" height="280" filterUnits="userSpaceOnUse" color-interpolation-filters="sRGB">
<feFlood flood-opacity="0" result="BackgroundImageFix"/>
<feColorMatrix in="SourceAlpha" type="matrix" values="0 0 0 0 0 0 0 0 0 0 0 0 0 0 0 0 0 0 127 0"/>
<feOffset dy="4"/>
<feGaussianBlur stdDeviation="50"/>
<feColorMatrix type="matrix" values="0 0 0 0 0.777778 0 0 0 0 0.821333 0 0 0 0 0.933333 0 0 0 0.4 0"/>
<feBlend mode="normal" in2="BackgroundImageFix" result="effect1_dropShadow"/>
<feBlend mode="normal" in="SourceGraphic" in2="effect1_dropShadow" result="shape"/>
</filter>
<filter id="filter3_d" x="580.667" y="77.084" width="103.015" height="103.015" filterUnits="userSpaceOnUse" color-interpolation-filters="sRGB">
<feFlood flood-opacity="0" result="BackgroundImageFix"/>
<feColorMatrix in="SourceAlpha" type="matrix" values="0 0 0 0 0 0 0 0 0 0 0 0 0 0 0 0 0 0 127 0"/>
<feOffset dy="4"/>
<feGaussianBlur stdDeviation="2"/>
<feColorMatrix type="matrix" values="0 0 0 0 0 0 0 0 0 0 0 0 0 0 0 0 0 0 0.15 0"/>
<feBlend mode="normal" in2="BackgroundImageFix" result="effect1_dropShadow"/>
<feBlend mode="normal" in="SourceGraphic" in2="effect1_dropShadow" result="shape"/>
</filter>
</defs>
</svg>
