<svg width="47" height="36" viewBox="0 0 47 36" fill="none" xmlns="http://www.w3.org/2000/svg">
<path d="M11.6605 0.180664L18.2802 7.33941L13.6069 16.5322L23.461 14.7655L27.946 25.5928L47 0.609039L11.6605 0.180664ZM10.4487 15.6783L12.2829 14.1733L9.91539 14.9222L9.66814 14.5772L10.6499 13.627L9.36914 14.1431C4.47157 16.0449 0.998572 20.7843 0.998572 26.3403C0.996794 28.1154 1.35862 29.8722 2.06174 31.5022C2.76486 33.1321 3.79437 34.6008 5.08682 35.8177C3.9692 33.8582 3.38299 31.6407 3.38626 29.3849C3.38626 23.898 6.8607 19.0076 11.6591 17.0842L12.2671 15.618L10.8296 16.2462L10.4257 15.6999L10.4487 15.6783ZM18.8121 11.9049L21.8754 6.49991L39.8887 2.28516L18.8121 11.9049Z" fill="#4D53EF"/>
</svg>
