<svg width="28" height="27" viewBox="0 0 28 27" fill="none" xmlns="http://www.w3.org/2000/svg">
<path d="M13.9962 8.87148C11.4255 8.87148 9.32767 10.866 9.32767 13.3101C9.32767 15.7541 11.4255 17.7486 13.9962 17.7486C16.5669 17.7486 18.6648 15.7541 18.6648 13.3101C18.6648 10.866 16.5669 8.87148 13.9962 8.87148ZM27.9984 13.3101C27.9984 11.472 28.0159 9.65065 27.9074 7.81595C27.7988 5.6849 27.2875 3.79359 25.6484 2.23526C24.0058 0.673603 22.02 0.190787 19.7785 0.0875642C17.8453 -0.0156585 15.9295 0.000990419 13.9997 0.000990419C12.0665 0.000990419 10.1507 -0.0156585 8.22094 0.0875642C5.97947 0.190787 3.99016 0.676932 2.35109 2.23526C0.708507 3.79692 0.200673 5.6849 0.0921015 7.81595C-0.0164698 9.65398 0.00104174 11.4754 0.00104174 13.3101C0.00104174 15.1448 -0.0164698 16.9695 0.0921015 18.8042C0.200673 20.9352 0.712009 22.8265 2.35109 24.3849C3.99367 25.9465 5.97947 26.4293 8.22094 26.5326C10.1542 26.6358 12.07 26.6191 13.9997 26.6191C15.933 26.6191 17.8488 26.6358 19.7785 26.5326C22.02 26.4293 24.0093 25.9432 25.6484 24.3849C27.291 22.8232 27.7988 20.9352 27.9074 18.8042C28.0195 16.9695 27.9984 15.1481 27.9984 13.3101ZM13.9962 20.1394C10.0211 20.1394 6.81302 17.0893 6.81302 13.3101C6.81302 9.53078 10.0211 6.48071 13.9962 6.48071C17.9713 6.48071 21.1795 9.53078 21.1795 13.3101C21.1795 17.0893 17.9713 20.1394 13.9962 20.1394ZM21.4736 7.79597C20.5455 7.79597 19.796 7.0834 19.796 6.20101C19.796 5.31862 20.5455 4.60605 21.4736 4.60605C22.4018 4.60605 23.1513 5.31862 23.1513 6.20101C23.1515 6.41054 23.1083 6.61806 23.0241 6.81169C22.9399 7.00531 22.8163 7.18124 22.6605 7.3294C22.5047 7.47756 22.3196 7.59503 22.116 7.6751C21.9123 7.75516 21.694 7.79623 21.4736 7.79597Z" fill="black"/>
</svg>
