<svg width="110" height="73" viewBox="0 0 110 73" fill="none" xmlns="http://www.w3.org/2000/svg">
<path d="M54.0625 54.7031C53.625 54.7031 53.25 54.5625 52.9375 54.2812C52.5938 54.0312 52.3125 53.7188 52.0938 53.3438C51.875 53 51.7031 52.625 51.5781 52.2188C51.4531 51.8438 51.3906 51.5156 51.3906 51.2344C51.6406 51.4531 51.9219 51.6094 52.2344 51.7031C52.5156 51.7969 52.7812 51.875 53.0312 51.9375C53.3125 52 53.5938 52.0312 53.875 52.0312C54.5 52.0312 55.0312 51.7969 55.4688 51.3281C55.9062 50.8594 56.2656 50.25 56.5469 49.5C56.8594 48.75 57.1094 47.9062 57.2969 46.9688C57.4844 46.0312 57.6094 45.1094 57.6719 44.2031C57.7656 43.2656 57.8281 42.3906 57.8594 41.5781C57.8906 40.7344 57.9062 40.0312 57.9062 39.4688C57.9375 36.4062 57.875 33.8281 57.7188 31.7344C57.5625 29.6406 57.2656 28.2812 56.8281 27.6562C57.2344 27.4375 57.5781 27.25 57.8594 27.0938C58.1719 26.9062 58.625 26.8125 59.2188 26.8125C60.0625 26.8438 60.6562 27.0469 61 27.4219C61.3438 27.7969 61.5469 28.3594 61.6094 29.1094C61.6719 29.8281 61.7344 30.7656 61.7969 31.9219C61.8594 33.0781 61.8594 34.5312 61.7969 36.2812C61.7031 38.3125 61.6094 40.0625 61.5156 41.5312C61.4531 43 61.3438 44.3438 61.1875 45.5625C61.0312 47 60.7344 48.2969 60.2969 49.4531C59.8906 50.6094 59.375 51.5938 58.75 52.4062C58.1875 53.0625 57.4844 53.6094 56.6406 54.0469C55.8281 54.4844 54.9688 54.7031 54.0625 54.7031ZM60.0625 19.0781C60.2812 19.0781 60.5312 19.1094 60.8125 19.1719C61.0938 19.2031 61.3594 19.2969 61.6094 19.4531C61.8594 19.5781 62.0625 19.7812 62.2188 20.0625C62.4062 20.3438 62.5 20.7031 62.5 21.1406C62.5 21.6094 62.3438 22.0312 62.0312 22.4062C61.75 22.7812 61.3906 23.1094 60.9531 23.3906C60.5156 23.6406 60.0312 23.8438 59.5 24C59 24.1562 58.5312 24.2344 58.0938 24.2344C56.875 24.2344 56.2656 23.6094 56.2656 22.3594C56.2656 22.0156 56.3438 21.6562 56.5 21.2812C56.6875 20.9062 56.9375 20.5625 57.25 20.25C57.5938 19.9062 58 19.625 58.4688 19.4062C58.9375 19.1875 59.4688 19.0781 60.0625 19.0781ZM60.0625 22.5469C60.3125 22.3906 60.4844 22.2344 60.5781 22.0781C60.7031 21.9219 60.7656 21.7656 60.7656 21.6094C60.7656 21.4531 60.7188 21.3281 60.625 21.2344C60.5312 21.1094 60.3438 21.0469 60.0625 21.0469C59.875 21.0469 59.625 21.0938 59.3125 21.1875C59.0312 21.2812 58.75 21.4062 58.4688 21.5625C58.1875 21.6875 57.9375 21.8594 57.7188 22.0781C57.5312 22.2656 57.4375 22.4688 57.4375 22.6875C57.4375 23.0312 57.6562 23.2031 58.0938 23.2031C58.375 23.2031 58.7031 23.1406 59.0781 23.0156C59.4531 22.8906 59.7812 22.7344 60.0625 22.5469ZM78.3438 36.9375C78.2812 38.1562 78.0625 39.2812 77.6875 40.3125C77.3438 41.3438 76.8594 42.25 76.2344 43.0312C75.6094 43.7812 74.8594 44.375 73.9844 44.8125C73.1406 45.25 72.2031 45.4844 71.1719 45.5156C70.2656 45.5469 69.4062 45.3281 68.5938 44.8594C67.8125 44.3906 67.125 43.7344 66.5312 42.8906C65.9375 42.0469 65.4844 41.0469 65.1719 39.8906C64.8906 38.7031 64.8125 37.4219 64.9375 36.0469C65.0312 34.4531 65.3281 33.0938 65.8281 31.9688C66.3281 30.8125 66.8594 29.8594 67.4219 29.1094C67.9844 28.3594 68.5 27.8125 68.9688 27.4688C69.4688 27.0938 69.7812 26.875 69.9062 26.8125C70.125 26.7188 70.3281 26.7031 70.5156 26.7656C70.7031 26.7969 70.9062 26.8438 71.125 26.9062C71.1875 26.9375 71.25 27.0156 71.3125 27.1406C71.4375 27.3594 71.5156 27.7656 71.5469 28.3594C71.7031 28.0156 71.9062 27.7344 72.1562 27.5156C72.4062 27.2969 72.6562 27.1406 72.9062 27.0469C73.2188 26.9219 73.5312 26.8438 73.8438 26.8125C74.0625 26.7812 74.4375 26.9531 74.9688 27.3281C75.5312 27.7031 76.0625 28.2969 76.5625 29.1094C77.0938 29.9219 77.5469 30.9844 77.9219 32.2969C78.2969 33.5781 78.4375 35.125 78.3438 36.9375ZM75.1562 36.375C75.1875 35.625 75.1562 34.875 75.0625 34.125C75 33.3438 74.875 32.6406 74.6875 32.0156C74.5312 31.3594 74.3281 30.8438 74.0781 30.4688C73.8281 30.0625 73.5781 29.8594 73.3281 29.8594C73.0469 29.9219 72.7344 30.0625 72.3906 30.2812C72.1094 30.4688 71.7969 30.7656 71.4531 31.1719C71.1094 31.5781 70.7812 32.1562 70.4688 32.9062C70.4375 32.8125 70.4062 32.6406 70.375 32.3906C70.3438 32.1719 70.3125 31.8906 70.2812 31.5469C70.2812 31.1719 70.3125 30.6719 70.375 30.0469C69.9375 30.5781 69.5938 31.2031 69.3438 31.9219C69.125 32.6406 68.9531 33.3281 68.8281 33.9844C68.7031 34.7656 68.6094 35.5469 68.5469 36.3281C68.5156 37.1719 68.5469 38 68.6406 38.8125C68.7656 39.625 68.9531 40.3438 69.2031 40.9688C69.4844 41.5938 69.8125 42.0938 70.1875 42.4688C70.5625 42.8438 71.0156 43.0156 71.5469 42.9844C72.0781 42.9531 72.5469 42.7344 72.9531 42.3281C73.3594 41.9219 73.7188 41.4062 74.0312 40.7812C74.3438 40.1562 74.5938 39.4531 74.7812 38.6719C74.9688 37.8906 75.0938 37.125 75.1562 36.375ZM88.2812 36.0938C88.9688 36.3438 89.625 36.5781 90.25 36.7969C90.875 37.0156 91.4219 37.2812 91.8906 37.5938C92.3594 37.9062 92.7344 38.2812 93.0156 38.7188C93.2969 39.125 93.4375 39.6406 93.4375 40.2656C93.4375 41.0156 93.2656 41.7188 92.9219 42.375C92.6094 43.0312 92.1406 43.6094 91.5156 44.1094C90.8906 44.6094 90.125 45 89.2188 45.2812C88.3438 45.5938 87.3594 45.75 86.2656 45.75C85.0469 45.75 84.0625 45.625 83.3125 45.375C82.5625 45.1562 81.9844 44.8906 81.5781 44.5781C81.1719 44.2656 80.9062 43.9531 80.7812 43.6406C80.6562 43.3281 80.5938 43.0781 80.5938 42.8906C80.5938 42.5156 80.6719 42.1094 80.8281 41.6719C80.9844 41.2031 81.2812 40.7031 81.7188 40.1719C81.9062 39.9531 82.1094 39.75 82.3281 39.5625C82.7656 39.1875 83.2031 38.9531 83.6406 38.8594C83.5781 39.5781 83.6562 40.1719 83.875 40.6406C84.125 41.0781 84.4375 41.4219 84.8125 41.6719C85.2188 41.9219 85.6562 42.0938 86.125 42.1875C86.625 42.2812 87.0938 42.3281 87.5312 42.3281C87.9688 42.3281 88.4062 42.2656 88.8438 42.1406C89.3125 42.0156 89.7344 41.8594 90.1094 41.6719C90.4844 41.4531 90.7812 41.2188 91 40.9688C91.25 40.6875 91.375 40.3906 91.375 40.0781C91.375 39.7344 91.2344 39.4531 90.9531 39.2344C90.6719 39.0156 90.3125 38.8438 89.875 38.7188C89.4688 38.5625 89.0156 38.4531 88.5156 38.3906C88.0469 38.2969 87.5938 38.2031 87.1562 38.1094C86.7188 38.0156 86.125 37.8906 85.375 37.7344C84.6562 37.5469 83.9375 37.2656 83.2188 36.8906C82.5312 36.5156 81.9219 36.0156 81.3906 35.3906C80.8906 34.7656 80.6406 33.9375 80.6406 32.9062C80.6406 31.7188 80.9375 30.6875 81.5312 29.8125C82.1562 28.9062 82.9062 28.1562 83.7812 27.5625C84.6875 26.9375 85.6406 26.4688 86.6406 26.1562C87.6406 25.8438 88.5312 25.6875 89.3125 25.6875C89.7188 25.6875 90.1562 25.75 90.625 25.875C91.0938 25.9688 91.5312 26.1562 91.9375 26.4375C92.3438 26.6875 92.6719 27.0312 92.9219 27.4688C93.2031 27.9062 93.3438 28.4688 93.3438 29.1562C93.3438 29.8438 93.2812 30.4062 93.1562 30.8438C93.0625 31.25 92.9062 31.5781 92.6875 31.8281C92.5 32.0469 92.2656 32.1875 91.9844 32.25C91.7031 32.3125 91.375 32.3438 91 32.3438C90.75 32.3438 90.5156 32.3125 90.2969 32.25C90.1094 32.1875 89.9062 32.125 89.6875 32.0625C89.4688 32 89.2656 31.8906 89.0781 31.7344C89.3906 31.3594 89.625 31 89.7812 30.6562C89.9688 30.3125 90.0625 29.8906 90.0625 29.3906C90.0625 28.9531 89.9375 28.5625 89.6875 28.2188C89.4688 27.875 89.0938 27.7031 88.5625 27.7031C88 27.7031 87.4531 27.8125 86.9219 28.0312C86.4219 28.25 85.9688 28.5469 85.5625 28.9219C85.1875 29.2969 84.875 29.7344 84.625 30.2344C84.4062 30.7031 84.2969 31.2188 84.2969 31.7812C84.2969 32.625 84.6094 33.4219 85.2344 34.1719C85.8906 34.9219 86.9062 35.5625 88.2812 36.0938ZM103.562 36.0938C104.25 36.3438 104.906 36.5781 105.531 36.7969C106.156 37.0156 106.703 37.2812 107.172 37.5938C107.641 37.9062 108.016 38.2812 108.297 38.7188C108.578 39.125 108.719 39.6406 108.719 40.2656C108.719 41.0156 108.547 41.7188 108.203 42.375C107.891 43.0312 107.422 43.6094 106.797 44.1094C106.172 44.6094 105.406 45 104.5 45.2812C103.625 45.5938 102.641 45.75 101.547 45.75C100.328 45.75 99.3438 45.625 98.5938 45.375C97.8438 45.1562 97.2656 44.8906 96.8594 44.5781C96.4531 44.2656 96.1875 43.9531 96.0625 43.6406C95.9375 43.3281 95.875 43.0781 95.875 42.8906C95.875 42.5156 95.9531 42.1094 96.1094 41.6719C96.2656 41.2031 96.5625 40.7031 97 40.1719C97.1875 39.9531 97.3906 39.75 97.6094 39.5625C98.0469 39.1875 98.4844 38.9531 98.9219 38.8594C98.8594 39.5781 98.9375 40.1719 99.1562 40.6406C99.4062 41.0781 99.7188 41.4219 100.094 41.6719C100.5 41.9219 100.938 42.0938 101.406 42.1875C101.906 42.2812 102.375 42.3281 102.812 42.3281C103.25 42.3281 103.688 42.2656 104.125 42.1406C104.594 42.0156 105.016 41.8594 105.391 41.6719C105.766 41.4531 106.062 41.2188 106.281 40.9688C106.531 40.6875 106.656 40.3906 106.656 40.0781C106.656 39.7344 106.516 39.4531 106.234 39.2344C105.953 39.0156 105.594 38.8438 105.156 38.7188C104.75 38.5625 104.297 38.4531 103.797 38.3906C103.328 38.2969 102.875 38.2031 102.438 38.1094C102 38.0156 101.406 37.8906 100.656 37.7344C99.9375 37.5469 99.2188 37.2656 98.5 36.8906C97.8125 36.5156 97.2031 36.0156 96.6719 35.3906C96.1719 34.7656 95.9219 33.9375 95.9219 32.9062C95.9219 31.7188 96.2188 30.6875 96.8125 29.8125C97.4375 28.9062 98.1875 28.1562 99.0625 27.5625C99.9688 26.9375 100.922 26.4688 101.922 26.1562C102.922 25.8438 103.812 25.6875 104.594 25.6875C105 25.6875 105.438 25.75 105.906 25.875C106.375 25.9688 106.812 26.1562 107.219 26.4375C107.625 26.6875 107.953 27.0312 108.203 27.4688C108.484 27.9062 108.625 28.4688 108.625 29.1562C108.625 29.8438 108.562 30.4062 108.438 30.8438C108.344 31.25 108.188 31.5781 107.969 31.8281C107.781 32.0469 107.547 32.1875 107.266 32.25C106.984 32.3125 106.656 32.3438 106.281 32.3438C106.031 32.3438 105.797 32.3125 105.578 32.25C105.391 32.1875 105.188 32.125 104.969 32.0625C104.75 32 104.547 31.8906 104.359 31.7344C104.672 31.3594 104.906 31 105.062 30.6562C105.25 30.3125 105.344 29.8906 105.344 29.3906C105.344 28.9531 105.219 28.5625 104.969 28.2188C104.75 27.875 104.375 27.7031 103.844 27.7031C103.281 27.7031 102.734 27.8125 102.203 28.0312C101.703 28.25 101.25 28.5469 100.844 28.9219C100.469 29.2969 100.156 29.7344 99.9062 30.2344C99.6875 30.7031 99.5781 31.2188 99.5781 31.7812C99.5781 32.625 99.8906 33.4219 100.516 34.1719C101.172 34.9219 102.188 35.5625 103.562 36.0938Z" fill="#6E58C6"/>
<path d="M0 0L50 9.73333V73L0 57.0095V0Z" fill="#3B23CF"/>
<path d="M23.4824 33.1109L26.2958 46.2254C26.4545 46.7881 26.44 47.2281 26.2525 47.5455C26.0649 47.8485 25.7115 48 25.1921 48H21.881C20.8711 48 20.2651 47.495 20.0631 46.4851L19.1542 38.8891L15.367 47.2426C15.2083 47.5023 15.0352 47.697 14.8476 47.8269C14.6601 47.9423 14.3427 48 13.8954 48H9.6321C9.14157 48 8.82417 47.8485 8.67989 47.5455C8.53562 47.2281 8.62218 46.7592 8.93959 46.1389L16.8602 31.358L13.8954 17.6375C13.5636 16.4545 13.9459 15.8629 15.0424 15.8629H18.3318C19.3417 15.8629 19.9477 16.3679 20.1497 17.3778L21.5996 25.7746L25.9928 16.6204C26.1515 16.3607 26.3246 16.1731 26.5122 16.0577C26.6997 15.9279 27.0171 15.8629 27.4644 15.8629H31.6628C32.1244 15.8629 32.4491 15.9567 32.6366 16.1443C32.8386 16.3318 32.9179 16.5627 32.8747 16.8368C32.8314 17.0965 32.7087 17.3922 32.5068 17.7241L23.4824 33.1109Z" fill="white"/>
</svg>
