<svg width="106" height="106" viewBox="0 0 106 106" fill="none" xmlns="http://www.w3.org/2000/svg">
<g filter="url(#filter0_d)">
<circle cx="53" cy="49" r="49" fill="white"/>
</g>
<path fill-rule="evenodd" clip-rule="evenodd" d="M49.6204 35.7454C49.8178 35.5475 50.0523 35.3905 50.3105 35.2834C50.5686 35.1762 50.8454 35.1211 51.1249 35.1211C51.4044 35.1211 51.6812 35.1762 51.9393 35.2834C52.1975 35.3905 52.432 35.5475 52.6294 35.7454L65.3794 48.4954C65.5773 48.6928 65.7343 48.9273 65.8414 49.1854C65.9485 49.4436 66.0037 49.7204 66.0037 49.9999C66.0037 50.2794 65.9485 50.5562 65.8414 50.8143C65.7343 51.0725 65.5773 51.307 65.3794 51.5044L52.6294 64.2544C52.2304 64.6534 51.6892 64.8776 51.1249 64.8776C50.5606 64.8776 50.0194 64.6534 49.6204 64.2544C49.2214 63.8554 48.9972 63.3142 48.9972 62.7499C48.9972 62.1856 49.2214 61.6444 49.6204 61.2454L60.8701 49.9999L49.6204 38.7544C49.4225 38.557 49.2655 38.3225 49.1584 38.0643C49.0512 37.8062 48.9961 37.5294 48.9961 37.2499C48.9961 36.9704 49.0512 36.6936 49.1584 36.4354C49.2655 36.1773 49.4225 35.9428 49.6204 35.7454Z" fill="#4D53EF"/>
<path fill-rule="evenodd" clip-rule="evenodd" d="M32 50C32 49.4364 32.2239 48.8959 32.6224 48.4974C33.0209 48.0989 33.5614 47.875 34.125 47.875H61.75C62.3136 47.875 62.8541 48.0989 63.2526 48.4974C63.6511 48.8959 63.875 49.4364 63.875 50C63.875 50.5636 63.6511 51.1041 63.2526 51.5026C62.8541 51.9011 62.3136 52.125 61.75 52.125H34.125C33.5614 52.125 33.0209 51.9011 32.6224 51.5026C32.2239 51.1041 32 50.5636 32 50Z" fill="#4D53EF"/>
<defs>
<filter id="filter0_d" x="0" y="0" width="106" height="106" filterUnits="userSpaceOnUse" color-interpolation-filters="sRGB">
<feFlood flood-opacity="0" result="BackgroundImageFix"/>
<feColorMatrix in="SourceAlpha" type="matrix" values="0 0 0 0 0 0 0 0 0 0 0 0 0 0 0 0 0 0 127 0"/>
<feOffset dy="4"/>
<feGaussianBlur stdDeviation="2"/>
<feColorMatrix type="matrix" values="0 0 0 0 0 0 0 0 0 0 0 0 0 0 0 0 0 0 0.25 0"/>
<feBlend mode="normal" in2="BackgroundImageFix" result="effect1_dropShadow"/>
<feBlend mode="normal" in="SourceGraphic" in2="effect1_dropShadow" result="shape"/>
</filter>
</defs>
</svg>
