<svg width="80" height="80" viewBox="0 0 80 80" fill="none" xmlns="http://www.w3.org/2000/svg">
<path d="M33.8665 30.2669L31.7331 31.3333C28.5332 32.9336 26.5332 36.1335 26.5332 39.7331V76C26.5332 78.2669 28.2669 80 30.5332 80H49.1999C51.4668 80 53.1999 78.2669 53.1999 76V39.6003C53.1999 36 51.1999 32.8001 48 31.1999L45.8665 30.1335C45.4668 29.8665 45.0664 29.4668 45.0664 28.9336V5.86654L46.6667 4.26693L44.8001 0H35.1999L33.0664 4.26693L34.6667 5.86654V29.0664C34.6667 29.4668 34.3997 30 33.8665 30.2669ZM36.8001 2.66667H43.1999L43.7331 3.73307L43.4668 4H36.5332L36.2669 3.73307L36.8001 2.66667ZM35.0664 32.5332C36.3997 31.8665 37.3333 30.5332 37.3333 28.9336V6.66667H42.6667V29.0664C42.6667 30.5332 43.4668 32 44.9336 32.6667L47.0664 33.7331C49.3333 34.8001 50.8001 37.1999 50.8001 39.7331V76C50.8001 76.8001 50.2669 77.3333 49.4668 77.3333H30.6667C29.8665 77.3333 29.3333 76.8001 29.3333 76V39.6003C29.3333 37.0664 30.8001 34.8001 33.0664 33.6003L35.0664 32.5332Z" fill="black"/>
<path d="M72 10.6666H54.6667V16.8001L48 23.4668V28H50.6667V25.3333H62.6667V73.3333H56V76H78.6667V23.4668L72 16.8001V10.6666ZM67.4668 18.6666L63.4668 22.6666H52.5332L56.5332 18.6666H67.4668ZM70.6667 19.1998L74.1335 22.6666H67.1999L70.6667 19.1998ZM69.3333 13.3333V16H57.3333V13.3333H69.3333ZM65.3333 73.3333V25.3333H76V73.3333H65.3333Z" fill="black"/>
<path d="M68 62.6667H73.3333V65.3334H68V62.6667Z" fill="black"/>
<path d="M68 68H73.3333V70.6667H68V68Z" fill="black"/>
<path d="M54.6667 29.3334H60V32H54.6667V29.3334Z" fill="black"/>
<path d="M40 60C44.3997 60 48 56.3997 48 52C48 47.6003 44.3997 44 40 44C35.6003 44 32 47.6003 32 52C32 56.3997 35.6003 60 40 60ZM40 46.6667C42.9336 46.6667 45.3333 49.0664 45.3333 52C45.3333 54.9336 42.9336 57.3333 40 57.3333C37.0664 57.3333 34.6667 54.9336 34.6667 52C34.6667 49.0664 37.0664 46.6667 40 46.6667Z" fill="black"/>
<path d="M34.6667 38.6667H45.3334V41.3334H34.6667V38.6667Z" fill="black"/>
<path d="M32 64H48V66.6667H32V64Z" fill="black"/>
<path d="M32 69.3334H48V72H32V69.3334Z" fill="black"/>
<path d="M16 42.6667C12.2669 42.6667 9.33331 45.6003 9.33331 49.3334C9.33331 53.0665 12.2669 56.0001 16 56.0001C19.7331 56.0001 22.6666 53.0665 22.6666 49.3334C22.6666 45.6003 19.7331 42.6667 16 42.6667ZM16 53.3334C13.7331 53.3334 12 51.6003 12 49.3334C12 47.0665 13.7331 45.3334 16 45.3334C18.2669 45.3334 20 47.0665 20 49.3334C20 51.6003 18.2669 53.3334 16 53.3334Z" fill="black"/>
<path d="M9.33331 58.6667H22.6666V61.3334H9.33331V58.6667Z" fill="black"/>
<path d="M9.33331 64H22.6666V66.6667H9.33331V64Z" fill="black"/>
<path d="M56 46.6666V49.3333C56.8001 49.3333 57.3333 49.8665 57.3333 50.6666C57.3333 51.4668 56.8001 52 56 52V54.6666C58.2669 54.6666 60 52.9336 60 50.6666C60 48.3997 58.2669 46.6666 56 46.6666Z" fill="black"/>
<path d="M56 57.3333H60V59.9999H56V57.3333Z" fill="black"/>
<path d="M56 62.6667H60V65.3334H56V62.6667Z" fill="black"/>
<path d="M24 74.6667H3.99998V24H6.66665V39.8665L12 36.2669L17.3333 39.8665V24H28V29.3333H30.6667V22.2669L26 16H5.99998L1.33331 22.2669V77.3333H24V74.6667ZM14.6667 34.8001L12 33.0664L9.33331 34.8001V24H14.6667V34.8001ZM7.33331 18.6667H24.6667L26.6667 21.3333H5.33331L7.33331 18.6667Z" fill="black"/>
</svg>
