<svg width="84" height="79" viewBox="0 0 84 79" fill="none" xmlns="http://www.w3.org/2000/svg">
<path d="M78.3605 35.6319C74.8401 32.2604 70.1731 30.3085 65.174 30.1063C65.1504 29.8125 65.1328 29.4076 65.1328 28.8535C65.1328 26.5835 66.9683 19.6474 68.1255 15.8086L69.3095 11.8809H54.9403L53.9777 13.3394C53.5959 13.918 44.625 27.7506 44.625 48.6035C44.625 58.813 53.4568 67.1191 64.3125 67.1191C75.1682 67.1191 84 58.813 84 48.6035C84 43.7214 81.9971 39.1147 78.3605 35.6319ZM64.3125 60.9473C57.0754 60.9473 51.1875 55.4099 51.1875 48.6035C51.1875 33.2787 56.5747 21.9358 58.7035 18.0527H60.6934C59.7506 21.5374 58.5703 26.3911 58.5703 28.8535C58.5703 30.8075 58.7245 32.3773 59.4777 33.6876C60.1486 34.8547 61.5517 36.2448 64.4296 36.2596L64.5729 36.263C71.6664 36.3923 77.4375 41.9282 77.4375 48.6035C77.4375 55.4099 71.5496 60.9473 64.3125 60.9473Z" fill="#DFDCDC"/>
<path d="M33.7355 35.6319C30.2151 32.2604 25.5481 30.3085 20.549 30.1063C20.5254 29.8125 20.5078 29.4076 20.5078 28.8535C20.5078 26.5835 22.3433 19.6474 23.5005 15.8086L24.6845 11.8809H10.3153L9.35271 13.3394C8.97094 13.918 0 27.7506 0 48.6035C0 58.813 8.83181 67.1191 19.6875 67.1191C30.5432 67.1191 39.375 58.813 39.375 48.6035C39.375 43.7214 37.3721 39.1147 33.7355 35.6319ZM19.6875 60.9473C12.4504 60.9473 6.5625 55.4099 6.5625 48.6035C6.5625 33.2787 11.9497 21.9358 14.0785 18.0527H16.0684C15.1256 21.5374 13.9453 26.3911 13.9453 28.8535C13.9453 30.8075 14.0995 32.3773 14.8527 33.6876C15.5236 34.8547 16.9267 36.2448 19.8046 36.2596L19.9479 36.263C27.0414 36.3923 32.8125 41.9282 32.8125 48.6035C32.8125 55.4099 26.9246 60.9473 19.6875 60.9473Z" fill="#DFDCDC"/>
</svg>
