<svg width="62" height="62" viewBox="0 0 62 62" fill="none" xmlns="http://www.w3.org/2000/svg">
<circle cx="31" cy="31" r="31" fill="#FFD0D0"/>
<path d="M24.5 37.5H42V40H22V20H24.5V37.5ZM27.625 36.25C27.3716 36.2505 27.1206 36.1996 26.8874 36.1004C26.6542 36.0012 26.4435 35.8558 26.2681 35.6729C26.0926 35.49 25.9561 35.2734 25.8667 35.0362C25.7773 34.7991 25.737 34.5462 25.748 34.293C25.7591 34.0398 25.8214 33.7915 25.9312 33.5631C26.0409 33.3346 26.1958 33.1308 26.3866 32.9639C26.5773 32.797 26.7999 32.6705 27.0409 32.5921C27.2819 32.5136 27.5363 32.4849 27.7888 32.5075L29.8038 29.1487C29.6195 28.8658 29.5151 28.5383 29.5015 28.201C29.4879 27.8636 29.5657 27.5288 29.7267 27.232C29.8876 26.9351 30.1257 26.6873 30.4158 26.5145C30.706 26.3418 31.0373 26.2506 31.375 26.2506C31.7127 26.2506 32.044 26.3418 32.3342 26.5145C32.6243 26.6873 32.8624 26.9351 33.0233 27.232C33.1843 27.5288 33.2621 27.8636 33.2485 28.201C33.2349 28.5383 33.1305 28.8658 32.9462 29.1487L34.9613 32.5075C35.0569 32.4989 35.153 32.4981 35.2487 32.505L38.5763 26.6825C38.3371 26.3322 38.2238 25.9113 38.2548 25.4883C38.2858 25.0653 38.4593 24.6653 38.7469 24.3537C39.0346 24.042 39.4193 23.8371 39.8385 23.7723C40.2576 23.7076 40.6863 23.7868 41.0546 23.9971C41.4229 24.2074 41.709 24.5364 41.8662 24.9303C42.0234 25.3241 42.0425 25.7597 41.9202 26.1658C41.798 26.5719 41.5417 26.9246 41.1931 27.1662C40.8446 27.4078 40.4244 27.5242 40.0012 27.4963L36.6737 33.3187C36.8649 33.5991 36.9764 33.9262 36.9964 34.265C37.0163 34.6038 36.9439 34.9416 36.7869 35.2425C36.6298 35.5434 36.3941 35.796 36.1048 35.9734C35.8155 36.1508 35.4835 36.2464 35.1441 36.2499C34.8048 36.2535 34.4708 36.1648 34.1779 35.9935C33.8849 35.8221 33.644 35.5745 33.4807 35.2769C33.3175 34.9794 33.2381 34.6431 33.2509 34.304C33.2638 33.9649 33.3684 33.6356 33.5538 33.3512L31.5387 29.9925C31.4298 30.0026 31.3202 30.0026 31.2113 29.9925L29.1962 33.3512C29.3807 33.6342 29.4852 33.9617 29.4989 34.2992C29.5125 34.6367 29.4348 34.9716 29.2738 35.2685C29.1129 35.5654 28.8747 35.8134 28.5845 35.9862C28.2942 36.1589 27.9628 36.2501 27.625 36.25Z" fill="#D75252"/>
</svg>
