<svg width="66" height="66" viewBox="0 0 66 66" fill="none" xmlns="http://www.w3.org/2000/svg">
<path d="M66 63.8H0V66H66V63.8Z" fill="black"/>
<path d="M4.40005 61.6H15.4C16.0075 61.6 16.5 61.1075 16.5 60.5V40.7001C16.5 40.0926 16.0075 39.6001 15.4 39.6001H4.40005C3.79257 39.6001 3.30005 40.0926 3.30005 40.7001V60.5C3.30005 61.1075 3.79257 61.6 4.40005 61.6ZM5.50005 41.8001H14.3V59.4H5.50005V41.8001Z" fill="black"/>
<path d="M35.2 61.6H46.2C46.8074 61.6 47.3 61.1074 47.3 60.5V27.4999C47.3 26.8924 46.8074 26.3999 46.2 26.3999H35.2C34.5925 26.3999 34.1 26.8924 34.1 27.4999V60.5C34.1 61.1074 34.5925 61.6 35.2 61.6ZM36.3 28.5999H45.1V59.4H36.3V28.5999Z" fill="black"/>
<path d="M19.7999 61.6001H30.7999C31.4074 61.6001 31.8999 61.1076 31.8999 60.5001V14.3001C31.8999 13.6926 31.4074 13.2001 30.7999 13.2001H19.7999C19.1925 13.2001 18.7 13.6926 18.7 14.3001V60.5001C18.7 61.1076 19.1925 61.6001 19.7999 61.6001ZM20.8999 15.4001H29.6999V59.4001H20.8999V15.4001Z" fill="black"/>
<path d="M50.6 61.6H61.6C62.2075 61.6 62.7 61.1075 62.7 60.5V1.1C62.7 0.492525 62.2075 0 61.6 0H50.6C49.9925 0 49.5 0.492525 49.5 1.1V60.5C49.5 61.1075 49.9925 61.6 50.6 61.6ZM51.7 2.2H60.5V59.4H51.7V2.2Z" fill="black"/>
</svg>
