<svg width="74" height="66" viewBox="0 0 74 66" fill="none" xmlns="http://www.w3.org/2000/svg">
<path d="M68.6948 0.116455H5.30516C2.37985 0.116455 0 2.50136 0 5.43289V61.4847C0 63.9102 1.96577 65.8837 4.38175 65.8837H69.6181C72.0342 65.8837 73.9999 63.9104 73.9999 61.4847V5.43289C74 2.50136 71.6201 0.116455 68.6948 0.116455ZM2.89062 5.43289C2.89062 4.0954 3.97374 3.00722 5.30516 3.00722H68.6948C70.0263 3.00722 71.1094 4.0954 71.1094 5.43289V14.0227H2.89062V5.43289ZM71.1094 61.4847C71.1094 62.3164 70.4405 62.993 69.6182 62.993H4.38175C3.55937 62.993 2.89062 62.3164 2.89062 61.4847V16.9132H71.1094V61.4847Z" fill="black"/>
<path d="M47.5469 7.06958H45.6052C44.8071 7.06958 44.1599 7.71679 44.1599 8.51489C44.1599 9.31299 44.8071 9.96021 45.6052 9.96021H47.5469C48.345 9.96021 48.9922 9.31299 48.9922 8.51489C48.9922 7.71665 48.345 7.06958 47.5469 7.06958Z" fill="black"/>
<path d="M56.5267 7.06958H54.5853C53.7872 7.06958 53.1399 7.71679 53.1399 8.51489C53.1399 9.31299 53.7872 9.96021 54.5853 9.96021H56.5267C57.325 9.96021 57.9721 9.31299 57.9721 8.51489C57.9721 7.71665 57.325 7.06958 56.5267 7.06958Z" fill="black"/>
<path d="M65.5068 7.06958H63.5653C62.7672 7.06958 62.12 7.71679 62.12 8.51489C62.12 9.31299 62.7672 9.96021 63.5653 9.96021H65.5068C66.3049 9.96021 66.9521 9.31299 66.9521 8.51489C66.9521 7.71665 66.305 7.06958 65.5068 7.06958Z" fill="black"/>
<path d="M24.3125 7.06958H10.3003C9.50221 7.06958 8.855 7.71679 8.855 8.51489C8.855 9.31299 9.50221 9.96021 10.3003 9.96021H24.3125C25.1106 9.96021 25.7578 9.31299 25.7578 8.51489C25.7578 7.71665 25.1106 7.06958 24.3125 7.06958Z" fill="black"/>
<path d="M37 60.0873C48.0289 60.0873 57.0014 51.1146 57.0014 40.0857C57.0014 29.0568 48.0289 20.0845 37 20.0845C25.9711 20.0845 16.9986 29.057 16.9986 40.0859C16.9986 51.1148 25.9711 60.0873 37 60.0873ZM37 22.9751C46.4348 22.9751 54.1108 30.6509 54.1108 40.0859C54.1108 49.5209 46.4348 57.1966 37 57.1966C27.5651 57.1966 19.8892 49.5207 19.8892 40.0857C19.8892 30.6507 27.5651 22.9751 37 22.9751Z" fill="black"/>
<path d="M29.2537 52.075H44.7462C45.5443 52.075 46.1915 51.4278 46.1915 50.6297V45.676C46.1915 43.2373 44.8135 41.0743 42.7795 39.9676C43.8212 38.6865 44.4461 37.0537 44.4461 35.2777C44.4461 31.1718 41.1058 27.8313 36.9999 27.8313C32.8939 27.8313 29.5536 31.1717 29.5536 35.2777C29.5536 37.0533 30.1783 38.6856 31.2193 39.9666C29.1849 41.0717 27.8083 43.2325 27.8083 45.6761V50.6298C27.8084 51.4278 28.4556 52.075 29.2537 52.075ZM37 30.7218C39.512 30.7218 41.5556 32.7654 41.5556 35.2775C41.5556 37.7895 39.512 39.8332 37 39.8332C34.488 39.8332 32.4444 37.7895 32.4444 35.2775C32.4444 32.7654 34.488 30.7218 37 30.7218ZM30.699 45.6758C30.699 43.8117 32.1425 42.2444 33.9927 42.0892C34.9128 42.497 35.9305 42.7236 37 42.7236C38.0695 42.7236 39.0872 42.497 40.0073 42.0892C41.856 42.2441 43.301 43.8153 43.301 45.6758V49.1842H30.6992V45.6758H30.699Z" fill="black"/>
</svg>
