<?xml version="1.0" standalone="no"?>
<!DOCTYPE svg PUBLIC "-//W3C//DTD SVG 20010904//EN"
 "http://www.w3.org/TR/2001/REC-SVG-20010904/DTD/svg10.dtd">
<svg version="1.0" xmlns="http://www.w3.org/2000/svg"
 width="741.000000pt" height="848.000000pt" viewBox="0 0 741.000000 848.000000"
 preserveAspectRatio="xMidYMid meet">
<metadata>
Created by potrace 1.16, written by Peter Selinger 2001-2019
</metadata>
<g transform="translate(0.000000,848.000000) scale(0.100000,-0.100000)"
fill="#000000" stroke="none">
<path d="M1060 8171 c-7 -15 -21 -21 -44 -21 -19 0 -39 -7 -47 -16 -7 -9 -22
-14 -36 -11 -14 2 -29 -3 -39 -14 -9 -10 -21 -16 -26 -13 -5 3 -17 -1 -26 -9
-9 -8 -21 -16 -27 -18 -30 -12 -125 -72 -125 -80 0 -5 -7 -9 -15 -9 -8 0 -15
-3 -15 -7 0 -5 -13 -17 -30 -28 -16 -11 -35 -30 -41 -42 -7 -13 -21 -23 -32
-23 -11 0 -17 -3 -14 -6 4 -4 -15 -34 -41 -68 -27 -34 -56 -77 -65 -96 -10
-19 -21 -42 -26 -50 -24 -45 -31 -61 -31 -74 0 -8 -6 -21 -14 -29 -8 -8 -13
-23 -12 -33 5 -28 -22 -56 -39 -41 -7 7 -11 15 -8 20 2 4 0 7 -6 7 -22 0 -20
-20 4 -36 31 -20 34 -71 5 -105 -19 -23 -21 -23 -24 3 0 6 -7 12 -14 14 -7 1
-8 0 -2 -3 7 -3 7 -10 -2 -21 -11 -13 -11 -14 0 -8 9 5 15 1 19 -13 3 -11 9
-19 12 -16 4 2 8 -2 8 -10 0 -8 -4 -12 -9 -9 -4 3 -8 -2 -8 -10 0 -8 5 -18 10
-21 6 -3 10 -14 10 -23 0 -15 -2 -15 -10 -2 -8 13 -10 12 -11 -5 -1 -11 -1
-23 0 -27 0 -4 -6 -5 -14 -2 -8 4 -15 1 -15 -5 0 -6 3 -11 8 -11 4 0 20 -11
35 -25 22 -21 27 -34 27 -73 0 -27 -5 -53 -10 -58 -7 -7 -4 -19 9 -36 27 -34
33 -74 16 -114 -12 -30 -12 -34 8 -47 19 -12 22 -25 24 -86 1 -39 7 -80 13
-92 12 -21 20 -118 10 -117 -23 2 -39 -4 -44 -17 -7 -18 3 -45 16 -45 5 0 7 4
4 9 -10 16 22 20 35 4 18 -20 21 -113 4 -107 -7 3 -16 -3 -21 -13 -14 -32 -12
-49 6 -49 10 0 16 6 13 13 -3 7 -10 10 -16 6 -6 -4 -7 -1 -2 7 6 10 12 7 26
-11 27 -34 41 -91 27 -104 -8 -7 -9 -6 -3 5 6 12 5 13 -5 3 -9 -8 -18 -9 -25
-3 -7 6 -11 3 -12 -10 -1 -14 3 -17 15 -13 16 6 16 5 1 -13 -17 -21 -20 -45
-4 -41 6 1 9 8 9 15 -2 10 1 10 12 1 8 -6 14 -8 14 -3 1 24 20 -30 25 -69 4
-35 1 -51 -12 -66 -11 -13 -19 -17 -24 -10 -3 6 -7 0 -7 -14 0 -23 2 -24 15
-11 21 20 32 17 43 -12 13 -34 13 -121 0 -129 -6 -4 -17 -1 -25 5 -9 8 -15 8
-15 2 0 -6 6 -13 13 -15 9 -4 8 -8 -3 -17 -12 -8 -10 -9 11 -5 16 4 30 1 37
-8 14 -16 23 -119 10 -111 -8 5 -10 0 -12 -28 -1 -7 -8 -16 -16 -20 -10 -4 -6
-7 12 -7 16 -1 32 -9 38 -21 11 -21 10 -79 -2 -86 -4 -3 -8 -10 -8 -15 0 -6 4
-7 10 -4 5 3 10 0 10 -8 0 -8 -6 -14 -14 -13 -8 0 -15 -3 -15 -8 1 -5 -5 -12
-11 -16 -9 -5 -9 -9 -1 -14 6 -4 14 0 17 8 8 22 31 20 38 -2 4 -10 8 -46 10
-80 2 -33 7 -66 11 -72 4 -6 8 -36 10 -66 3 -42 0 -54 -11 -54 -8 0 -14 -6
-14 -12 0 -9 -3 -8 -10 2 -6 11 -9 4 -7 -22 3 -50 12 -56 26 -16 12 32 13 32
27 14 19 -26 19 -105 0 -112 -8 -3 -12 -12 -9 -20 3 -7 -2 -16 -10 -20 -8 -3
-14 -12 -13 -19 3 -22 16 -31 16 -12 0 21 23 22 39 3 17 -21 24 -66 10 -66 -7
0 -9 -3 -6 -7 4 -3 -1 -12 -11 -19 -15 -11 -18 -10 -24 9 -5 20 -6 19 -7 -5
-1 -16 3 -28 8 -28 4 0 7 -13 5 -30 -3 -27 -2 -29 16 -18 29 19 50 -14 47 -74
-1 -25 -5 -44 -8 -42 -9 5 -33 -24 -36 -45 -1 -10 5 -27 13 -37 12 -15 15 -16
11 -2 -3 9 1 24 8 35 13 16 16 16 25 3 5 -8 10 -23 11 -32 4 -55 4 -64 -4 -69
-5 -3 -10 -15 -11 -25 -3 -21 -22 -17 -20 4 1 6 -3 12 -8 12 -6 0 -7 -10 -4
-22 4 -13 8 -35 9 -50 1 -15 6 -30 11 -35 5 -4 7 2 4 14 -4 14 1 30 12 43 17
20 18 19 28 -22 14 -54 11 -90 -8 -105 -12 -9 -16 -8 -21 5 -3 9 -6 -2 -6 -26
0 -48 12 -63 31 -37 10 14 14 14 23 3 17 -21 24 -76 10 -82 -8 -3 -8 -5 2 -5
11 -1 11 -4 1 -16 -8 -10 -17 -12 -29 -5 -15 8 -18 4 -17 -27 1 -20 7 -38 14
-41 6 -2 12 1 12 7 0 6 -4 11 -8 11 -5 0 -9 7 -9 16 0 15 1 15 12 0 7 -9 17
-16 23 -16 15 0 34 -63 28 -95 -3 -15 1 -46 9 -69 17 -49 19 -80 5 -107 -8
-14 -7 -19 2 -19 9 0 9 -3 -2 -10 -8 -5 -15 -14 -15 -20 0 -6 -5 -14 -11 -18
-8 -5 -7 -11 4 -22 14 -13 15 -12 9 2 -8 23 21 47 34 27 5 -8 9 -21 10 -29 0
-8 2 -31 5 -50 3 -25 1 -31 -6 -20 -8 13 -10 12 -10 -4 0 -15 -3 -16 -15 -6
-22 18 -31 5 -19 -28 7 -20 15 -26 31 -24 26 4 33 -6 38 -56 3 -30 0 -41 -17
-51 -11 -7 -17 -8 -13 -2 3 6 1 11 -5 11 -13 0 -11 -48 3 -67 5 -7 18 -13 29
-13 20 0 25 -8 32 -52 2 -15 -1 -29 -7 -32 -8 -3 -8 -5 1 -5 8 -1 6 -8 -8 -23
-11 -12 -20 -31 -20 -42 1 -21 1 -21 19 1 l19 22 -1 -26 c0 -14 5 -28 12 -32
6 -4 10 -22 8 -41 -2 -36 -24 -73 -39 -64 -12 8 -10 -28 3 -46 10 -13 10 -13
6 1 -3 8 3 21 13 27 16 10 20 7 30 -24 7 -20 9 -50 6 -67 -4 -23 -3 -28 4 -17
8 13 10 13 10 -2 0 -11 -10 -18 -27 -20 -22 -2 -27 -8 -29 -35 -2 -26 0 -30
11 -20 9 9 10 14 1 19 -7 5 -7 8 0 8 5 0 15 -5 22 -12 9 -9 12 -8 13 7 1 26
17 -27 24 -78 4 -28 1 -43 -12 -55 -21 -21 -26 -19 -35 10 -5 20 -6 20 -7 3 0
-11 6 -33 14 -49 17 -33 20 -48 4 -26 -7 10 -9 11 -7 2 7 -25 21 -17 35 18 7
19 11 24 9 11 -3 -13 2 -30 10 -38 19 -19 18 -78 -2 -97 -10 -11 -11 -16 -3
-16 7 0 9 -3 6 -6 -4 -4 -13 -1 -22 6 -12 10 -15 10 -15 -2 0 -7 9 -20 21 -28
11 -8 27 -19 35 -25 19 -13 25 -75 9 -91 -7 -7 -15 -10 -19 -7 -3 4 -6 0 -7
-8 0 -8 -4 -6 -9 6 -8 19 -9 19 -9 -2 -1 -13 4 -23 9 -23 6 0 8 -10 4 -24 -3
-13 -1 -27 4 -30 6 -4 8 2 5 14 -3 12 0 20 6 20 7 0 10 4 7 8 -3 5 2 9 10 9
16 0 23 -21 27 -78 3 -36 -4 -42 -30 -26 -10 6 -11 2 -4 -15 5 -13 5 -31 1
-39 -5 -8 -5 -21 0 -29 6 -8 10 -10 10 -4 0 5 7 19 15 30 8 10 14 15 13 9 -1
-5 3 -19 8 -30 26 -48 25 -72 -4 -100 -25 -24 -39 -75 -19 -75 4 0 14 0 23 0
8 0 13 4 10 8 -2 4 0 14 6 22 8 13 9 12 5 -1 -3 -9 -1 -21 4 -26 5 -5 12 -27
15 -50 4 -31 1 -46 -12 -61 -10 -12 -21 -19 -26 -16 -4 3 -8 0 -8 -6 0 -7 6
-10 13 -7 16 5 57 -51 57 -81 0 -32 -19 -65 -34 -59 -9 4 -13 -5 -12 -28 0
-18 4 -31 8 -29 3 2 9 -2 11 -8 3 -8 6 -6 6 5 1 10 6 15 11 12 5 -3 10 2 11
12 0 10 5 5 10 -12 11 -38 21 -147 10 -121 -7 19 -8 19 -13 -2 -3 -11 -2 -23
3 -26 5 -2 4 -3 -3 -2 -7 1 -19 13 -25 27 -12 23 -13 23 -13 2 0 -27 26 -54
44 -47 10 4 17 -9 25 -46 6 -28 11 -57 11 -65 0 -25 -23 -65 -33 -58 -6 4 -7
1 -2 -7 6 -10 10 -10 20 3 10 14 12 13 24 -5 17 -27 22 -58 10 -58 -5 0 0 -9
10 -19 11 -11 18 -28 17 -38 -2 -10 5 -24 15 -31 11 -7 19 -20 19 -28 0 -8 5
-14 11 -14 8 0 7 -5 -2 -16 -11 -14 -10 -15 6 -12 11 1 20 -3 21 -9 1 -7 2
-17 3 -23 0 -5 9 -10 19 -11 14 0 14 -2 -3 -8 -11 -5 -25 -4 -32 1 -9 7 -13 7
-13 -1 0 -6 5 -11 10 -11 6 0 10 -5 10 -11 0 -5 -6 -7 -12 -3 -10 5 -10 3 0
-7 11 -12 14 -12 22 1 5 8 10 11 10 6 0 -5 6 -3 14 3 16 13 32 -1 21 -19 -3
-5 0 -7 8 -4 8 3 20 -2 27 -11 7 -8 9 -15 5 -15 -4 0 1 -8 12 -17 10 -10 14
-15 9 -10 -16 11 -26 8 -20 -7 3 -8 0 -17 -7 -22 -7 -4 -10 -3 -5 4 3 6 1 14
-5 18 -7 4 -9 3 -5 -4 3 -5 0 -12 -6 -14 -8 -3 -4 -10 11 -17 14 -8 21 -9 17
-2 -4 6 -4 11 1 12 4 0 18 2 30 5 12 2 25 -1 28 -6 4 -6 -1 -7 -12 -3 -16 6
-16 4 2 -18 11 -13 25 -27 30 -31 6 -5 5 -8 -3 -8 -7 0 -15 7 -18 15 -4 8 -14
15 -23 14 -10 0 -11 -2 -3 -6 6 -2 9 -10 6 -15 -4 -6 -2 -8 3 -5 6 4 17 0 24
-9 11 -13 15 -12 35 13 l23 28 10 -25 c5 -14 10 -19 10 -11 1 20 11 8 16 -18
3 -16 0 -21 -13 -19 -9 2 -22 9 -28 16 -8 11 -13 11 -25 -4 -8 -10 -9 -15 -2
-11 7 4 20 0 30 -10 19 -19 46 -23 59 -10 4 4 3 7 -3 7 -5 0 -10 7 -10 15 0 8
6 15 14 15 7 0 12 -3 12 -7 -3 -19 2 -33 12 -33 5 0 8 4 5 9 -3 5 5 8 18 8 16
0 23 -4 20 -12 -3 -7 -1 -16 5 -20 6 -3 11 -2 11 3 0 5 7 9 15 9 13 0 12 -4
-2 -20 -17 -19 -17 -20 4 -8 29 15 43 14 43 -3 0 -8 5 -18 12 -22 7 -5 9 -2 5
9 -5 12 2 15 35 14 31 -2 45 -8 57 -27 9 -13 11 -21 5 -17 -7 4 -14 0 -17 -8
-8 -19 38 -27 125 -22 47 3 71 0 78 -8 8 -9 46 -13 122 -14 77 -1 115 -5 120
-14 5 -8 42 -12 123 -12 81 0 115 -3 115 -11 0 -8 30 -12 97 -13 53 -1 102 -6
109 -12 8 -7 14 -7 19 1 3 6 10 8 15 5 4 -3 4 10 0 27 -5 18 -16 78 -25 133
-9 55 -20 123 -25 150 -5 28 -17 91 -25 140 -9 50 -20 113 -25 140 -5 28 -14
77 -19 110 -6 33 -18 98 -26 145 -8 47 -20 110 -25 140 -10 59 -35 203 -50
285 -5 28 -14 77 -19 110 -6 33 -18 98 -26 145 -8 47 -20 110 -25 140 -10 59
-36 204 -50 285 -5 28 -16 91 -25 140 -30 174 -37 210 -47 260 -7 28 -11 113
-11 190 0 148 19 254 63 349 11 25 20 57 20 71 0 14 8 38 17 53 32 52 208 212
232 212 18 0 13 7 -38 59 -53 54 -111 159 -111 201 0 14 -5 31 -11 37 -6 6
-11 48 -11 98 0 50 5 92 11 98 6 6 11 24 11 40 0 48 91 175 161 225 32 23 66
42 74 42 8 0 15 5 15 10 0 6 8 10 18 10 9 0 37 7 62 16 74 26 188 10 292 -42
26 -13 49 -20 52 -16 2 4 5 131 6 282 2 243 -1 288 -20 390 -30 162 -29 250 3
323 28 62 70 107 130 138 44 23 54 20 37 -11 -7 -14 -11 -76 -11 -173 1 -152
4 -168 44 -259 10 -21 17 -43 17 -50 0 -6 9 -39 21 -72 58 -168 150 -312 272
-430 40 -38 79 -83 87 -100 16 -33 31 -42 133 -80 81 -31 101 -32 127 -6 35
35 16 110 -28 110 -7 0 -20 4 -30 10 -37 21 -138 48 -162 43 -22 -4 -39 10
-117 89 -133 139 -241 338 -249 463 -1 28 -13 107 -25 176 -23 126 -23 128 -4
207 12 56 27 90 46 114 18 20 29 44 29 63 0 21 13 46 40 79 73 88 134 121 241
131 40 4 110 13 155 20 44 8 92 11 105 8 54 -14 104 -51 127 -94 20 -38 22
-53 17 -117 -6 -72 -5 -73 29 -115 19 -23 37 -55 40 -70 2 -15 7 -36 11 -46 3
-11 -3 -45 -13 -76 -15 -44 -17 -65 -10 -93 10 -39 22 -92 37 -164 11 -55 30
-134 42 -174 5 -17 9 -50 9 -73 0 -23 5 -52 12 -64 18 -35 20 -272 3 -314 -8
-20 -15 -46 -15 -59 0 -13 -4 -24 -10 -24 -5 0 -10 -7 -10 -15 0 -8 -17 -32
-39 -52 -55 -54 -68 -63 -90 -63 -11 0 -23 -4 -26 -10 -3 -5 -28 -10 -54 -10
-61 0 -81 -20 -81 -81 0 -42 -8 -88 -24 -135 -6 -20 11 -30 189 -119 108 -53
209 -108 225 -122 59 -49 77 -124 46 -193 -33 -74 -73 -100 -156 -100 -33 0
-60 -1 -60 -3 0 -3 24 -55 96 -203 24 -50 44 -96 44 -102 0 -6 3 -12 8 -14 10
-4 42 -67 42 -84 0 -8 5 -14 10 -14 6 0 10 -5 10 -12 0 -11 20 -54 151 -323
27 -55 49 -106 49 -113 0 -6 5 -12 10 -12 6 0 10 -5 10 -12 0 -10 60 -143 81
-178 5 -8 12 -22 15 -30 3 -8 23 -51 44 -95 22 -45 44 -92 49 -105 6 -14 15
-32 20 -40 5 -8 12 -24 16 -34 5 -18 6 -18 25 2 11 12 20 25 20 29 0 5 10 19
23 33 12 14 51 66 86 115 35 50 67 92 71 95 4 3 38 48 75 100 38 52 84 111
102 130 18 19 33 39 33 44 0 8 68 106 81 116 3 3 9 15 13 28 4 12 12 22 17 22
5 0 9 5 9 11 0 6 6 17 13 24 29 33 37 45 37 55 0 5 4 10 8 10 4 0 16 15 27 33
10 17 21 34 24 37 3 3 19 23 36 45 38 52 82 101 124 139 19 17 39 36 45 41 11
11 96 53 149 74 52 21 160 32 346 37 112 2 189 8 197 15 8 6 34 9 58 7 38 -2
46 0 52 17 3 11 6 23 5 27 0 4 8 5 19 3 17 -3 18 -1 8 21 -6 13 -15 24 -20 24
-10 0 -11 -17 0 -23 4 -2 1 -2 -5 -1 -8 2 -13 -6 -14 -19 0 -21 -1 -21 -8 -2
-5 13 -3 25 6 34 8 8 13 25 10 38 -3 15 1 23 9 23 8 0 14 5 14 11 0 5 -4 7
-10 4 -5 -3 -10 2 -10 11 0 16 -14 12 -16 -4 0 -4 -4 -15 -8 -24 -4 -9 -5 -22
-1 -28 3 -5 2 -10 -2 -10 -14 0 -31 88 -19 100 14 14 29 12 20 -2 -5 -10 -4
-10 5 -2 13 12 6 60 -10 70 -5 3 -6 -1 -3 -9 3 -8 0 -18 -6 -22 -13 -8 -42 13
-35 25 3 5 1 11 -5 15 -18 11 -11 27 10 20 16 -5 20 -2 20 18 0 14 4 27 9 29
5 2 3 9 -5 16 -12 11 -14 10 -14 -7 0 -26 -24 -33 -38 -10 -15 23 1 69 23 69
8 0 15 6 15 14 0 17 -40 10 -41 -8 0 -10 -21 30 -23 46 -1 3 -4 10 -8 14 -5 4
-8 18 -8 30 0 13 -4 26 -10 29 -5 3 -9 17 -8 30 1 13 6 21 10 19 4 -3 8 3 9
13 0 16 1 16 9 -2 5 -11 9 -14 9 -7 1 7 6 10 12 6 7 -4 10 -1 7 7 -3 8 -11 13
-18 11 -8 -2 -10 4 -6 15 5 16 5 16 -8 -1 -18 -22 -47 -14 -42 11 7 38 18 54
30 44 9 -7 12 -2 14 20 1 16 -2 29 -8 29 -5 0 -7 -6 -4 -14 7 -17 -25 -30 -41
-16 -23 19 -25 50 -4 71 11 11 23 18 28 15 4 -3 8 1 8 9 0 8 -5 11 -10 8 -7
-4 -8 1 -3 13 4 13 -2 9 -19 -10 -18 -21 -25 -25 -25 -13 0 10 -5 17 -10 17
-6 0 -9 13 -8 29 1 21 6 27 19 24 19 -5 36 44 21 59 -6 6 -11 1 -15 -11 -3
-14 -1 -19 6 -14 7 3 8 2 4 -3 -21 -23 -50 -4 -60 38 -6 24 -4 28 19 34 19 5
22 9 12 15 -10 7 -8 9 7 10 11 0 14 3 7 6 -6 2 -10 9 -6 14 3 5 3 9 0 9 -3 0
-11 -12 -19 -26 -12 -23 -15 -24 -26 -10 -8 9 -13 28 -13 44 0 15 -5 36 -12
47 -7 11 -16 36 -19 55 -4 21 -4 30 2 21 5 -8 16 -11 30 -6 17 5 20 10 11 20
-6 8 -18 11 -26 8 -25 -9 -44 15 -33 43 11 31 11 56 -1 29 -8 -18 -9 -17 -9 8
-1 15 4 28 9 28 6 1 15 2 20 3 6 0 15 8 20 16 5 8 12 11 17 7 4 -5 3 -11 -3
-15 -6 -4 -10 -15 -8 -24 1 -10 -2 -18 -7 -18 -6 0 -7 -4 -4 -10 4 -6 11 -5
19 3 10 9 11 14 2 20 -6 5 -2 7 11 4 22 -5 36 5 39 31 1 6 -2 12 -7 12 -6 0
-7 5 -4 10 11 17 22 11 27 -15 3 -14 1 -25 -3 -25 -5 0 -9 -6 -9 -12 1 -7 9
-3 19 8 12 16 22 19 34 13 17 -10 36 8 21 20 -5 3 -10 16 -12 29 -3 18 1 22
20 21 17 -1 18 -3 6 -6 -19 -5 -24 -18 -9 -28 21 -12 71 -12 71 0 0 8 12 12
32 11 19 0 33 4 36 13 3 10 0 12 -12 8 -12 -5 -15 -3 -9 6 4 6 7 21 6 32 -2
13 1 10 8 -7 9 -23 17 -28 44 -28 21 0 35 6 39 16 3 8 10 13 16 9 12 -8 50 12
50 27 0 6 -3 8 -7 5 -7 -8 -33 11 -33 24 0 15 23 5 48 -21 16 -17 25 -21 29
-12 2 6 9 10 14 6 5 -3 9 1 9 9 0 10 9 12 32 9 26 -4 30 -2 25 12 -6 15 -2 17
28 13 26 -4 40 1 59 18 25 23 28 38 12 64 -7 10 -5 12 5 7 8 -4 3 2 -11 13
-14 11 -28 21 -32 21 -14 0 -8 -21 7 -26 8 -4 15 -11 15 -16 0 -16 -31 14 -41
39 -5 15 -14 21 -24 17 -8 -3 -12 -10 -9 -15 3 -5 9 -7 13 -4 5 2 8 -6 8 -19
0 -18 -4 -22 -18 -19 -11 3 -19 10 -19 15 0 5 -4 7 -9 3 -6 -3 -8 11 -6 31 2
23 -2 43 -11 51 -8 8 -14 11 -14 7 0 -3 -6 -1 -13 5 -8 6 -17 8 -20 4 -4 -3
-7 2 -8 13 0 10 -3 13 -6 7 -7 -20 -23 -15 -33 10 -6 16 -9 17 -9 5 -1 -9 4
-20 9 -23 16 -10 12 -22 -9 -28 -14 -3 -18 -1 -14 10 3 7 2 13 -3 12 -29 -5
-34 2 -18 26 15 23 12 45 -7 45 -5 0 -9 -11 -9 -25 0 -16 -6 -25 -16 -25 -11
0 -14 7 -11 30 3 18 1 29 -6 27 -6 -1 -11 3 -12 10 0 16 -43 55 -56 51 -6 -2
-1 -14 10 -27 12 -13 21 -28 21 -33 0 -5 5 -6 11 -2 7 4 10 1 7 -7 -3 -8 -12
-12 -19 -10 -8 2 -20 4 -26 4 -7 0 -13 11 -13 24 0 14 -4 21 -10 18 -6 -4 -8
-12 -4 -18 3 -7 -4 -1 -15 13 -11 14 -21 21 -21 15 0 -5 -5 -2 -11 8 -15 26 0
42 21 20 9 -10 15 -22 12 -27 -3 -5 0 -6 6 -2 19 12 14 31 -15 57 -14 13 -23
18 -19 12 4 -8 1 -13 -9 -13 -8 0 -19 8 -22 18 -9 23 -29 42 -37 35 -9 -9 -8
-25 2 -20 4 3 15 -6 25 -18 21 -28 11 -37 -29 -25 -16 4 -24 9 -19 10 6 1 1 5
-10 10 -17 7 -17 9 -2 9 19 1 23 16 5 27 -7 4 -8 3 -4 -4 4 -8 0 -12 -11 -11
-21 1 -63 17 -48 18 6 1 4 5 -4 10 -11 7 -9 10 8 16 27 8 27 16 -6 46 -14 13
-23 18 -19 12 4 -8 2 -13 -5 -13 -8 0 -6 -7 5 -19 14 -15 14 -20 3 -29 -10 -9
-19 -7 -34 8 -12 10 -23 16 -26 13 -3 -3 -4 6 -1 19 2 12 2 17 -2 11 -4 -10
-10 -10 -27 -1 -12 7 -26 11 -30 10 -5 -1 -6 2 -2 8 3 5 1 10 -4 10 -16 0 -13
16 4 34 18 18 19 26 3 26 -6 0 -21 8 -32 18 -20 17 -20 17 -4 -9 20 -31 6 -68
-18 -48 -7 6 -11 15 -8 20 3 5 -6 9 -20 9 -26 0 -68 33 -79 63 -6 15 3 22 26
18 4 0 7 6 7 14 0 17 -16 20 -25 5 -8 -13 -35 6 -35 25 0 14 27 28 39 21 4 -3
8 9 9 25 1 16 -2 29 -8 29 -9 0 -14 -13 -12 -32 1 -3 -5 -9 -13 -11 -9 -4 -16
4 -20 23 -4 17 -11 32 -16 35 -5 4 -9 15 -9 26 0 10 -4 19 -10 19 -5 0 -9 6
-7 13 3 17 38 48 47 42 5 -3 6 4 3 15 -7 25 -11 25 -33 0 -14 -16 -20 -18 -26
-8 -14 23 -11 48 7 53 22 7 31 42 13 49 -12 5 -18 -5 -16 -25 1 -3 -5 -6 -13
-6 -13 0 -19 8 -25 32 -1 6 -6 19 -10 30 -4 11 -10 33 -14 49 -6 26 -5 28 17
24 20 -4 24 -1 23 20 -1 14 -7 27 -14 30 -7 2 -10 -2 -6 -11 6 -16 -17 -29
-33 -19 -5 4 -13 21 -17 37 -4 19 -3 25 2 16 8 -10 13 -9 25 9 11 15 16 18 20
8 4 -9 6 -7 6 5 1 19 -25 23 -32 5 -3 -10 -9 -10 -22 -2 -29 16 -27 44 3 56
28 11 27 12 -21 22 -16 4 -25 11 -21 17 6 11 -14 59 -30 70 -10 8 34 40 45 34
4 -3 6 3 4 12 -2 10 -4 24 -4 31 -1 6 -6 12 -11 12 -7 0 -7 -7 0 -20 10 -19 9
-20 -14 -17 -30 4 -39 11 -43 36 -2 15 3 17 25 13 32 -6 28 1 -13 22 -36 19
-41 52 -8 61 27 6 30 27 6 46 -14 12 -16 12 -8 0 6 -11 4 -13 -8 -8 -11 4 -17
1 -17 -9 0 -8 -4 -12 -10 -9 -16 10 -12 34 10 52 11 10 20 25 20 35 0 22 -4
22 -34 2 -23 -15 -24 -14 -36 21 -7 20 -13 42 -14 48 -1 7 -5 18 -9 25 -5 6
-4 12 2 12 5 0 13 9 16 20 4 11 11 18 16 15 10 -7 12 8 2 18 -3 4 -14 -4 -23
-18 l-17 -25 -13 25 c-11 20 -11 27 0 40 7 9 19 14 27 11 8 -3 13 2 13 13 0
27 -10 31 -34 16 -19 -13 -23 -12 -35 6 -7 12 -8 18 -2 14 7 -3 11 2 11 15 0
12 3 19 8 17 4 -3 12 1 19 8 9 10 8 17 -3 31 -15 18 -15 18 -11 -3 6 -27 6
-27 -27 -12 -33 15 -32 53 1 44 13 -3 23 -1 23 5 0 5 -4 10 -10 10 -5 0 -10 5
-10 11 0 5 5 7 11 3 7 -4 10 -1 7 6 -7 23 -25 22 -31 -2 -6 -22 -7 -22 -23 -6
-14 14 -15 20 -4 32 7 9 19 16 26 16 8 0 14 11 14 26 0 14 -4 23 -10 19 -5 -3
-10 0 -10 7 -1 7 -6 0 -13 -15 -12 -29 -12 -29 -31 -9 -20 23 -14 42 15 42 10
0 19 5 19 11 0 6 -8 8 -17 5 -15 -5 -15 -4 1 9 11 8 16 15 11 15 -5 0 -17 -8
-27 -17 -17 -15 -20 -15 -28 -3 -7 11 -3 18 13 27 21 12 19 15 -12 17 -24 2
-23 23 1 46 14 13 17 19 7 15 -11 -4 -18 1 -22 17 -6 22 -7 22 -22 3 -14 -19
-15 -19 -8 -1 4 12 2 17 -3 13 -6 -3 -15 3 -22 13 -7 12 -8 21 -2 25 6 4 8 11
5 16 -4 5 -2 9 3 9 6 0 12 -10 16 -23 5 -22 36 -35 36 -15 0 4 -6 8 -14 8 -10
0 -13 7 -11 20 3 13 0 18 -7 14 -8 -5 -9 -1 -4 12 5 14 -1 11 -23 -10 -17 -17
-31 -28 -32 -25 -6 35 -10 44 -19 47 -5 2 -8 8 -4 13 3 5 0 9 -5 9 -6 0 -11 7
-11 16 0 8 -5 12 -10 9 -6 -4 -10 -3 -9 2 4 21 -2 34 -13 27 -8 -5 -9 -2 -5 9
4 11 1 17 -7 17 -8 0 -19 13 -26 29 -7 19 -17 28 -26 24 -8 -3 -14 1 -14 9 0
16 -36 50 -63 61 -10 4 -22 18 -27 32 -6 15 -15 23 -20 20 -6 -4 -10 -3 -9 2
4 22 -2 35 -15 30 -12 -5 -82 37 -126 75 -8 7 -17 13 -20 14 -15 2 -60 28 -60
36 0 4 -9 8 -21 8 -11 0 -27 7 -35 15 -8 8 -20 12 -28 9 -7 -3 -19 2 -26 11
-7 8 -20 15 -30 15 -10 0 -23 6 -29 14 -7 8 -21 12 -31 9 -11 -3 -35 2 -54 11
-19 9 -45 16 -58 16 -12 0 -37 9 -54 19 -20 12 -36 16 -45 10 -21 -13 -3349
-11 -3365 2 -9 8 -16 5 -24 -10z"/>
<path d="M6555 3290 c-11 -5 -41 -9 -67 -9 -26 -1 -50 -5 -53 -11 -3 -5 -25
-10 -48 -10 -23 0 -64 -7 -91 -15 -27 -8 -64 -15 -82 -15 -18 0 -36 -4 -39
-10 -3 -5 -26 -10 -51 -10 -24 0 -52 -4 -62 -9 -9 -5 -44 -16 -77 -26 -64 -19
-101 -32 -125 -46 -8 -5 -28 -16 -45 -25 -39 -21 -85 -64 -85 -80 0 -6 15 -19
33 -27 38 -19 90 -64 85 -75 -2 -4 -10 -20 -18 -37 -8 -16 -17 -32 -20 -35 -3
-3 -18 -31 -35 -62 -16 -32 -33 -58 -38 -58 -5 0 -5 -6 1 -12 5 -7 12 -38 15
-68 6 -66 25 -182 39 -230 10 -38 6 -157 -9 -230 -16 -79 -36 -123 -89 -205
-60 -92 -288 -322 -347 -350 -29 -14 -36 -22 -31 -37 3 -10 -1 -30 -10 -43
-16 -25 -63 -108 -76 -135 -42 -85 -60 -127 -60 -138 0 -12 -3 -21 -33 -80 -9
-19 -17 -44 -17 -57 0 -13 -4 -27 -10 -30 -5 -3 -10 -15 -10 -25 0 -17 -18
-66 -41 -112 -5 -10 -9 -25 -9 -33 0 -8 -4 -23 -10 -33 -5 -9 -16 -35 -25 -57
-9 -22 -38 -83 -65 -137 l-48 -96 34 -6 c39 -8 50 -21 34 -41 -8 -10 -8 -15 1
-21 7 -4 9 -3 6 3 -4 6 3 19 14 29 17 15 19 16 14 1 -5 -12 -2 -15 14 -12 18
3 20 1 11 -16 -9 -16 -7 -19 11 -19 18 0 20 4 15 28 -3 15 -3 22 0 15 3 -8 14
-9 35 -3 16 5 29 6 29 3 0 -3 6 -1 13 5 6 5 23 8 37 6 29 -5 56 -34 40 -44 -7
-4 -4 -12 6 -21 10 -8 15 -9 11 -2 -4 6 -3 14 3 18 5 3 10 -1 10 -9 0 -9 5
-16 11 -16 5 0 7 6 3 13 -6 8 -3 8 9 -1 19 -16 37 -8 37 17 0 14 10 18 56 20
60 2 128 -15 119 -30 -4 -5 1 -9 10 -9 10 0 13 5 9 12 -5 8 -2 9 9 5 40 -16
52 -19 38 -9 -9 7 3 9 40 7 30 -2 66 -3 81 -4 15 -1 36 -10 46 -21 15 -16 24
-19 43 -12 13 5 30 7 37 5 6 -3 12 0 12 6 0 12 6 11 103 -10 46 -10 61 -18 68
-36 5 -13 14 -23 20 -23 8 0 8 4 1 13 -17 21 16 33 81 31 102 -3 106 -44 5
-44 -82 0 -70 -8 15 -11 37 -1 70 -6 73 -11 3 -4 12 -8 20 -8 11 0 12 4 4 19
-9 17 -7 19 10 16 11 -2 25 2 32 8 7 7 27 11 43 11 17 -1 44 -2 62 -3 32 -1
45 -10 72 -49 13 -18 22 -20 65 -15 28 3 55 7 60 11 5 3 6 1 3 -5 -4 -6 6 -10
24 -11 20 0 27 3 22 11 -5 8 -2 8 9 0 8 -7 18 -10 21 -6 12 11 8 23 -8 23 -12
0 -12 3 2 20 18 20 49 29 38 10 -3 -6 1 -13 9 -16 9 -3 13 -10 10 -15 -3 -5 0
-9 5 -9 6 0 11 6 11 13 0 8 4 7 10 -3 5 -8 10 -10 10 -4 0 7 15 15 33 18 17 3
45 13 61 21 15 8 32 12 37 9 5 -3 9 3 9 12 0 10 3 14 7 11 3 -4 12 2 20 13 8
12 20 17 30 13 11 -4 14 -3 9 5 -4 7 -2 12 3 12 14 0 57 43 53 53 -2 6 22 11
41 8 4 -1 3 8 -3 19 -6 11 -7 20 -3 19 26 -4 35 3 30 22 -4 15 -3 19 5 11 7
-7 16 -4 29 9 16 16 17 23 7 44 -6 13 -15 22 -20 18 -10 -6 10 38 21 47 4 3
11 16 17 29 9 21 11 22 23 7 12 -14 12 -16 -3 -10 -11 4 -16 1 -16 -10 0 -9 6
-16 13 -17 6 -1 1 -4 -12 -8 -33 -9 -37 -25 -9 -39 13 -6 17 -11 11 -11 -7 -1
-13 -6 -13 -12 0 -30 41 34 44 68 1 7 10 19 21 27 17 14 18 17 5 26 -8 5 -10
10 -4 10 10 0 21 24 30 68 1 6 -5 18 -14 25 -31 22 -22 77 12 77 7 0 7 -3 -1
-8 -9 -6 -6 -11 8 -21 12 -7 18 -8 14 -2 -3 6 -2 11 2 11 5 0 9 9 10 20 1 13
-2 18 -10 14 -8 -5 -8 -3 1 7 16 18 15 29 -3 29 -8 0 -15 5 -15 11 0 5 5 7 10
4 19 -12 24 27 5 41 -17 13 -17 14 -2 14 9 0 17 5 17 10 0 6 -8 10 -17 10 -16
1 -16 2 -2 10 10 6 15 20 13 36 -4 37 -12 41 -30 15 l-16 -22 -15 21 c-13 18
-13 26 -2 46 7 14 19 22 26 20 7 -3 13 1 13 9 0 8 -5 15 -11 15 -6 0 -8 9 -4
23 5 18 3 17 -10 -5 -9 -16 -18 -28 -22 -28 -3 0 -3 3 0 7 4 3 0 14 -8 23 -14
16 -14 19 1 35 12 12 19 13 24 5 4 -7 8 0 8 16 0 41 -17 59 -34 37 -16 -22
-33 -9 -40 33 -2 16 -1 24 3 18 5 -6 19 -15 33 -19 20 -6 23 -5 13 6 -15 16
-17 33 -3 24 6 -3 10 -1 10 4 0 6 -5 11 -11 11 -6 0 -8 8 -5 18 4 10 -2 7 -13
-8 -19 -23 -21 -24 -36 -9 -14 13 -15 21 -6 37 7 13 17 19 26 16 18 -7 20 7 3
25 -7 8 -8 11 -2 8 6 -3 11 0 11 8 0 7 -9 13 -19 12 -10 -1 -18 -7 -18 -14 0
-7 -5 -13 -11 -13 -5 0 -7 4 -4 10 3 5 2 10 -4 10 -6 0 -8 7 -5 15 4 8 10 13
14 10 9 -6 22 20 26 52 3 25 -11 40 -21 23 -7 -12 -45 -14 -46 -2 0 4 -2 15
-4 24 -2 11 2 15 12 11 28 -11 47 57 21 73 -7 4 -8 3 -4 -4 4 -7 3 -12 -2 -12
-5 0 -14 -10 -20 -22 -8 -17 -11 -19 -11 -6 -1 9 -6 18 -12 20 -15 5 0 36 22
43 20 7 27 45 8 45 -5 0 -8 -4 -4 -9 3 -5 -8 -3 -24 5 -28 14 -51 56 -27 51 6
-1 10 4 8 12 -2 11 0 12 11 3 11 -10 14 -7 15 18 0 16 -4 32 -9 35 -5 4 -9 20
-9 36 0 22 -4 28 -12 23 -10 -6 -10 -5 0 8 10 13 9 18 -5 29 -11 10 -14 10 -9
1 4 -7 1 -14 -8 -18 -8 -3 -12 -12 -9 -20 3 -8 1 -14 -5 -14 -10 0 -22 34 -28
79 -3 21 -2 22 10 6 11 -16 13 -15 28 6 21 34 13 50 -18 38 -42 -15 -45 -11
-35 44 0 4 9 7 20 7 17 0 19 10 12 53 -3 19 -19 4 -17 -17 4 -32 -20 -23 -40
15 -14 27 -13 29 11 35 14 3 25 9 26 13 0 3 2 13 4 22 1 8 -6 21 -17 28 -13 8
-18 8 -13 1 4 -6 1 -18 -6 -26 -10 -12 -14 -12 -20 -2 -16 24 -10 48 11 48 22
0 28 34 9 46 -8 5 -8 9 1 14 9 5 9 9 1 14 -10 6 -15 -6 -12 -26 2 -14 -26 -8
-39 7 -11 13 -8 19 14 40 14 13 26 30 26 38 0 16 -29 19 -47 4 -7 -5 -13 -8
-13 -6 0 2 -4 18 -9 35 -8 29 -7 30 20 28 29 -2 41 18 19 31 -6 4 -8 11 -5 16
8 13 -2 11 -25 -3 -17 -11 -22 -10 -30 1 -11 19 7 54 25 47 10 -3 13 4 11 24
-2 34 -16 53 -16 23 0 -28 -31 -25 -48 5 -15 26 -8 44 13 35 10 -3 15 1 15 14
0 10 5 24 11 30 6 6 7 13 2 16 -10 7 -38 -13 -46 -33 -4 -12 -6 -11 -6 3 -1 9
-5 17 -9 17 -12 0 -8 38 6 52 9 9 12 9 12 -1 0 -7 5 -9 10 -6 13 8 13 62 1 70
-6 3 -8 -3 -6 -14 2 -13 -1 -18 -13 -16 -9 2 -20 4 -23 4 -9 1 -31 53 -25 59
3 3 11 0 19 -6 26 -22 37 1 28 62 0 6 -11 -1 -22 -13 -20 -21 -23 -22 -31 -7
-12 21 -3 47 14 44 7 -2 13 11 15 29 3 37 -14 41 -35 8 -12 -18 -13 -18 -8 -1
5 13 2 17 -9 12 -10 -3 -14 0 -12 12 4 29 17 41 35 35 15 -6 16 -5 2 12 -9 11
-10 16 -2 11 6 -4 12 -2 12 3 0 6 -12 11 -28 11 -33 0 -51 25 -48 68 1 18 -3
33 -11 36 -7 3 -13 12 -13 21 0 17 -14 18 -45 5z"/>
</g>
</svg>
