<svg width="62" height="62" viewBox="0 0 62 62" fill="none" xmlns="http://www.w3.org/2000/svg">
<circle cx="31" cy="31" r="31" fill="#EAFBE7"/>
<mask id="path-2-inside-1" fill="white">
<path d="M41 30C41 31.8509 40.4863 33.6654 39.5162 35.2417C38.546 36.8179 37.1574 38.094 35.505 38.9278C33.8526 39.7616 32.0012 40.1204 30.1569 39.9644C28.3126 39.8083 26.5478 39.1435 25.059 38.0439C23.5702 36.9443 22.4157 35.4531 21.7242 33.7362C21.0327 32.0194 20.8312 30.1443 21.1422 28.3198C21.4532 26.4952 22.2644 24.7928 23.4856 23.4019C24.7069 22.0111 26.2901 20.9865 28.0591 20.4422L31 30H41Z"/>
</mask>
<path d="M41 30C41 31.8509 40.4863 33.6654 39.5162 35.2417C38.546 36.8179 37.1574 38.094 35.505 38.9278C33.8526 39.7616 32.0012 40.1204 30.1569 39.9644C28.3126 39.8083 26.5478 39.1435 25.059 38.0439C23.5702 36.9443 22.4157 35.4531 21.7242 33.7362C21.0327 32.0194 20.8312 30.1443 21.1422 28.3198C21.4532 26.4952 22.2644 24.7928 23.4856 23.4019C24.7069 22.0111 26.2901 20.9865 28.0591 20.4422L31 30H41Z" stroke="#40A430" stroke-width="2" mask="url(#path-2-inside-1)"/>
</svg>
