<svg width="35" height="28" viewBox="0 0 35 28" fill="none" xmlns="http://www.w3.org/2000/svg">
<path d="M35 4.1044C34.0253 5.4618 32.8296 6.61891 31.4128 7.57574C31.4268 7.83236 31.4338 8.1224 31.4338 8.44587C31.4338 10.2431 31.1539 12.0426 30.5942 13.8442C30.0345 15.6458 29.1795 17.3703 28.0293 19.0176C26.8791 20.6649 25.5089 22.1243 23.9189 23.3958C22.3289 24.6672 20.4176 25.681 18.185 26.4371C15.9525 27.1932 13.5598 27.5713 11.007 27.5713C7.02284 27.5713 3.35385 26.5642 0 24.5501C0.595269 24.6121 1.16618 24.6431 1.71274 24.6431C5.04115 24.6431 8.01396 23.6832 10.6312 21.7634C9.07927 21.7368 7.68943 21.2895 6.46165 20.4216C5.23387 19.5536 4.38894 18.4446 3.92686 17.0944C4.38359 17.1758 4.83437 17.2166 5.2792 17.2166C5.91951 17.2166 6.54956 17.1384 7.16935 16.982C5.51319 16.6714 4.13926 15.8991 3.04757 14.665C1.95592 13.4309 1.41009 12.0065 1.41009 10.3918V10.3086C2.42665 10.8356 3.51097 11.1159 4.66305 11.1496C3.68195 10.5372 2.90409 9.7386 2.32946 8.75381C1.7548 7.76903 1.46746 6.70332 1.46746 5.55669C1.46746 4.34737 1.79111 3.22127 2.43841 2.17838C4.23946 4.24778 6.4218 5.9017 8.98544 7.14016C11.5491 8.37863 14.2994 9.06644 17.2364 9.20359C17.1112 8.71479 17.0484 8.2047 17.0482 7.67333C17.0482 5.81798 17.7494 4.23378 19.1519 2.92074C20.5544 1.60769 22.2465 0.951172 24.228 0.951172C26.3026 0.951172 28.0501 1.65848 29.4705 3.07309C31.0933 2.77212 32.6127 2.22775 34.0289 1.43997C33.4833 3.04765 32.432 4.28786 30.875 5.16061C32.306 5.00138 33.6811 4.64931 35 4.1044Z" fill="#57CBFD"/>
</svg>
